M48
;DRILL file {KiCad 5.0.2-bee76a0~70~ubuntu18.04.1} date Sat 02 Feb 2019 03:46:19 PM PST
;FORMAT={3:3/ absolute / metric / suppress leading zeros}
FMAT,2
METRIC,TZ
T1C0.400
T2C0.600
T3C0.700
T4C0.813
T5C1.000
%
G90
G05
T1
X56976Y-67388
X56976Y-113388
X57400Y-65200
X57400Y-111200
X58000Y-40600
X58000Y-44600
X58000Y-51800
X58000Y-86600
X58000Y-90600
X58000Y-97800
X58500Y-69420
X58500Y-75008
X58500Y-115420
X58500Y-121008
X59200Y-66400
X59200Y-112400
X60532Y-66372
X60532Y-112372
X60800Y-49600
X60800Y-95600
X61040Y-73992
X61040Y-119992
X62200Y-66200
X62200Y-112200
X62400Y-52200
X62400Y-71400
X62400Y-98200
X62400Y-117400
X63400Y-44200
X63400Y-90200
X63580Y-66880
X63580Y-112880
X63800Y-58000
X63800Y-104000
X64400Y-56200
X64400Y-102200
X64596Y-69420
X64596Y-79072
X64596Y-115420
X64596Y-125072
X65104Y-75008
X65104Y-77040
X65104Y-121008
X65104Y-123040
X65400Y-40200
X65400Y-86200
X65612Y-47068
X65612Y-93068
X65800Y-60800
X65800Y-106800
X66000Y-49000
X66000Y-95000
X66120Y-43004
X66120Y-89004
X67000Y-64400
X67000Y-110400
X67800Y-71600
X67800Y-117600
X68660Y-50116
X68660Y-96116
X69168Y-39956
X69168Y-85956
X69400Y-74400
X69400Y-120400
X70000Y-61600
X70000Y-107600
X70184Y-50116
X70184Y-96116
X72000Y-40200
X72000Y-86200
X72216Y-75008
X72216Y-121008
X72400Y-53200
X72400Y-99200
X74248Y-47068
X74248Y-93068
X74756Y-43512
X74756Y-46052
X74756Y-79072
X74756Y-89512
X74756Y-92052
X74756Y-125072
X75000Y-70000
X75000Y-116000
X76200Y-44800
X76200Y-62000
X76200Y-73000
X76200Y-90800
X76200Y-108000
X76200Y-119000
X76400Y-39800
X76400Y-85800
X77400Y-56200
X77400Y-102200
X77600Y-50400
X77600Y-96400
X78400Y-43200
X78400Y-89200
X78800Y-66200
X78800Y-112200
X79000Y-61800
X79000Y-107800
X80000Y-50200
X80000Y-96200
X80800Y-65600
X80800Y-111600
X81400Y-61200
X81400Y-107200
X81600Y-73000
X81600Y-119000
X81800Y-64000
X81800Y-110000
X82000Y-56200
X82000Y-102200
X82400Y-47200
X82400Y-93200
X83600Y-62000
X83600Y-108000
X83800Y-77400
X83800Y-123400
X85400Y-40200
X85400Y-86200
X85800Y-56200
X85800Y-102200
X86200Y-61600
X86200Y-107600
X86600Y-66400
X86600Y-112400
X88800Y-75200
X88800Y-121200
X89000Y-61600
X89000Y-107600
X90000Y-65600
X90000Y-111600
X91400Y-47200
X91400Y-93200
X91600Y-72000
X91600Y-118000
X91800Y-61800
X91800Y-107800
X92600Y-66600
X92600Y-112600
X93000Y-74200
X93000Y-77400
X93000Y-120200
X93000Y-123400
X93400Y-55200
X93400Y-101200
X100976Y-67388
X100976Y-113388
X101400Y-65200
X101400Y-111200
X102000Y-40600
X102000Y-44600
X102000Y-51800
X102000Y-86600
X102000Y-90600
X102000Y-97800
X102500Y-69420
X102500Y-75008
X102500Y-115420
X102500Y-121008
X103200Y-66400
X103200Y-112400
X104532Y-66372
X104532Y-112372
X104800Y-49600
X104800Y-95600
X105040Y-73992
X105040Y-119992
X106200Y-66200
X106200Y-112200
X106400Y-52200
X106400Y-71400
X106400Y-98200
X106400Y-117400
X107400Y-44200
X107400Y-90200
X107580Y-66880
X107580Y-112880
X107800Y-58000
X107800Y-104000
X108400Y-56200
X108400Y-102200
X108596Y-69420
X108596Y-79072
X108596Y-115420
X108596Y-125072
X109104Y-75008
X109104Y-77040
X109104Y-121008
X109104Y-123040
X109400Y-40200
X109400Y-86200
X109612Y-47068
X109612Y-93068
X109800Y-60800
X109800Y-106800
X110000Y-49000
X110000Y-95000
X110120Y-43004
X110120Y-89004
X111000Y-64400
X111000Y-110400
X111800Y-71600
X111800Y-117600
X112660Y-50116
X112660Y-96116
X113168Y-39956
X113168Y-85956
X113400Y-74400
X113400Y-120400
X114000Y-61600
X114000Y-107600
X114184Y-50116
X114184Y-96116
X116000Y-40200
X116000Y-86200
X116216Y-75008
X116216Y-121008
X116400Y-53200
X116400Y-99200
X118248Y-47068
X118248Y-93068
X118756Y-43512
X118756Y-46052
X118756Y-79072
X118756Y-89512
X118756Y-92052
X118756Y-125072
X119000Y-70000
X119000Y-116000
X120200Y-44800
X120200Y-62000
X120200Y-73000
X120200Y-90800
X120200Y-108000
X120200Y-119000
X120400Y-39800
X120400Y-85800
X121400Y-56200
X121400Y-102200
X121600Y-50400
X121600Y-96400
X122400Y-43200
X122400Y-89200
X122800Y-66200
X122800Y-112200
X123000Y-61800
X123000Y-107800
X124000Y-50200
X124000Y-96200
X124800Y-65600
X124800Y-111600
X125400Y-61200
X125400Y-107200
X125600Y-73000
X125600Y-119000
X125800Y-64000
X125800Y-110000
X126000Y-56200
X126000Y-102200
X126400Y-47200
X126400Y-93200
X127600Y-62000
X127600Y-108000
X127800Y-77400
X127800Y-123400
X129400Y-40200
X129400Y-86200
X129800Y-56200
X129800Y-102200
X130200Y-61600
X130200Y-107600
X130600Y-66400
X130600Y-112400
X132800Y-75200
X132800Y-121200
X133000Y-61600
X133000Y-107600
X134000Y-65600
X134000Y-111600
X135400Y-47200
X135400Y-93200
X135600Y-72000
X135600Y-118000
X135800Y-61800
X135800Y-107800
X136600Y-66600
X136600Y-112600
X137000Y-74200
X137000Y-77400
X137000Y-120200
X137000Y-123400
X137400Y-55200
X137400Y-101200
T3
X79590Y-114428
X80090Y-115928
X81590Y-114428
X82590Y-115928
X83590Y-114428
X84590Y-115928
X85590Y-114428
X87090Y-115928
X87590Y-114428
X123590Y-114428
X124090Y-115928
X125590Y-114428
X126590Y-115928
X127590Y-114428
X128590Y-115928
X129590Y-114428
X131090Y-115928
X131590Y-114428
X79590Y-68428
X80090Y-69928
X81590Y-68428
X82590Y-69928
X83590Y-68428
X84590Y-69928
X85590Y-68428
X87090Y-69928
X87590Y-68428
X123590Y-68428
X124090Y-69928
X125590Y-68428
X126590Y-69928
X127590Y-68428
X128590Y-69928
X129590Y-68428
X131090Y-69928
X131590Y-68428
T4
X88345Y-90020
X88345Y-97640
X93425Y-90020
X93425Y-97640
X132345Y-90020
X132345Y-97640
X137425Y-90020
X137425Y-97640
X88345Y-44020
X88345Y-51640
X93425Y-44020
X93425Y-51640
X132345Y-44020
X132345Y-51640
X137425Y-44020
X137425Y-51640
T5
X72470Y-59260
X75010Y-59260
X77550Y-59260
X80090Y-59260
X82630Y-59260
X85170Y-59260
X87710Y-59260
X90250Y-59260
X92790Y-59260
X69930Y-110340
X69930Y-112880
X69930Y-115420
X69930Y-117960
X72470Y-110340
X72470Y-112880
X72470Y-115420
X72470Y-117960
X113930Y-110340
X113930Y-112880
X113930Y-115420
X113930Y-117960
X116470Y-110340
X116470Y-112880
X116470Y-115420
X116470Y-117960
X90885Y-86210
X93425Y-86210
X78820Y-52656
X81360Y-52656
X83900Y-52656
X59516Y-123548
X62056Y-123548
X116470Y-105260
X119010Y-105260
X121550Y-105260
X124090Y-105260
X126630Y-105260
X129170Y-105260
X131710Y-105260
X134250Y-105260
X136790Y-105260
X134885Y-86210
X137425Y-86210
X103008Y-101196
X103008Y-103736
X103008Y-106276
X103008Y-108816
X105548Y-101196
X105548Y-103736
X105548Y-106276
X105548Y-108816
X59516Y-77548
X62056Y-77548
X122820Y-98656
X125360Y-98656
X127900Y-98656
X59008Y-55196
X59008Y-57736
X59008Y-60276
X59008Y-62816
X61548Y-55196
X61548Y-57736
X61548Y-60276
X61548Y-62816
X116470Y-59260
X119010Y-59260
X121550Y-59260
X124090Y-59260
X126630Y-59260
X129170Y-59260
X131710Y-59260
X134250Y-59260
X136790Y-59260
X103008Y-55196
X103008Y-57736
X103008Y-60276
X103008Y-62816
X105548Y-55196
X105548Y-57736
X105548Y-60276
X105548Y-62816
X103516Y-123548
X106056Y-123548
X72470Y-105260
X75010Y-105260
X77550Y-105260
X80090Y-105260
X82630Y-105260
X85170Y-105260
X87710Y-105260
X90250Y-105260
X92790Y-105260
X103516Y-77548
X106056Y-77548
X113930Y-64340
X113930Y-66880
X113930Y-69420
X113930Y-71960
X116470Y-64340
X116470Y-66880
X116470Y-69420
X116470Y-71960
X134885Y-40210
X137425Y-40210
X69930Y-64340
X69930Y-66880
X69930Y-69420
X69930Y-71960
X72470Y-64340
X72470Y-66880
X72470Y-69420
X72470Y-71960
X90885Y-40210
X93425Y-40210
X122820Y-52656
X125360Y-52656
X127900Y-52656
X78820Y-98656
X81360Y-98656
X83900Y-98656
X59008Y-101196
X59008Y-103736
X59008Y-106276
X59008Y-108816
X61548Y-101196
X61548Y-103736
X61548Y-106276
X61548Y-108816
T2
X77190Y-114628G85X77190Y-115728
G05
X77190Y-123278G85X77190Y-124078
G05
X89990Y-114628G85X89990Y-115728
G05
X89990Y-123278G85X89990Y-124078
G05
X121190Y-114628G85X121190Y-115728
G05
X121190Y-123278G85X121190Y-124078
G05
X133990Y-114628G85X133990Y-115728
G05
X133990Y-123278G85X133990Y-124078
G05
X77190Y-68628G85X77190Y-69728
G05
X77190Y-77278G85X77190Y-78078
G05
X89990Y-68628G85X89990Y-69728
G05
X89990Y-77278G85X89990Y-78078
G05
X121190Y-68628G85X121190Y-69728
G05
X121190Y-77278G85X121190Y-78078
G05
X133990Y-68628G85X133990Y-69728
G05
X133990Y-77278G85X133990Y-78078
G05
T0
M30
