G04 #@! TF.GenerationSoftware,KiCad,Pcbnew,5.0.2-bee76a0~70~ubuntu18.04.1*
G04 #@! TF.CreationDate,2019-02-02T15:45:17-08:00*
G04 #@! TF.ProjectId,programing_adapter,70726f67-7261-46d6-996e-675f61646170,rev?*
G04 #@! TF.SameCoordinates,Original*
G04 #@! TF.FileFunction,Legend,Top*
G04 #@! TF.FilePolarity,Positive*
%FSLAX46Y46*%
G04 Gerber Fmt 4.6, Leading zero omitted, Abs format (unit mm)*
G04 Created by KiCad (PCBNEW 5.0.2-bee76a0~70~ubuntu18.04.1) date Sat 02 Feb 2019 03:45:17 PM PST*
%MOMM*%
%LPD*%
G01*
G04 APERTURE LIST*
%ADD10C,0.100000*%
%ADD11C,0.120000*%
%ADD12C,0.150000*%
%ADD13C,0.020000*%
%ADD14C,0.692000*%
%ADD15R,0.912000X3.071000*%
%ADD16R,0.752000X1.162000*%
%ADD17O,1.802000X1.802000*%
%ADD18R,1.802000X1.802000*%
%ADD19O,1.302000X2.202000*%
%ADD20O,1.302000X2.502000*%
%ADD21C,1.302000*%
%ADD22R,1.277000X2.002000*%
%ADD23R,2.477000X2.002000*%
%ADD24R,1.577000X2.202000*%
%ADD25R,0.552000X1.482000*%
%ADD26C,1.499000*%
G04 APERTURE END LIST*
D10*
G04 #@! TO.C,J1*
X110945609Y-94208000D02*
G75*
G03X110945609Y-94208000I-401609J0D01*
G01*
X110374000Y-93576000D02*
X111009000Y-93576000D01*
X110374000Y-88496000D02*
X110374000Y-93576000D01*
X111009000Y-88496000D02*
X110374000Y-88496000D01*
X117994000Y-88496000D02*
X117359000Y-88496000D01*
X117994000Y-93576000D02*
X117994000Y-88496000D01*
X117359000Y-93576000D02*
X117994000Y-93576000D01*
X66945609Y-94208000D02*
G75*
G03X66945609Y-94208000I-401609J0D01*
G01*
X66374000Y-93576000D02*
X67009000Y-93576000D01*
X66374000Y-88496000D02*
X66374000Y-93576000D01*
X67009000Y-88496000D02*
X66374000Y-88496000D01*
X73994000Y-88496000D02*
X73359000Y-88496000D01*
X73994000Y-93576000D02*
X73994000Y-88496000D01*
X73359000Y-93576000D02*
X73994000Y-93576000D01*
X110945609Y-48208000D02*
G75*
G03X110945609Y-48208000I-401609J0D01*
G01*
X110374000Y-47576000D02*
X111009000Y-47576000D01*
X110374000Y-42496000D02*
X110374000Y-47576000D01*
X111009000Y-42496000D02*
X110374000Y-42496000D01*
X117994000Y-42496000D02*
X117359000Y-42496000D01*
X117994000Y-47576000D02*
X117994000Y-42496000D01*
X117359000Y-47576000D02*
X117994000Y-47576000D01*
D11*
G04 #@! TO.C,U1*
X110519624Y-119159202D02*
X110519624Y-117359202D01*
X107299624Y-117359202D02*
X107299624Y-119809202D01*
X66519624Y-119159202D02*
X66519624Y-117359202D01*
X63299624Y-117359202D02*
X63299624Y-119809202D01*
X110519624Y-73159202D02*
X110519624Y-71359202D01*
X107299624Y-71359202D02*
X107299624Y-73809202D01*
G04 #@! TO.C,J6*
X121490000Y-99986000D02*
X121490000Y-98656000D01*
X122820000Y-99986000D02*
X121490000Y-99986000D01*
X124090000Y-99986000D02*
X124090000Y-97326000D01*
X124090000Y-97326000D02*
X129230000Y-97326000D01*
X124090000Y-99986000D02*
X129230000Y-99986000D01*
X129230000Y-99986000D02*
X129230000Y-97326000D01*
X77490000Y-99986000D02*
X77490000Y-98656000D01*
X78820000Y-99986000D02*
X77490000Y-99986000D01*
X80090000Y-99986000D02*
X80090000Y-97326000D01*
X80090000Y-97326000D02*
X85230000Y-97326000D01*
X80090000Y-99986000D02*
X85230000Y-99986000D01*
X85230000Y-99986000D02*
X85230000Y-97326000D01*
X121490000Y-53986000D02*
X121490000Y-52656000D01*
X122820000Y-53986000D02*
X121490000Y-53986000D01*
X124090000Y-53986000D02*
X124090000Y-51326000D01*
X124090000Y-51326000D02*
X129230000Y-51326000D01*
X124090000Y-53986000D02*
X129230000Y-53986000D01*
X129230000Y-53986000D02*
X129230000Y-51326000D01*
G04 #@! TO.C,J2*
X107386000Y-124878000D02*
X107386000Y-122218000D01*
X104786000Y-124878000D02*
X107386000Y-124878000D01*
X104786000Y-122218000D02*
X107386000Y-122218000D01*
X104786000Y-124878000D02*
X104786000Y-122218000D01*
X103516000Y-124878000D02*
X102186000Y-124878000D01*
X102186000Y-124878000D02*
X102186000Y-123548000D01*
X63386000Y-124878000D02*
X63386000Y-122218000D01*
X60786000Y-124878000D02*
X63386000Y-124878000D01*
X60786000Y-122218000D02*
X63386000Y-122218000D01*
X60786000Y-124878000D02*
X60786000Y-122218000D01*
X59516000Y-124878000D02*
X58186000Y-124878000D01*
X58186000Y-124878000D02*
X58186000Y-123548000D01*
X107386000Y-78878000D02*
X107386000Y-76218000D01*
X104786000Y-78878000D02*
X107386000Y-78878000D01*
X104786000Y-76218000D02*
X107386000Y-76218000D01*
X104786000Y-78878000D02*
X104786000Y-76218000D01*
X103516000Y-78878000D02*
X102186000Y-78878000D01*
X102186000Y-78878000D02*
X102186000Y-77548000D01*
G04 #@! TO.C,J8*
X112600000Y-119290000D02*
X117800000Y-119290000D01*
X112600000Y-111610000D02*
X112600000Y-119290000D01*
X117800000Y-109010000D02*
X117800000Y-119290000D01*
X112600000Y-111610000D02*
X115200000Y-111610000D01*
X115200000Y-111610000D02*
X115200000Y-109010000D01*
X115200000Y-109010000D02*
X117800000Y-109010000D01*
X112600000Y-110340000D02*
X112600000Y-109010000D01*
X112600000Y-109010000D02*
X113930000Y-109010000D01*
X68600000Y-119290000D02*
X73800000Y-119290000D01*
X68600000Y-111610000D02*
X68600000Y-119290000D01*
X73800000Y-109010000D02*
X73800000Y-119290000D01*
X68600000Y-111610000D02*
X71200000Y-111610000D01*
X71200000Y-111610000D02*
X71200000Y-109010000D01*
X71200000Y-109010000D02*
X73800000Y-109010000D01*
X68600000Y-110340000D02*
X68600000Y-109010000D01*
X68600000Y-109010000D02*
X69930000Y-109010000D01*
X112600000Y-73290000D02*
X117800000Y-73290000D01*
X112600000Y-65610000D02*
X112600000Y-73290000D01*
X117800000Y-63010000D02*
X117800000Y-73290000D01*
X112600000Y-65610000D02*
X115200000Y-65610000D01*
X115200000Y-65610000D02*
X115200000Y-63010000D01*
X115200000Y-63010000D02*
X117800000Y-63010000D01*
X112600000Y-64340000D02*
X112600000Y-63010000D01*
X112600000Y-63010000D02*
X113930000Y-63010000D01*
G04 #@! TO.C,U2*
X100949624Y-117359202D02*
X100949624Y-119809202D01*
X104169624Y-119159202D02*
X104169624Y-117359202D01*
X56949624Y-117359202D02*
X56949624Y-119809202D01*
X60169624Y-119159202D02*
X60169624Y-117359202D01*
X100949624Y-71359202D02*
X100949624Y-73809202D01*
X104169624Y-73159202D02*
X104169624Y-71359202D01*
G04 #@! TO.C,J5*
X133555000Y-87540000D02*
X133555000Y-86210000D01*
X134885000Y-87540000D02*
X133555000Y-87540000D01*
X136155000Y-87540000D02*
X136155000Y-84880000D01*
X136155000Y-84880000D02*
X138755000Y-84880000D01*
X136155000Y-87540000D02*
X138755000Y-87540000D01*
X138755000Y-87540000D02*
X138755000Y-84880000D01*
X89555000Y-87540000D02*
X89555000Y-86210000D01*
X90885000Y-87540000D02*
X89555000Y-87540000D01*
X92155000Y-87540000D02*
X92155000Y-84880000D01*
X92155000Y-84880000D02*
X94755000Y-84880000D01*
X92155000Y-87540000D02*
X94755000Y-87540000D01*
X94755000Y-87540000D02*
X94755000Y-84880000D01*
X133555000Y-41540000D02*
X133555000Y-40210000D01*
X134885000Y-41540000D02*
X133555000Y-41540000D01*
X136155000Y-41540000D02*
X136155000Y-38880000D01*
X136155000Y-38880000D02*
X138755000Y-38880000D01*
X136155000Y-41540000D02*
X138755000Y-41540000D01*
X138755000Y-41540000D02*
X138755000Y-38880000D01*
G04 #@! TO.C,J9*
X120630000Y-127738000D02*
X134550000Y-127738000D01*
X134550000Y-127738000D02*
X134550000Y-124628000D01*
X120630000Y-127738000D02*
X120630000Y-124628000D01*
X120630000Y-122728000D02*
X120630000Y-116278000D01*
X134550000Y-122728000D02*
X134550000Y-116278000D01*
X120630000Y-113368000D02*
X134550000Y-113368000D01*
X134550000Y-113368000D02*
X134550000Y-114078000D01*
X120630000Y-113368000D02*
X120630000Y-114078000D01*
X76630000Y-127738000D02*
X90550000Y-127738000D01*
X90550000Y-127738000D02*
X90550000Y-124628000D01*
X76630000Y-127738000D02*
X76630000Y-124628000D01*
X76630000Y-122728000D02*
X76630000Y-116278000D01*
X90550000Y-122728000D02*
X90550000Y-116278000D01*
X76630000Y-113368000D02*
X90550000Y-113368000D01*
X90550000Y-113368000D02*
X90550000Y-114078000D01*
X76630000Y-113368000D02*
X76630000Y-114078000D01*
X120630000Y-81738000D02*
X134550000Y-81738000D01*
X134550000Y-81738000D02*
X134550000Y-78628000D01*
X120630000Y-81738000D02*
X120630000Y-78628000D01*
X120630000Y-76728000D02*
X120630000Y-70278000D01*
X134550000Y-76728000D02*
X134550000Y-70278000D01*
X120630000Y-67368000D02*
X134550000Y-67368000D01*
X134550000Y-67368000D02*
X134550000Y-68078000D01*
X120630000Y-67368000D02*
X120630000Y-68078000D01*
G04 #@! TO.C,J4*
X109866000Y-126656000D02*
X109866000Y-126396000D01*
X109866000Y-124116000D02*
X109866000Y-122346000D01*
X109866000Y-122346000D02*
X110246000Y-122346000D01*
X117486000Y-122346000D02*
X117486000Y-124116000D01*
X117486000Y-126396000D02*
X117486000Y-126656000D01*
X117486000Y-122346000D02*
X117106000Y-122346000D01*
X65866000Y-126656000D02*
X65866000Y-126396000D01*
X65866000Y-124116000D02*
X65866000Y-122346000D01*
X65866000Y-122346000D02*
X66246000Y-122346000D01*
X73486000Y-122346000D02*
X73486000Y-124116000D01*
X73486000Y-126396000D02*
X73486000Y-126656000D01*
X73486000Y-122346000D02*
X73106000Y-122346000D01*
X109866000Y-80656000D02*
X109866000Y-80396000D01*
X109866000Y-78116000D02*
X109866000Y-76346000D01*
X109866000Y-76346000D02*
X110246000Y-76346000D01*
X117486000Y-76346000D02*
X117486000Y-78116000D01*
X117486000Y-80396000D02*
X117486000Y-80656000D01*
X117486000Y-76346000D02*
X117106000Y-76346000D01*
G04 #@! TO.C,J3*
X106878000Y-110146000D02*
X105548000Y-110146000D01*
X106878000Y-108816000D02*
X106878000Y-110146000D01*
X104278000Y-110146000D02*
X101678000Y-110146000D01*
X104278000Y-107546000D02*
X104278000Y-110146000D01*
X106878000Y-107546000D02*
X104278000Y-107546000D01*
X101678000Y-110146000D02*
X101678000Y-99866000D01*
X106878000Y-107546000D02*
X106878000Y-99866000D01*
X106878000Y-99866000D02*
X101678000Y-99866000D01*
X62878000Y-110146000D02*
X61548000Y-110146000D01*
X62878000Y-108816000D02*
X62878000Y-110146000D01*
X60278000Y-110146000D02*
X57678000Y-110146000D01*
X60278000Y-107546000D02*
X60278000Y-110146000D01*
X62878000Y-107546000D02*
X60278000Y-107546000D01*
X57678000Y-110146000D02*
X57678000Y-99866000D01*
X62878000Y-107546000D02*
X62878000Y-99866000D01*
X62878000Y-99866000D02*
X57678000Y-99866000D01*
X106878000Y-64146000D02*
X105548000Y-64146000D01*
X106878000Y-62816000D02*
X106878000Y-64146000D01*
X104278000Y-64146000D02*
X101678000Y-64146000D01*
X104278000Y-61546000D02*
X104278000Y-64146000D01*
X106878000Y-61546000D02*
X104278000Y-61546000D01*
X101678000Y-64146000D02*
X101678000Y-53866000D01*
X106878000Y-61546000D02*
X106878000Y-53866000D01*
X106878000Y-53866000D02*
X101678000Y-53866000D01*
G04 #@! TO.C,SW1*
X131075000Y-97640000D02*
X131075000Y-90020000D01*
X131075000Y-90020000D02*
X131375000Y-90020000D01*
X138695000Y-90020000D02*
X138695000Y-97640000D01*
X131075000Y-97640000D02*
X131375000Y-97640000D01*
X133315000Y-90020000D02*
X136455000Y-90020000D01*
X133315000Y-97640000D02*
X136455000Y-97640000D01*
X138395000Y-90020000D02*
X138695000Y-90020000D01*
X138395000Y-97640000D02*
X138695000Y-97640000D01*
X137425000Y-93830000D02*
G75*
G03X137425000Y-93830000I-2540000J0D01*
G01*
X87075000Y-97640000D02*
X87075000Y-90020000D01*
X87075000Y-90020000D02*
X87375000Y-90020000D01*
X94695000Y-90020000D02*
X94695000Y-97640000D01*
X87075000Y-97640000D02*
X87375000Y-97640000D01*
X89315000Y-90020000D02*
X92455000Y-90020000D01*
X89315000Y-97640000D02*
X92455000Y-97640000D01*
X94395000Y-90020000D02*
X94695000Y-90020000D01*
X94395000Y-97640000D02*
X94695000Y-97640000D01*
X93425000Y-93830000D02*
G75*
G03X93425000Y-93830000I-2540000J0D01*
G01*
X131075000Y-51640000D02*
X131075000Y-44020000D01*
X131075000Y-44020000D02*
X131375000Y-44020000D01*
X138695000Y-44020000D02*
X138695000Y-51640000D01*
X131075000Y-51640000D02*
X131375000Y-51640000D01*
X133315000Y-44020000D02*
X136455000Y-44020000D01*
X133315000Y-51640000D02*
X136455000Y-51640000D01*
X138395000Y-44020000D02*
X138695000Y-44020000D01*
X138395000Y-51640000D02*
X138695000Y-51640000D01*
X137425000Y-47830000D02*
G75*
G03X137425000Y-47830000I-2540000J0D01*
G01*
G04 #@! TO.C,J7*
X115140000Y-106590000D02*
X115140000Y-105260000D01*
X116470000Y-106590000D02*
X115140000Y-106590000D01*
X117740000Y-106590000D02*
X117740000Y-103930000D01*
X117740000Y-103930000D02*
X138120000Y-103930000D01*
X117740000Y-106590000D02*
X138120000Y-106590000D01*
X138120000Y-106590000D02*
X138120000Y-103930000D01*
X71140000Y-106590000D02*
X71140000Y-105260000D01*
X72470000Y-106590000D02*
X71140000Y-106590000D01*
X73740000Y-106590000D02*
X73740000Y-103930000D01*
X73740000Y-103930000D02*
X94120000Y-103930000D01*
X73740000Y-106590000D02*
X94120000Y-106590000D01*
X94120000Y-106590000D02*
X94120000Y-103930000D01*
X115140000Y-60590000D02*
X115140000Y-59260000D01*
X116470000Y-60590000D02*
X115140000Y-60590000D01*
X117740000Y-60590000D02*
X117740000Y-57930000D01*
X117740000Y-57930000D02*
X138120000Y-57930000D01*
X117740000Y-60590000D02*
X138120000Y-60590000D01*
X138120000Y-60590000D02*
X138120000Y-57930000D01*
D10*
G04 #@! TO.C,J1*
X73359000Y-47576000D02*
X73994000Y-47576000D01*
X73994000Y-47576000D02*
X73994000Y-42496000D01*
X73994000Y-42496000D02*
X73359000Y-42496000D01*
X67009000Y-42496000D02*
X66374000Y-42496000D01*
X66374000Y-42496000D02*
X66374000Y-47576000D01*
X66374000Y-47576000D02*
X67009000Y-47576000D01*
X66945609Y-48208000D02*
G75*
G03X66945609Y-48208000I-401609J0D01*
G01*
D11*
G04 #@! TO.C,SW1*
X93425000Y-47830000D02*
G75*
G03X93425000Y-47830000I-2540000J0D01*
G01*
X94395000Y-51640000D02*
X94695000Y-51640000D01*
X94395000Y-44020000D02*
X94695000Y-44020000D01*
X89315000Y-51640000D02*
X92455000Y-51640000D01*
X89315000Y-44020000D02*
X92455000Y-44020000D01*
X87075000Y-51640000D02*
X87375000Y-51640000D01*
X94695000Y-44020000D02*
X94695000Y-51640000D01*
X87075000Y-44020000D02*
X87375000Y-44020000D01*
X87075000Y-51640000D02*
X87075000Y-44020000D01*
G04 #@! TO.C,J2*
X58186000Y-78878000D02*
X58186000Y-77548000D01*
X59516000Y-78878000D02*
X58186000Y-78878000D01*
X60786000Y-78878000D02*
X60786000Y-76218000D01*
X60786000Y-76218000D02*
X63386000Y-76218000D01*
X60786000Y-78878000D02*
X63386000Y-78878000D01*
X63386000Y-78878000D02*
X63386000Y-76218000D01*
G04 #@! TO.C,J3*
X62878000Y-53866000D02*
X57678000Y-53866000D01*
X62878000Y-61546000D02*
X62878000Y-53866000D01*
X57678000Y-64146000D02*
X57678000Y-53866000D01*
X62878000Y-61546000D02*
X60278000Y-61546000D01*
X60278000Y-61546000D02*
X60278000Y-64146000D01*
X60278000Y-64146000D02*
X57678000Y-64146000D01*
X62878000Y-62816000D02*
X62878000Y-64146000D01*
X62878000Y-64146000D02*
X61548000Y-64146000D01*
G04 #@! TO.C,J4*
X73486000Y-76346000D02*
X73106000Y-76346000D01*
X73486000Y-80396000D02*
X73486000Y-80656000D01*
X73486000Y-76346000D02*
X73486000Y-78116000D01*
X65866000Y-76346000D02*
X66246000Y-76346000D01*
X65866000Y-78116000D02*
X65866000Y-76346000D01*
X65866000Y-80656000D02*
X65866000Y-80396000D01*
G04 #@! TO.C,J5*
X94755000Y-41540000D02*
X94755000Y-38880000D01*
X92155000Y-41540000D02*
X94755000Y-41540000D01*
X92155000Y-38880000D02*
X94755000Y-38880000D01*
X92155000Y-41540000D02*
X92155000Y-38880000D01*
X90885000Y-41540000D02*
X89555000Y-41540000D01*
X89555000Y-41540000D02*
X89555000Y-40210000D01*
G04 #@! TO.C,J6*
X85230000Y-53986000D02*
X85230000Y-51326000D01*
X80090000Y-53986000D02*
X85230000Y-53986000D01*
X80090000Y-51326000D02*
X85230000Y-51326000D01*
X80090000Y-53986000D02*
X80090000Y-51326000D01*
X78820000Y-53986000D02*
X77490000Y-53986000D01*
X77490000Y-53986000D02*
X77490000Y-52656000D01*
G04 #@! TO.C,J7*
X94120000Y-60590000D02*
X94120000Y-57930000D01*
X73740000Y-60590000D02*
X94120000Y-60590000D01*
X73740000Y-57930000D02*
X94120000Y-57930000D01*
X73740000Y-60590000D02*
X73740000Y-57930000D01*
X72470000Y-60590000D02*
X71140000Y-60590000D01*
X71140000Y-60590000D02*
X71140000Y-59260000D01*
G04 #@! TO.C,J8*
X68600000Y-63010000D02*
X69930000Y-63010000D01*
X68600000Y-64340000D02*
X68600000Y-63010000D01*
X71200000Y-63010000D02*
X73800000Y-63010000D01*
X71200000Y-65610000D02*
X71200000Y-63010000D01*
X68600000Y-65610000D02*
X71200000Y-65610000D01*
X73800000Y-63010000D02*
X73800000Y-73290000D01*
X68600000Y-65610000D02*
X68600000Y-73290000D01*
X68600000Y-73290000D02*
X73800000Y-73290000D01*
G04 #@! TO.C,J9*
X76630000Y-67368000D02*
X76630000Y-68078000D01*
X90550000Y-67368000D02*
X90550000Y-68078000D01*
X76630000Y-67368000D02*
X90550000Y-67368000D01*
X90550000Y-76728000D02*
X90550000Y-70278000D01*
X76630000Y-76728000D02*
X76630000Y-70278000D01*
X76630000Y-81738000D02*
X76630000Y-78628000D01*
X90550000Y-81738000D02*
X90550000Y-78628000D01*
X76630000Y-81738000D02*
X90550000Y-81738000D01*
G04 #@! TO.C,U1*
X63299624Y-71359202D02*
X63299624Y-73809202D01*
X66519624Y-73159202D02*
X66519624Y-71359202D01*
G04 #@! TO.C,U2*
X60169624Y-73159202D02*
X60169624Y-71359202D01*
X56949624Y-71359202D02*
X56949624Y-73809202D01*
G04 #@! TO.C,R1*
D12*
X129876380Y-86630666D02*
X129400190Y-86964000D01*
X129876380Y-87202095D02*
X128876380Y-87202095D01*
X128876380Y-86821142D01*
X128924000Y-86725904D01*
X128971619Y-86678285D01*
X129066857Y-86630666D01*
X129209714Y-86630666D01*
X129304952Y-86678285D01*
X129352571Y-86725904D01*
X129400190Y-86821142D01*
X129400190Y-87202095D01*
X129876380Y-85678285D02*
X129876380Y-86249714D01*
X129876380Y-85964000D02*
X128876380Y-85964000D01*
X129019238Y-86059238D01*
X129114476Y-86154476D01*
X129162095Y-86249714D01*
X85876380Y-86630666D02*
X85400190Y-86964000D01*
X85876380Y-87202095D02*
X84876380Y-87202095D01*
X84876380Y-86821142D01*
X84924000Y-86725904D01*
X84971619Y-86678285D01*
X85066857Y-86630666D01*
X85209714Y-86630666D01*
X85304952Y-86678285D01*
X85352571Y-86725904D01*
X85400190Y-86821142D01*
X85400190Y-87202095D01*
X85876380Y-85678285D02*
X85876380Y-86249714D01*
X85876380Y-85964000D02*
X84876380Y-85964000D01*
X85019238Y-86059238D01*
X85114476Y-86154476D01*
X85162095Y-86249714D01*
X129876380Y-40630666D02*
X129400190Y-40964000D01*
X129876380Y-41202095D02*
X128876380Y-41202095D01*
X128876380Y-40821142D01*
X128924000Y-40725904D01*
X128971619Y-40678285D01*
X129066857Y-40630666D01*
X129209714Y-40630666D01*
X129304952Y-40678285D01*
X129352571Y-40725904D01*
X129400190Y-40821142D01*
X129400190Y-41202095D01*
X129876380Y-39678285D02*
X129876380Y-40249714D01*
X129876380Y-39964000D02*
X128876380Y-39964000D01*
X129019238Y-40059238D01*
X129114476Y-40154476D01*
X129162095Y-40249714D01*
G04 #@! TO.C,J1*
X114485666Y-94933380D02*
X114485666Y-95647666D01*
X114438047Y-95790523D01*
X114342809Y-95885761D01*
X114199952Y-95933380D01*
X114104714Y-95933380D01*
X115485666Y-95933380D02*
X114914238Y-95933380D01*
X115199952Y-95933380D02*
X115199952Y-94933380D01*
X115104714Y-95076238D01*
X115009476Y-95171476D01*
X114914238Y-95219095D01*
X70485666Y-94933380D02*
X70485666Y-95647666D01*
X70438047Y-95790523D01*
X70342809Y-95885761D01*
X70199952Y-95933380D01*
X70104714Y-95933380D01*
X71485666Y-95933380D02*
X70914238Y-95933380D01*
X71199952Y-95933380D02*
X71199952Y-94933380D01*
X71104714Y-95076238D01*
X71009476Y-95171476D01*
X70914238Y-95219095D01*
X114485666Y-48933380D02*
X114485666Y-49647666D01*
X114438047Y-49790523D01*
X114342809Y-49885761D01*
X114199952Y-49933380D01*
X114104714Y-49933380D01*
X115485666Y-49933380D02*
X114914238Y-49933380D01*
X115199952Y-49933380D02*
X115199952Y-48933380D01*
X115104714Y-49076238D01*
X115009476Y-49171476D01*
X114914238Y-49219095D01*
G04 #@! TO.C,U1*
X107326095Y-120460380D02*
X107326095Y-121269904D01*
X107373714Y-121365142D01*
X107421333Y-121412761D01*
X107516571Y-121460380D01*
X107707047Y-121460380D01*
X107802285Y-121412761D01*
X107849904Y-121365142D01*
X107897523Y-121269904D01*
X107897523Y-120460380D01*
X108897523Y-121460380D02*
X108326095Y-121460380D01*
X108611809Y-121460380D02*
X108611809Y-120460380D01*
X108516571Y-120603238D01*
X108421333Y-120698476D01*
X108326095Y-120746095D01*
X63326095Y-120460380D02*
X63326095Y-121269904D01*
X63373714Y-121365142D01*
X63421333Y-121412761D01*
X63516571Y-121460380D01*
X63707047Y-121460380D01*
X63802285Y-121412761D01*
X63849904Y-121365142D01*
X63897523Y-121269904D01*
X63897523Y-120460380D01*
X64897523Y-121460380D02*
X64326095Y-121460380D01*
X64611809Y-121460380D02*
X64611809Y-120460380D01*
X64516571Y-120603238D01*
X64421333Y-120698476D01*
X64326095Y-120746095D01*
X107326095Y-74460380D02*
X107326095Y-75269904D01*
X107373714Y-75365142D01*
X107421333Y-75412761D01*
X107516571Y-75460380D01*
X107707047Y-75460380D01*
X107802285Y-75412761D01*
X107849904Y-75365142D01*
X107897523Y-75269904D01*
X107897523Y-74460380D01*
X108897523Y-75460380D02*
X108326095Y-75460380D01*
X108611809Y-75460380D02*
X108611809Y-74460380D01*
X108516571Y-74603238D01*
X108421333Y-74698476D01*
X108326095Y-74746095D01*
G04 #@! TO.C,C4*
X101122957Y-113636344D02*
X101075338Y-113683963D01*
X100932481Y-113731582D01*
X100837243Y-113731582D01*
X100694385Y-113683963D01*
X100599147Y-113588725D01*
X100551528Y-113493487D01*
X100503909Y-113303011D01*
X100503909Y-113160154D01*
X100551528Y-112969678D01*
X100599147Y-112874440D01*
X100694385Y-112779202D01*
X100837243Y-112731582D01*
X100932481Y-112731582D01*
X101075338Y-112779202D01*
X101122957Y-112826821D01*
X101980100Y-113064916D02*
X101980100Y-113731582D01*
X101742004Y-112683963D02*
X101503909Y-113398249D01*
X102122957Y-113398249D01*
X57122957Y-113636344D02*
X57075338Y-113683963D01*
X56932481Y-113731582D01*
X56837243Y-113731582D01*
X56694385Y-113683963D01*
X56599147Y-113588725D01*
X56551528Y-113493487D01*
X56503909Y-113303011D01*
X56503909Y-113160154D01*
X56551528Y-112969678D01*
X56599147Y-112874440D01*
X56694385Y-112779202D01*
X56837243Y-112731582D01*
X56932481Y-112731582D01*
X57075338Y-112779202D01*
X57122957Y-112826821D01*
X57980100Y-113064916D02*
X57980100Y-113731582D01*
X57742004Y-112683963D02*
X57503909Y-113398249D01*
X58122957Y-113398249D01*
X101122957Y-67636344D02*
X101075338Y-67683963D01*
X100932481Y-67731582D01*
X100837243Y-67731582D01*
X100694385Y-67683963D01*
X100599147Y-67588725D01*
X100551528Y-67493487D01*
X100503909Y-67303011D01*
X100503909Y-67160154D01*
X100551528Y-66969678D01*
X100599147Y-66874440D01*
X100694385Y-66779202D01*
X100837243Y-66731582D01*
X100932481Y-66731582D01*
X101075338Y-66779202D01*
X101122957Y-66826821D01*
X101980100Y-67064916D02*
X101980100Y-67731582D01*
X101742004Y-66683963D02*
X101503909Y-67398249D01*
X102122957Y-67398249D01*
G04 #@! TO.C,J6*
X125026666Y-95441380D02*
X125026666Y-96155666D01*
X124979047Y-96298523D01*
X124883809Y-96393761D01*
X124740952Y-96441380D01*
X124645714Y-96441380D01*
X125931428Y-95441380D02*
X125740952Y-95441380D01*
X125645714Y-95489000D01*
X125598095Y-95536619D01*
X125502857Y-95679476D01*
X125455238Y-95869952D01*
X125455238Y-96250904D01*
X125502857Y-96346142D01*
X125550476Y-96393761D01*
X125645714Y-96441380D01*
X125836190Y-96441380D01*
X125931428Y-96393761D01*
X125979047Y-96346142D01*
X126026666Y-96250904D01*
X126026666Y-96012809D01*
X125979047Y-95917571D01*
X125931428Y-95869952D01*
X125836190Y-95822333D01*
X125645714Y-95822333D01*
X125550476Y-95869952D01*
X125502857Y-95917571D01*
X125455238Y-96012809D01*
X81026666Y-95441380D02*
X81026666Y-96155666D01*
X80979047Y-96298523D01*
X80883809Y-96393761D01*
X80740952Y-96441380D01*
X80645714Y-96441380D01*
X81931428Y-95441380D02*
X81740952Y-95441380D01*
X81645714Y-95489000D01*
X81598095Y-95536619D01*
X81502857Y-95679476D01*
X81455238Y-95869952D01*
X81455238Y-96250904D01*
X81502857Y-96346142D01*
X81550476Y-96393761D01*
X81645714Y-96441380D01*
X81836190Y-96441380D01*
X81931428Y-96393761D01*
X81979047Y-96346142D01*
X82026666Y-96250904D01*
X82026666Y-96012809D01*
X81979047Y-95917571D01*
X81931428Y-95869952D01*
X81836190Y-95822333D01*
X81645714Y-95822333D01*
X81550476Y-95869952D01*
X81502857Y-95917571D01*
X81455238Y-96012809D01*
X125026666Y-49441380D02*
X125026666Y-50155666D01*
X124979047Y-50298523D01*
X124883809Y-50393761D01*
X124740952Y-50441380D01*
X124645714Y-50441380D01*
X125931428Y-49441380D02*
X125740952Y-49441380D01*
X125645714Y-49489000D01*
X125598095Y-49536619D01*
X125502857Y-49679476D01*
X125455238Y-49869952D01*
X125455238Y-50250904D01*
X125502857Y-50346142D01*
X125550476Y-50393761D01*
X125645714Y-50441380D01*
X125836190Y-50441380D01*
X125931428Y-50393761D01*
X125979047Y-50346142D01*
X126026666Y-50250904D01*
X126026666Y-50012809D01*
X125979047Y-49917571D01*
X125931428Y-49869952D01*
X125836190Y-49822333D01*
X125645714Y-49822333D01*
X125550476Y-49869952D01*
X125502857Y-49917571D01*
X125455238Y-50012809D01*
G04 #@! TO.C,J2*
X105266666Y-120852380D02*
X105266666Y-121566666D01*
X105219047Y-121709523D01*
X105123809Y-121804761D01*
X104980952Y-121852380D01*
X104885714Y-121852380D01*
X105695238Y-120947619D02*
X105742857Y-120900000D01*
X105838095Y-120852380D01*
X106076190Y-120852380D01*
X106171428Y-120900000D01*
X106219047Y-120947619D01*
X106266666Y-121042857D01*
X106266666Y-121138095D01*
X106219047Y-121280952D01*
X105647619Y-121852380D01*
X106266666Y-121852380D01*
X61266666Y-120852380D02*
X61266666Y-121566666D01*
X61219047Y-121709523D01*
X61123809Y-121804761D01*
X60980952Y-121852380D01*
X60885714Y-121852380D01*
X61695238Y-120947619D02*
X61742857Y-120900000D01*
X61838095Y-120852380D01*
X62076190Y-120852380D01*
X62171428Y-120900000D01*
X62219047Y-120947619D01*
X62266666Y-121042857D01*
X62266666Y-121138095D01*
X62219047Y-121280952D01*
X61647619Y-121852380D01*
X62266666Y-121852380D01*
X105266666Y-74852380D02*
X105266666Y-75566666D01*
X105219047Y-75709523D01*
X105123809Y-75804761D01*
X104980952Y-75852380D01*
X104885714Y-75852380D01*
X105695238Y-74947619D02*
X105742857Y-74900000D01*
X105838095Y-74852380D01*
X106076190Y-74852380D01*
X106171428Y-74900000D01*
X106219047Y-74947619D01*
X106266666Y-75042857D01*
X106266666Y-75138095D01*
X106219047Y-75280952D01*
X105647619Y-75852380D01*
X106266666Y-75852380D01*
G04 #@! TO.C,J8*
X110588380Y-110165333D02*
X111302666Y-110165333D01*
X111445523Y-110212952D01*
X111540761Y-110308190D01*
X111588380Y-110451047D01*
X111588380Y-110546285D01*
X111016952Y-109546285D02*
X110969333Y-109641523D01*
X110921714Y-109689142D01*
X110826476Y-109736761D01*
X110778857Y-109736761D01*
X110683619Y-109689142D01*
X110636000Y-109641523D01*
X110588380Y-109546285D01*
X110588380Y-109355809D01*
X110636000Y-109260571D01*
X110683619Y-109212952D01*
X110778857Y-109165333D01*
X110826476Y-109165333D01*
X110921714Y-109212952D01*
X110969333Y-109260571D01*
X111016952Y-109355809D01*
X111016952Y-109546285D01*
X111064571Y-109641523D01*
X111112190Y-109689142D01*
X111207428Y-109736761D01*
X111397904Y-109736761D01*
X111493142Y-109689142D01*
X111540761Y-109641523D01*
X111588380Y-109546285D01*
X111588380Y-109355809D01*
X111540761Y-109260571D01*
X111493142Y-109212952D01*
X111397904Y-109165333D01*
X111207428Y-109165333D01*
X111112190Y-109212952D01*
X111064571Y-109260571D01*
X111016952Y-109355809D01*
X66588380Y-110165333D02*
X67302666Y-110165333D01*
X67445523Y-110212952D01*
X67540761Y-110308190D01*
X67588380Y-110451047D01*
X67588380Y-110546285D01*
X67016952Y-109546285D02*
X66969333Y-109641523D01*
X66921714Y-109689142D01*
X66826476Y-109736761D01*
X66778857Y-109736761D01*
X66683619Y-109689142D01*
X66636000Y-109641523D01*
X66588380Y-109546285D01*
X66588380Y-109355809D01*
X66636000Y-109260571D01*
X66683619Y-109212952D01*
X66778857Y-109165333D01*
X66826476Y-109165333D01*
X66921714Y-109212952D01*
X66969333Y-109260571D01*
X67016952Y-109355809D01*
X67016952Y-109546285D01*
X67064571Y-109641523D01*
X67112190Y-109689142D01*
X67207428Y-109736761D01*
X67397904Y-109736761D01*
X67493142Y-109689142D01*
X67540761Y-109641523D01*
X67588380Y-109546285D01*
X67588380Y-109355809D01*
X67540761Y-109260571D01*
X67493142Y-109212952D01*
X67397904Y-109165333D01*
X67207428Y-109165333D01*
X67112190Y-109212952D01*
X67064571Y-109260571D01*
X67016952Y-109355809D01*
X110588380Y-64165333D02*
X111302666Y-64165333D01*
X111445523Y-64212952D01*
X111540761Y-64308190D01*
X111588380Y-64451047D01*
X111588380Y-64546285D01*
X111016952Y-63546285D02*
X110969333Y-63641523D01*
X110921714Y-63689142D01*
X110826476Y-63736761D01*
X110778857Y-63736761D01*
X110683619Y-63689142D01*
X110636000Y-63641523D01*
X110588380Y-63546285D01*
X110588380Y-63355809D01*
X110636000Y-63260571D01*
X110683619Y-63212952D01*
X110778857Y-63165333D01*
X110826476Y-63165333D01*
X110921714Y-63212952D01*
X110969333Y-63260571D01*
X111016952Y-63355809D01*
X111016952Y-63546285D01*
X111064571Y-63641523D01*
X111112190Y-63689142D01*
X111207428Y-63736761D01*
X111397904Y-63736761D01*
X111493142Y-63689142D01*
X111540761Y-63641523D01*
X111588380Y-63546285D01*
X111588380Y-63355809D01*
X111540761Y-63260571D01*
X111493142Y-63212952D01*
X111397904Y-63165333D01*
X111207428Y-63165333D01*
X111112190Y-63212952D01*
X111064571Y-63260571D01*
X111016952Y-63355809D01*
G04 #@! TO.C,U2*
X101738095Y-120460380D02*
X101738095Y-121269904D01*
X101785714Y-121365142D01*
X101833333Y-121412761D01*
X101928571Y-121460380D01*
X102119047Y-121460380D01*
X102214285Y-121412761D01*
X102261904Y-121365142D01*
X102309523Y-121269904D01*
X102309523Y-120460380D01*
X102738095Y-120555619D02*
X102785714Y-120508000D01*
X102880952Y-120460380D01*
X103119047Y-120460380D01*
X103214285Y-120508000D01*
X103261904Y-120555619D01*
X103309523Y-120650857D01*
X103309523Y-120746095D01*
X103261904Y-120888952D01*
X102690476Y-121460380D01*
X103309523Y-121460380D01*
X57738095Y-120460380D02*
X57738095Y-121269904D01*
X57785714Y-121365142D01*
X57833333Y-121412761D01*
X57928571Y-121460380D01*
X58119047Y-121460380D01*
X58214285Y-121412761D01*
X58261904Y-121365142D01*
X58309523Y-121269904D01*
X58309523Y-120460380D01*
X58738095Y-120555619D02*
X58785714Y-120508000D01*
X58880952Y-120460380D01*
X59119047Y-120460380D01*
X59214285Y-120508000D01*
X59261904Y-120555619D01*
X59309523Y-120650857D01*
X59309523Y-120746095D01*
X59261904Y-120888952D01*
X58690476Y-121460380D01*
X59309523Y-121460380D01*
X101738095Y-74460380D02*
X101738095Y-75269904D01*
X101785714Y-75365142D01*
X101833333Y-75412761D01*
X101928571Y-75460380D01*
X102119047Y-75460380D01*
X102214285Y-75412761D01*
X102261904Y-75365142D01*
X102309523Y-75269904D01*
X102309523Y-74460380D01*
X102738095Y-74555619D02*
X102785714Y-74508000D01*
X102880952Y-74460380D01*
X103119047Y-74460380D01*
X103214285Y-74508000D01*
X103261904Y-74555619D01*
X103309523Y-74650857D01*
X103309523Y-74746095D01*
X103261904Y-74888952D01*
X102690476Y-75460380D01*
X103309523Y-75460380D01*
G04 #@! TO.C,J5*
X131630666Y-84900380D02*
X131630666Y-85614666D01*
X131583047Y-85757523D01*
X131487809Y-85852761D01*
X131344952Y-85900380D01*
X131249714Y-85900380D01*
X132583047Y-84900380D02*
X132106857Y-84900380D01*
X132059238Y-85376571D01*
X132106857Y-85328952D01*
X132202095Y-85281333D01*
X132440190Y-85281333D01*
X132535428Y-85328952D01*
X132583047Y-85376571D01*
X132630666Y-85471809D01*
X132630666Y-85709904D01*
X132583047Y-85805142D01*
X132535428Y-85852761D01*
X132440190Y-85900380D01*
X132202095Y-85900380D01*
X132106857Y-85852761D01*
X132059238Y-85805142D01*
X87630666Y-84900380D02*
X87630666Y-85614666D01*
X87583047Y-85757523D01*
X87487809Y-85852761D01*
X87344952Y-85900380D01*
X87249714Y-85900380D01*
X88583047Y-84900380D02*
X88106857Y-84900380D01*
X88059238Y-85376571D01*
X88106857Y-85328952D01*
X88202095Y-85281333D01*
X88440190Y-85281333D01*
X88535428Y-85328952D01*
X88583047Y-85376571D01*
X88630666Y-85471809D01*
X88630666Y-85709904D01*
X88583047Y-85805142D01*
X88535428Y-85852761D01*
X88440190Y-85900380D01*
X88202095Y-85900380D01*
X88106857Y-85852761D01*
X88059238Y-85805142D01*
X131630666Y-38900380D02*
X131630666Y-39614666D01*
X131583047Y-39757523D01*
X131487809Y-39852761D01*
X131344952Y-39900380D01*
X131249714Y-39900380D01*
X132583047Y-38900380D02*
X132106857Y-38900380D01*
X132059238Y-39376571D01*
X132106857Y-39328952D01*
X132202095Y-39281333D01*
X132440190Y-39281333D01*
X132535428Y-39328952D01*
X132583047Y-39376571D01*
X132630666Y-39471809D01*
X132630666Y-39709904D01*
X132583047Y-39805142D01*
X132535428Y-39852761D01*
X132440190Y-39900380D01*
X132202095Y-39900380D01*
X132106857Y-39852761D01*
X132059238Y-39805142D01*
G04 #@! TO.C,J9*
X127256666Y-111780380D02*
X127256666Y-112494666D01*
X127209047Y-112637523D01*
X127113809Y-112732761D01*
X126970952Y-112780380D01*
X126875714Y-112780380D01*
X127780476Y-112780380D02*
X127970952Y-112780380D01*
X128066190Y-112732761D01*
X128113809Y-112685142D01*
X128209047Y-112542285D01*
X128256666Y-112351809D01*
X128256666Y-111970857D01*
X128209047Y-111875619D01*
X128161428Y-111828000D01*
X128066190Y-111780380D01*
X127875714Y-111780380D01*
X127780476Y-111828000D01*
X127732857Y-111875619D01*
X127685238Y-111970857D01*
X127685238Y-112208952D01*
X127732857Y-112304190D01*
X127780476Y-112351809D01*
X127875714Y-112399428D01*
X128066190Y-112399428D01*
X128161428Y-112351809D01*
X128209047Y-112304190D01*
X128256666Y-112208952D01*
X83256666Y-111780380D02*
X83256666Y-112494666D01*
X83209047Y-112637523D01*
X83113809Y-112732761D01*
X82970952Y-112780380D01*
X82875714Y-112780380D01*
X83780476Y-112780380D02*
X83970952Y-112780380D01*
X84066190Y-112732761D01*
X84113809Y-112685142D01*
X84209047Y-112542285D01*
X84256666Y-112351809D01*
X84256666Y-111970857D01*
X84209047Y-111875619D01*
X84161428Y-111828000D01*
X84066190Y-111780380D01*
X83875714Y-111780380D01*
X83780476Y-111828000D01*
X83732857Y-111875619D01*
X83685238Y-111970857D01*
X83685238Y-112208952D01*
X83732857Y-112304190D01*
X83780476Y-112351809D01*
X83875714Y-112399428D01*
X84066190Y-112399428D01*
X84161428Y-112351809D01*
X84209047Y-112304190D01*
X84256666Y-112208952D01*
X127256666Y-65780380D02*
X127256666Y-66494666D01*
X127209047Y-66637523D01*
X127113809Y-66732761D01*
X126970952Y-66780380D01*
X126875714Y-66780380D01*
X127780476Y-66780380D02*
X127970952Y-66780380D01*
X128066190Y-66732761D01*
X128113809Y-66685142D01*
X128209047Y-66542285D01*
X128256666Y-66351809D01*
X128256666Y-65970857D01*
X128209047Y-65875619D01*
X128161428Y-65828000D01*
X128066190Y-65780380D01*
X127875714Y-65780380D01*
X127780476Y-65828000D01*
X127732857Y-65875619D01*
X127685238Y-65970857D01*
X127685238Y-66208952D01*
X127732857Y-66304190D01*
X127780476Y-66351809D01*
X127875714Y-66399428D01*
X128066190Y-66399428D01*
X128161428Y-66351809D01*
X128209047Y-66304190D01*
X128256666Y-66208952D01*
G04 #@! TO.C,J4*
X118466666Y-122452380D02*
X118466666Y-123166666D01*
X118419047Y-123309523D01*
X118323809Y-123404761D01*
X118180952Y-123452380D01*
X118085714Y-123452380D01*
X119371428Y-122785714D02*
X119371428Y-123452380D01*
X119133333Y-122404761D02*
X118895238Y-123119047D01*
X119514285Y-123119047D01*
X74466666Y-122452380D02*
X74466666Y-123166666D01*
X74419047Y-123309523D01*
X74323809Y-123404761D01*
X74180952Y-123452380D01*
X74085714Y-123452380D01*
X75371428Y-122785714D02*
X75371428Y-123452380D01*
X75133333Y-122404761D02*
X74895238Y-123119047D01*
X75514285Y-123119047D01*
X118466666Y-76452380D02*
X118466666Y-77166666D01*
X118419047Y-77309523D01*
X118323809Y-77404761D01*
X118180952Y-77452380D01*
X118085714Y-77452380D01*
X119371428Y-76785714D02*
X119371428Y-77452380D01*
X119133333Y-76404761D02*
X118895238Y-77119047D01*
X119514285Y-77119047D01*
G04 #@! TO.C,J3*
X103944666Y-110598380D02*
X103944666Y-111312666D01*
X103897047Y-111455523D01*
X103801809Y-111550761D01*
X103658952Y-111598380D01*
X103563714Y-111598380D01*
X104325619Y-110598380D02*
X104944666Y-110598380D01*
X104611333Y-110979333D01*
X104754190Y-110979333D01*
X104849428Y-111026952D01*
X104897047Y-111074571D01*
X104944666Y-111169809D01*
X104944666Y-111407904D01*
X104897047Y-111503142D01*
X104849428Y-111550761D01*
X104754190Y-111598380D01*
X104468476Y-111598380D01*
X104373238Y-111550761D01*
X104325619Y-111503142D01*
X59944666Y-110598380D02*
X59944666Y-111312666D01*
X59897047Y-111455523D01*
X59801809Y-111550761D01*
X59658952Y-111598380D01*
X59563714Y-111598380D01*
X60325619Y-110598380D02*
X60944666Y-110598380D01*
X60611333Y-110979333D01*
X60754190Y-110979333D01*
X60849428Y-111026952D01*
X60897047Y-111074571D01*
X60944666Y-111169809D01*
X60944666Y-111407904D01*
X60897047Y-111503142D01*
X60849428Y-111550761D01*
X60754190Y-111598380D01*
X60468476Y-111598380D01*
X60373238Y-111550761D01*
X60325619Y-111503142D01*
X103944666Y-64598380D02*
X103944666Y-65312666D01*
X103897047Y-65455523D01*
X103801809Y-65550761D01*
X103658952Y-65598380D01*
X103563714Y-65598380D01*
X104325619Y-64598380D02*
X104944666Y-64598380D01*
X104611333Y-64979333D01*
X104754190Y-64979333D01*
X104849428Y-65026952D01*
X104897047Y-65074571D01*
X104944666Y-65169809D01*
X104944666Y-65407904D01*
X104897047Y-65503142D01*
X104849428Y-65550761D01*
X104754190Y-65598380D01*
X104468476Y-65598380D01*
X104373238Y-65550761D01*
X104325619Y-65503142D01*
G04 #@! TO.C,SW1*
X133678666Y-99949761D02*
X133821523Y-99997380D01*
X134059619Y-99997380D01*
X134154857Y-99949761D01*
X134202476Y-99902142D01*
X134250095Y-99806904D01*
X134250095Y-99711666D01*
X134202476Y-99616428D01*
X134154857Y-99568809D01*
X134059619Y-99521190D01*
X133869142Y-99473571D01*
X133773904Y-99425952D01*
X133726285Y-99378333D01*
X133678666Y-99283095D01*
X133678666Y-99187857D01*
X133726285Y-99092619D01*
X133773904Y-99045000D01*
X133869142Y-98997380D01*
X134107238Y-98997380D01*
X134250095Y-99045000D01*
X134583428Y-98997380D02*
X134821523Y-99997380D01*
X135012000Y-99283095D01*
X135202476Y-99997380D01*
X135440571Y-98997380D01*
X136345333Y-99997380D02*
X135773904Y-99997380D01*
X136059619Y-99997380D02*
X136059619Y-98997380D01*
X135964380Y-99140238D01*
X135869142Y-99235476D01*
X135773904Y-99283095D01*
X130209761Y-96060000D02*
X130257380Y-95917142D01*
X130257380Y-95679047D01*
X130209761Y-95583809D01*
X130162142Y-95536190D01*
X130066904Y-95488571D01*
X129971666Y-95488571D01*
X129876428Y-95536190D01*
X129828809Y-95583809D01*
X129781190Y-95679047D01*
X129733571Y-95869523D01*
X129685952Y-95964761D01*
X129638333Y-96012380D01*
X129543095Y-96060000D01*
X129447857Y-96060000D01*
X129352619Y-96012380D01*
X129305000Y-95964761D01*
X129257380Y-95869523D01*
X129257380Y-95631428D01*
X129305000Y-95488571D01*
X129257380Y-95155238D02*
X130257380Y-94917142D01*
X129543095Y-94726666D01*
X130257380Y-94536190D01*
X129257380Y-94298095D01*
X130352619Y-94155238D02*
X130352619Y-93393333D01*
X130257380Y-92583809D02*
X129781190Y-92917142D01*
X130257380Y-93155238D02*
X129257380Y-93155238D01*
X129257380Y-92774285D01*
X129305000Y-92679047D01*
X129352619Y-92631428D01*
X129447857Y-92583809D01*
X129590714Y-92583809D01*
X129685952Y-92631428D01*
X129733571Y-92679047D01*
X129781190Y-92774285D01*
X129781190Y-93155238D01*
X129733571Y-92155238D02*
X129733571Y-91821904D01*
X130257380Y-91679047D02*
X130257380Y-92155238D01*
X129257380Y-92155238D01*
X129257380Y-91679047D01*
X130209761Y-91298095D02*
X130257380Y-91155238D01*
X130257380Y-90917142D01*
X130209761Y-90821904D01*
X130162142Y-90774285D01*
X130066904Y-90726666D01*
X129971666Y-90726666D01*
X129876428Y-90774285D01*
X129828809Y-90821904D01*
X129781190Y-90917142D01*
X129733571Y-91107619D01*
X129685952Y-91202857D01*
X129638333Y-91250476D01*
X129543095Y-91298095D01*
X129447857Y-91298095D01*
X129352619Y-91250476D01*
X129305000Y-91202857D01*
X129257380Y-91107619D01*
X129257380Y-90869523D01*
X129305000Y-90726666D01*
X129733571Y-90298095D02*
X129733571Y-89964761D01*
X130257380Y-89821904D02*
X130257380Y-90298095D01*
X129257380Y-90298095D01*
X129257380Y-89821904D01*
X129257380Y-89536190D02*
X129257380Y-88964761D01*
X130257380Y-89250476D02*
X129257380Y-89250476D01*
X89678666Y-99949761D02*
X89821523Y-99997380D01*
X90059619Y-99997380D01*
X90154857Y-99949761D01*
X90202476Y-99902142D01*
X90250095Y-99806904D01*
X90250095Y-99711666D01*
X90202476Y-99616428D01*
X90154857Y-99568809D01*
X90059619Y-99521190D01*
X89869142Y-99473571D01*
X89773904Y-99425952D01*
X89726285Y-99378333D01*
X89678666Y-99283095D01*
X89678666Y-99187857D01*
X89726285Y-99092619D01*
X89773904Y-99045000D01*
X89869142Y-98997380D01*
X90107238Y-98997380D01*
X90250095Y-99045000D01*
X90583428Y-98997380D02*
X90821523Y-99997380D01*
X91012000Y-99283095D01*
X91202476Y-99997380D01*
X91440571Y-98997380D01*
X92345333Y-99997380D02*
X91773904Y-99997380D01*
X92059619Y-99997380D02*
X92059619Y-98997380D01*
X91964380Y-99140238D01*
X91869142Y-99235476D01*
X91773904Y-99283095D01*
X86209761Y-96060000D02*
X86257380Y-95917142D01*
X86257380Y-95679047D01*
X86209761Y-95583809D01*
X86162142Y-95536190D01*
X86066904Y-95488571D01*
X85971666Y-95488571D01*
X85876428Y-95536190D01*
X85828809Y-95583809D01*
X85781190Y-95679047D01*
X85733571Y-95869523D01*
X85685952Y-95964761D01*
X85638333Y-96012380D01*
X85543095Y-96060000D01*
X85447857Y-96060000D01*
X85352619Y-96012380D01*
X85305000Y-95964761D01*
X85257380Y-95869523D01*
X85257380Y-95631428D01*
X85305000Y-95488571D01*
X85257380Y-95155238D02*
X86257380Y-94917142D01*
X85543095Y-94726666D01*
X86257380Y-94536190D01*
X85257380Y-94298095D01*
X86352619Y-94155238D02*
X86352619Y-93393333D01*
X86257380Y-92583809D02*
X85781190Y-92917142D01*
X86257380Y-93155238D02*
X85257380Y-93155238D01*
X85257380Y-92774285D01*
X85305000Y-92679047D01*
X85352619Y-92631428D01*
X85447857Y-92583809D01*
X85590714Y-92583809D01*
X85685952Y-92631428D01*
X85733571Y-92679047D01*
X85781190Y-92774285D01*
X85781190Y-93155238D01*
X85733571Y-92155238D02*
X85733571Y-91821904D01*
X86257380Y-91679047D02*
X86257380Y-92155238D01*
X85257380Y-92155238D01*
X85257380Y-91679047D01*
X86209761Y-91298095D02*
X86257380Y-91155238D01*
X86257380Y-90917142D01*
X86209761Y-90821904D01*
X86162142Y-90774285D01*
X86066904Y-90726666D01*
X85971666Y-90726666D01*
X85876428Y-90774285D01*
X85828809Y-90821904D01*
X85781190Y-90917142D01*
X85733571Y-91107619D01*
X85685952Y-91202857D01*
X85638333Y-91250476D01*
X85543095Y-91298095D01*
X85447857Y-91298095D01*
X85352619Y-91250476D01*
X85305000Y-91202857D01*
X85257380Y-91107619D01*
X85257380Y-90869523D01*
X85305000Y-90726666D01*
X85733571Y-90298095D02*
X85733571Y-89964761D01*
X86257380Y-89821904D02*
X86257380Y-90298095D01*
X85257380Y-90298095D01*
X85257380Y-89821904D01*
X85257380Y-89536190D02*
X85257380Y-88964761D01*
X86257380Y-89250476D02*
X85257380Y-89250476D01*
X133678666Y-53949761D02*
X133821523Y-53997380D01*
X134059619Y-53997380D01*
X134154857Y-53949761D01*
X134202476Y-53902142D01*
X134250095Y-53806904D01*
X134250095Y-53711666D01*
X134202476Y-53616428D01*
X134154857Y-53568809D01*
X134059619Y-53521190D01*
X133869142Y-53473571D01*
X133773904Y-53425952D01*
X133726285Y-53378333D01*
X133678666Y-53283095D01*
X133678666Y-53187857D01*
X133726285Y-53092619D01*
X133773904Y-53045000D01*
X133869142Y-52997380D01*
X134107238Y-52997380D01*
X134250095Y-53045000D01*
X134583428Y-52997380D02*
X134821523Y-53997380D01*
X135012000Y-53283095D01*
X135202476Y-53997380D01*
X135440571Y-52997380D01*
X136345333Y-53997380D02*
X135773904Y-53997380D01*
X136059619Y-53997380D02*
X136059619Y-52997380D01*
X135964380Y-53140238D01*
X135869142Y-53235476D01*
X135773904Y-53283095D01*
X130209761Y-50060000D02*
X130257380Y-49917142D01*
X130257380Y-49679047D01*
X130209761Y-49583809D01*
X130162142Y-49536190D01*
X130066904Y-49488571D01*
X129971666Y-49488571D01*
X129876428Y-49536190D01*
X129828809Y-49583809D01*
X129781190Y-49679047D01*
X129733571Y-49869523D01*
X129685952Y-49964761D01*
X129638333Y-50012380D01*
X129543095Y-50060000D01*
X129447857Y-50060000D01*
X129352619Y-50012380D01*
X129305000Y-49964761D01*
X129257380Y-49869523D01*
X129257380Y-49631428D01*
X129305000Y-49488571D01*
X129257380Y-49155238D02*
X130257380Y-48917142D01*
X129543095Y-48726666D01*
X130257380Y-48536190D01*
X129257380Y-48298095D01*
X130352619Y-48155238D02*
X130352619Y-47393333D01*
X130257380Y-46583809D02*
X129781190Y-46917142D01*
X130257380Y-47155238D02*
X129257380Y-47155238D01*
X129257380Y-46774285D01*
X129305000Y-46679047D01*
X129352619Y-46631428D01*
X129447857Y-46583809D01*
X129590714Y-46583809D01*
X129685952Y-46631428D01*
X129733571Y-46679047D01*
X129781190Y-46774285D01*
X129781190Y-47155238D01*
X129733571Y-46155238D02*
X129733571Y-45821904D01*
X130257380Y-45679047D02*
X130257380Y-46155238D01*
X129257380Y-46155238D01*
X129257380Y-45679047D01*
X130209761Y-45298095D02*
X130257380Y-45155238D01*
X130257380Y-44917142D01*
X130209761Y-44821904D01*
X130162142Y-44774285D01*
X130066904Y-44726666D01*
X129971666Y-44726666D01*
X129876428Y-44774285D01*
X129828809Y-44821904D01*
X129781190Y-44917142D01*
X129733571Y-45107619D01*
X129685952Y-45202857D01*
X129638333Y-45250476D01*
X129543095Y-45298095D01*
X129447857Y-45298095D01*
X129352619Y-45250476D01*
X129305000Y-45202857D01*
X129257380Y-45107619D01*
X129257380Y-44869523D01*
X129305000Y-44726666D01*
X129733571Y-44298095D02*
X129733571Y-43964761D01*
X130257380Y-43821904D02*
X130257380Y-44298095D01*
X129257380Y-44298095D01*
X129257380Y-43821904D01*
X129257380Y-43536190D02*
X129257380Y-42964761D01*
X130257380Y-43250476D02*
X129257380Y-43250476D01*
G04 #@! TO.C,C1*
X110012957Y-113536344D02*
X109965338Y-113583963D01*
X109822481Y-113631582D01*
X109727243Y-113631582D01*
X109584385Y-113583963D01*
X109489147Y-113488725D01*
X109441528Y-113393487D01*
X109393909Y-113203011D01*
X109393909Y-113060154D01*
X109441528Y-112869678D01*
X109489147Y-112774440D01*
X109584385Y-112679202D01*
X109727243Y-112631582D01*
X109822481Y-112631582D01*
X109965338Y-112679202D01*
X110012957Y-112726821D01*
X110965338Y-113631582D02*
X110393909Y-113631582D01*
X110679624Y-113631582D02*
X110679624Y-112631582D01*
X110584385Y-112774440D01*
X110489147Y-112869678D01*
X110393909Y-112917297D01*
X66012957Y-113536344D02*
X65965338Y-113583963D01*
X65822481Y-113631582D01*
X65727243Y-113631582D01*
X65584385Y-113583963D01*
X65489147Y-113488725D01*
X65441528Y-113393487D01*
X65393909Y-113203011D01*
X65393909Y-113060154D01*
X65441528Y-112869678D01*
X65489147Y-112774440D01*
X65584385Y-112679202D01*
X65727243Y-112631582D01*
X65822481Y-112631582D01*
X65965338Y-112679202D01*
X66012957Y-112726821D01*
X66965338Y-113631582D02*
X66393909Y-113631582D01*
X66679624Y-113631582D02*
X66679624Y-112631582D01*
X66584385Y-112774440D01*
X66489147Y-112869678D01*
X66393909Y-112917297D01*
X110012957Y-67536344D02*
X109965338Y-67583963D01*
X109822481Y-67631582D01*
X109727243Y-67631582D01*
X109584385Y-67583963D01*
X109489147Y-67488725D01*
X109441528Y-67393487D01*
X109393909Y-67203011D01*
X109393909Y-67060154D01*
X109441528Y-66869678D01*
X109489147Y-66774440D01*
X109584385Y-66679202D01*
X109727243Y-66631582D01*
X109822481Y-66631582D01*
X109965338Y-66679202D01*
X110012957Y-66726821D01*
X110965338Y-67631582D02*
X110393909Y-67631582D01*
X110679624Y-67631582D02*
X110679624Y-66631582D01*
X110584385Y-66774440D01*
X110489147Y-66869678D01*
X110393909Y-66917297D01*
G04 #@! TO.C,C2*
X107472957Y-113636344D02*
X107425338Y-113683963D01*
X107282481Y-113731582D01*
X107187243Y-113731582D01*
X107044385Y-113683963D01*
X106949147Y-113588725D01*
X106901528Y-113493487D01*
X106853909Y-113303011D01*
X106853909Y-113160154D01*
X106901528Y-112969678D01*
X106949147Y-112874440D01*
X107044385Y-112779202D01*
X107187243Y-112731582D01*
X107282481Y-112731582D01*
X107425338Y-112779202D01*
X107472957Y-112826821D01*
X107853909Y-112826821D02*
X107901528Y-112779202D01*
X107996766Y-112731582D01*
X108234862Y-112731582D01*
X108330100Y-112779202D01*
X108377719Y-112826821D01*
X108425338Y-112922059D01*
X108425338Y-113017297D01*
X108377719Y-113160154D01*
X107806290Y-113731582D01*
X108425338Y-113731582D01*
X63472957Y-113636344D02*
X63425338Y-113683963D01*
X63282481Y-113731582D01*
X63187243Y-113731582D01*
X63044385Y-113683963D01*
X62949147Y-113588725D01*
X62901528Y-113493487D01*
X62853909Y-113303011D01*
X62853909Y-113160154D01*
X62901528Y-112969678D01*
X62949147Y-112874440D01*
X63044385Y-112779202D01*
X63187243Y-112731582D01*
X63282481Y-112731582D01*
X63425338Y-112779202D01*
X63472957Y-112826821D01*
X63853909Y-112826821D02*
X63901528Y-112779202D01*
X63996766Y-112731582D01*
X64234862Y-112731582D01*
X64330100Y-112779202D01*
X64377719Y-112826821D01*
X64425338Y-112922059D01*
X64425338Y-113017297D01*
X64377719Y-113160154D01*
X63806290Y-113731582D01*
X64425338Y-113731582D01*
X107472957Y-67636344D02*
X107425338Y-67683963D01*
X107282481Y-67731582D01*
X107187243Y-67731582D01*
X107044385Y-67683963D01*
X106949147Y-67588725D01*
X106901528Y-67493487D01*
X106853909Y-67303011D01*
X106853909Y-67160154D01*
X106901528Y-66969678D01*
X106949147Y-66874440D01*
X107044385Y-66779202D01*
X107187243Y-66731582D01*
X107282481Y-66731582D01*
X107425338Y-66779202D01*
X107472957Y-66826821D01*
X107853909Y-66826821D02*
X107901528Y-66779202D01*
X107996766Y-66731582D01*
X108234862Y-66731582D01*
X108330100Y-66779202D01*
X108377719Y-66826821D01*
X108425338Y-66922059D01*
X108425338Y-67017297D01*
X108377719Y-67160154D01*
X107806290Y-67731582D01*
X108425338Y-67731582D01*
G04 #@! TO.C,C3*
X103662957Y-113536344D02*
X103615338Y-113583963D01*
X103472481Y-113631582D01*
X103377243Y-113631582D01*
X103234385Y-113583963D01*
X103139147Y-113488725D01*
X103091528Y-113393487D01*
X103043909Y-113203011D01*
X103043909Y-113060154D01*
X103091528Y-112869678D01*
X103139147Y-112774440D01*
X103234385Y-112679202D01*
X103377243Y-112631582D01*
X103472481Y-112631582D01*
X103615338Y-112679202D01*
X103662957Y-112726821D01*
X103996290Y-112631582D02*
X104615338Y-112631582D01*
X104282004Y-113012535D01*
X104424862Y-113012535D01*
X104520100Y-113060154D01*
X104567719Y-113107773D01*
X104615338Y-113203011D01*
X104615338Y-113441106D01*
X104567719Y-113536344D01*
X104520100Y-113583963D01*
X104424862Y-113631582D01*
X104139147Y-113631582D01*
X104043909Y-113583963D01*
X103996290Y-113536344D01*
X59662957Y-113536344D02*
X59615338Y-113583963D01*
X59472481Y-113631582D01*
X59377243Y-113631582D01*
X59234385Y-113583963D01*
X59139147Y-113488725D01*
X59091528Y-113393487D01*
X59043909Y-113203011D01*
X59043909Y-113060154D01*
X59091528Y-112869678D01*
X59139147Y-112774440D01*
X59234385Y-112679202D01*
X59377243Y-112631582D01*
X59472481Y-112631582D01*
X59615338Y-112679202D01*
X59662957Y-112726821D01*
X59996290Y-112631582D02*
X60615338Y-112631582D01*
X60282004Y-113012535D01*
X60424862Y-113012535D01*
X60520100Y-113060154D01*
X60567719Y-113107773D01*
X60615338Y-113203011D01*
X60615338Y-113441106D01*
X60567719Y-113536344D01*
X60520100Y-113583963D01*
X60424862Y-113631582D01*
X60139147Y-113631582D01*
X60043909Y-113583963D01*
X59996290Y-113536344D01*
X103662957Y-67536344D02*
X103615338Y-67583963D01*
X103472481Y-67631582D01*
X103377243Y-67631582D01*
X103234385Y-67583963D01*
X103139147Y-67488725D01*
X103091528Y-67393487D01*
X103043909Y-67203011D01*
X103043909Y-67060154D01*
X103091528Y-66869678D01*
X103139147Y-66774440D01*
X103234385Y-66679202D01*
X103377243Y-66631582D01*
X103472481Y-66631582D01*
X103615338Y-66679202D01*
X103662957Y-66726821D01*
X103996290Y-66631582D02*
X104615338Y-66631582D01*
X104282004Y-67012535D01*
X104424862Y-67012535D01*
X104520100Y-67060154D01*
X104567719Y-67107773D01*
X104615338Y-67203011D01*
X104615338Y-67441106D01*
X104567719Y-67536344D01*
X104520100Y-67583963D01*
X104424862Y-67631582D01*
X104139147Y-67631582D01*
X104043909Y-67583963D01*
X103996290Y-67536344D01*
G04 #@! TO.C,J7*
X126042666Y-102172380D02*
X126042666Y-102886666D01*
X125995047Y-103029523D01*
X125899809Y-103124761D01*
X125756952Y-103172380D01*
X125661714Y-103172380D01*
X126423619Y-102172380D02*
X127090285Y-102172380D01*
X126661714Y-103172380D01*
X82042666Y-102172380D02*
X82042666Y-102886666D01*
X81995047Y-103029523D01*
X81899809Y-103124761D01*
X81756952Y-103172380D01*
X81661714Y-103172380D01*
X82423619Y-102172380D02*
X83090285Y-102172380D01*
X82661714Y-103172380D01*
X126042666Y-56172380D02*
X126042666Y-56886666D01*
X125995047Y-57029523D01*
X125899809Y-57124761D01*
X125756952Y-57172380D01*
X125661714Y-57172380D01*
X126423619Y-56172380D02*
X127090285Y-56172380D01*
X126661714Y-57172380D01*
G04 #@! TO.C,J1*
X70485666Y-48933380D02*
X70485666Y-49647666D01*
X70438047Y-49790523D01*
X70342809Y-49885761D01*
X70199952Y-49933380D01*
X70104714Y-49933380D01*
X71485666Y-49933380D02*
X70914238Y-49933380D01*
X71199952Y-49933380D02*
X71199952Y-48933380D01*
X71104714Y-49076238D01*
X71009476Y-49171476D01*
X70914238Y-49219095D01*
G04 #@! TO.C,SW1*
X89678666Y-53949761D02*
X89821523Y-53997380D01*
X90059619Y-53997380D01*
X90154857Y-53949761D01*
X90202476Y-53902142D01*
X90250095Y-53806904D01*
X90250095Y-53711666D01*
X90202476Y-53616428D01*
X90154857Y-53568809D01*
X90059619Y-53521190D01*
X89869142Y-53473571D01*
X89773904Y-53425952D01*
X89726285Y-53378333D01*
X89678666Y-53283095D01*
X89678666Y-53187857D01*
X89726285Y-53092619D01*
X89773904Y-53045000D01*
X89869142Y-52997380D01*
X90107238Y-52997380D01*
X90250095Y-53045000D01*
X90583428Y-52997380D02*
X90821523Y-53997380D01*
X91012000Y-53283095D01*
X91202476Y-53997380D01*
X91440571Y-52997380D01*
X92345333Y-53997380D02*
X91773904Y-53997380D01*
X92059619Y-53997380D02*
X92059619Y-52997380D01*
X91964380Y-53140238D01*
X91869142Y-53235476D01*
X91773904Y-53283095D01*
X86209761Y-50060000D02*
X86257380Y-49917142D01*
X86257380Y-49679047D01*
X86209761Y-49583809D01*
X86162142Y-49536190D01*
X86066904Y-49488571D01*
X85971666Y-49488571D01*
X85876428Y-49536190D01*
X85828809Y-49583809D01*
X85781190Y-49679047D01*
X85733571Y-49869523D01*
X85685952Y-49964761D01*
X85638333Y-50012380D01*
X85543095Y-50060000D01*
X85447857Y-50060000D01*
X85352619Y-50012380D01*
X85305000Y-49964761D01*
X85257380Y-49869523D01*
X85257380Y-49631428D01*
X85305000Y-49488571D01*
X85257380Y-49155238D02*
X86257380Y-48917142D01*
X85543095Y-48726666D01*
X86257380Y-48536190D01*
X85257380Y-48298095D01*
X86352619Y-48155238D02*
X86352619Y-47393333D01*
X86257380Y-46583809D02*
X85781190Y-46917142D01*
X86257380Y-47155238D02*
X85257380Y-47155238D01*
X85257380Y-46774285D01*
X85305000Y-46679047D01*
X85352619Y-46631428D01*
X85447857Y-46583809D01*
X85590714Y-46583809D01*
X85685952Y-46631428D01*
X85733571Y-46679047D01*
X85781190Y-46774285D01*
X85781190Y-47155238D01*
X85733571Y-46155238D02*
X85733571Y-45821904D01*
X86257380Y-45679047D02*
X86257380Y-46155238D01*
X85257380Y-46155238D01*
X85257380Y-45679047D01*
X86209761Y-45298095D02*
X86257380Y-45155238D01*
X86257380Y-44917142D01*
X86209761Y-44821904D01*
X86162142Y-44774285D01*
X86066904Y-44726666D01*
X85971666Y-44726666D01*
X85876428Y-44774285D01*
X85828809Y-44821904D01*
X85781190Y-44917142D01*
X85733571Y-45107619D01*
X85685952Y-45202857D01*
X85638333Y-45250476D01*
X85543095Y-45298095D01*
X85447857Y-45298095D01*
X85352619Y-45250476D01*
X85305000Y-45202857D01*
X85257380Y-45107619D01*
X85257380Y-44869523D01*
X85305000Y-44726666D01*
X85733571Y-44298095D02*
X85733571Y-43964761D01*
X86257380Y-43821904D02*
X86257380Y-44298095D01*
X85257380Y-44298095D01*
X85257380Y-43821904D01*
X85257380Y-43536190D02*
X85257380Y-42964761D01*
X86257380Y-43250476D02*
X85257380Y-43250476D01*
G04 #@! TO.C,C1*
X66012957Y-67536344D02*
X65965338Y-67583963D01*
X65822481Y-67631582D01*
X65727243Y-67631582D01*
X65584385Y-67583963D01*
X65489147Y-67488725D01*
X65441528Y-67393487D01*
X65393909Y-67203011D01*
X65393909Y-67060154D01*
X65441528Y-66869678D01*
X65489147Y-66774440D01*
X65584385Y-66679202D01*
X65727243Y-66631582D01*
X65822481Y-66631582D01*
X65965338Y-66679202D01*
X66012957Y-66726821D01*
X66965338Y-67631582D02*
X66393909Y-67631582D01*
X66679624Y-67631582D02*
X66679624Y-66631582D01*
X66584385Y-66774440D01*
X66489147Y-66869678D01*
X66393909Y-66917297D01*
G04 #@! TO.C,C2*
X63472957Y-67636344D02*
X63425338Y-67683963D01*
X63282481Y-67731582D01*
X63187243Y-67731582D01*
X63044385Y-67683963D01*
X62949147Y-67588725D01*
X62901528Y-67493487D01*
X62853909Y-67303011D01*
X62853909Y-67160154D01*
X62901528Y-66969678D01*
X62949147Y-66874440D01*
X63044385Y-66779202D01*
X63187243Y-66731582D01*
X63282481Y-66731582D01*
X63425338Y-66779202D01*
X63472957Y-66826821D01*
X63853909Y-66826821D02*
X63901528Y-66779202D01*
X63996766Y-66731582D01*
X64234862Y-66731582D01*
X64330100Y-66779202D01*
X64377719Y-66826821D01*
X64425338Y-66922059D01*
X64425338Y-67017297D01*
X64377719Y-67160154D01*
X63806290Y-67731582D01*
X64425338Y-67731582D01*
G04 #@! TO.C,C3*
X59662957Y-67536344D02*
X59615338Y-67583963D01*
X59472481Y-67631582D01*
X59377243Y-67631582D01*
X59234385Y-67583963D01*
X59139147Y-67488725D01*
X59091528Y-67393487D01*
X59043909Y-67203011D01*
X59043909Y-67060154D01*
X59091528Y-66869678D01*
X59139147Y-66774440D01*
X59234385Y-66679202D01*
X59377243Y-66631582D01*
X59472481Y-66631582D01*
X59615338Y-66679202D01*
X59662957Y-66726821D01*
X59996290Y-66631582D02*
X60615338Y-66631582D01*
X60282004Y-67012535D01*
X60424862Y-67012535D01*
X60520100Y-67060154D01*
X60567719Y-67107773D01*
X60615338Y-67203011D01*
X60615338Y-67441106D01*
X60567719Y-67536344D01*
X60520100Y-67583963D01*
X60424862Y-67631582D01*
X60139147Y-67631582D01*
X60043909Y-67583963D01*
X59996290Y-67536344D01*
G04 #@! TO.C,C4*
X57122957Y-67636344D02*
X57075338Y-67683963D01*
X56932481Y-67731582D01*
X56837243Y-67731582D01*
X56694385Y-67683963D01*
X56599147Y-67588725D01*
X56551528Y-67493487D01*
X56503909Y-67303011D01*
X56503909Y-67160154D01*
X56551528Y-66969678D01*
X56599147Y-66874440D01*
X56694385Y-66779202D01*
X56837243Y-66731582D01*
X56932481Y-66731582D01*
X57075338Y-66779202D01*
X57122957Y-66826821D01*
X57980100Y-67064916D02*
X57980100Y-67731582D01*
X57742004Y-66683963D02*
X57503909Y-67398249D01*
X58122957Y-67398249D01*
G04 #@! TO.C,J2*
X61266666Y-74852380D02*
X61266666Y-75566666D01*
X61219047Y-75709523D01*
X61123809Y-75804761D01*
X60980952Y-75852380D01*
X60885714Y-75852380D01*
X61695238Y-74947619D02*
X61742857Y-74900000D01*
X61838095Y-74852380D01*
X62076190Y-74852380D01*
X62171428Y-74900000D01*
X62219047Y-74947619D01*
X62266666Y-75042857D01*
X62266666Y-75138095D01*
X62219047Y-75280952D01*
X61647619Y-75852380D01*
X62266666Y-75852380D01*
G04 #@! TO.C,J3*
X59944666Y-64598380D02*
X59944666Y-65312666D01*
X59897047Y-65455523D01*
X59801809Y-65550761D01*
X59658952Y-65598380D01*
X59563714Y-65598380D01*
X60325619Y-64598380D02*
X60944666Y-64598380D01*
X60611333Y-64979333D01*
X60754190Y-64979333D01*
X60849428Y-65026952D01*
X60897047Y-65074571D01*
X60944666Y-65169809D01*
X60944666Y-65407904D01*
X60897047Y-65503142D01*
X60849428Y-65550761D01*
X60754190Y-65598380D01*
X60468476Y-65598380D01*
X60373238Y-65550761D01*
X60325619Y-65503142D01*
G04 #@! TO.C,J4*
X74466666Y-76452380D02*
X74466666Y-77166666D01*
X74419047Y-77309523D01*
X74323809Y-77404761D01*
X74180952Y-77452380D01*
X74085714Y-77452380D01*
X75371428Y-76785714D02*
X75371428Y-77452380D01*
X75133333Y-76404761D02*
X74895238Y-77119047D01*
X75514285Y-77119047D01*
G04 #@! TO.C,J5*
X87630666Y-38900380D02*
X87630666Y-39614666D01*
X87583047Y-39757523D01*
X87487809Y-39852761D01*
X87344952Y-39900380D01*
X87249714Y-39900380D01*
X88583047Y-38900380D02*
X88106857Y-38900380D01*
X88059238Y-39376571D01*
X88106857Y-39328952D01*
X88202095Y-39281333D01*
X88440190Y-39281333D01*
X88535428Y-39328952D01*
X88583047Y-39376571D01*
X88630666Y-39471809D01*
X88630666Y-39709904D01*
X88583047Y-39805142D01*
X88535428Y-39852761D01*
X88440190Y-39900380D01*
X88202095Y-39900380D01*
X88106857Y-39852761D01*
X88059238Y-39805142D01*
G04 #@! TO.C,J6*
X81026666Y-49441380D02*
X81026666Y-50155666D01*
X80979047Y-50298523D01*
X80883809Y-50393761D01*
X80740952Y-50441380D01*
X80645714Y-50441380D01*
X81931428Y-49441380D02*
X81740952Y-49441380D01*
X81645714Y-49489000D01*
X81598095Y-49536619D01*
X81502857Y-49679476D01*
X81455238Y-49869952D01*
X81455238Y-50250904D01*
X81502857Y-50346142D01*
X81550476Y-50393761D01*
X81645714Y-50441380D01*
X81836190Y-50441380D01*
X81931428Y-50393761D01*
X81979047Y-50346142D01*
X82026666Y-50250904D01*
X82026666Y-50012809D01*
X81979047Y-49917571D01*
X81931428Y-49869952D01*
X81836190Y-49822333D01*
X81645714Y-49822333D01*
X81550476Y-49869952D01*
X81502857Y-49917571D01*
X81455238Y-50012809D01*
G04 #@! TO.C,J7*
X82042666Y-56172380D02*
X82042666Y-56886666D01*
X81995047Y-57029523D01*
X81899809Y-57124761D01*
X81756952Y-57172380D01*
X81661714Y-57172380D01*
X82423619Y-56172380D02*
X83090285Y-56172380D01*
X82661714Y-57172380D01*
G04 #@! TO.C,J8*
X66588380Y-64165333D02*
X67302666Y-64165333D01*
X67445523Y-64212952D01*
X67540761Y-64308190D01*
X67588380Y-64451047D01*
X67588380Y-64546285D01*
X67016952Y-63546285D02*
X66969333Y-63641523D01*
X66921714Y-63689142D01*
X66826476Y-63736761D01*
X66778857Y-63736761D01*
X66683619Y-63689142D01*
X66636000Y-63641523D01*
X66588380Y-63546285D01*
X66588380Y-63355809D01*
X66636000Y-63260571D01*
X66683619Y-63212952D01*
X66778857Y-63165333D01*
X66826476Y-63165333D01*
X66921714Y-63212952D01*
X66969333Y-63260571D01*
X67016952Y-63355809D01*
X67016952Y-63546285D01*
X67064571Y-63641523D01*
X67112190Y-63689142D01*
X67207428Y-63736761D01*
X67397904Y-63736761D01*
X67493142Y-63689142D01*
X67540761Y-63641523D01*
X67588380Y-63546285D01*
X67588380Y-63355809D01*
X67540761Y-63260571D01*
X67493142Y-63212952D01*
X67397904Y-63165333D01*
X67207428Y-63165333D01*
X67112190Y-63212952D01*
X67064571Y-63260571D01*
X67016952Y-63355809D01*
G04 #@! TO.C,J9*
X83256666Y-65780380D02*
X83256666Y-66494666D01*
X83209047Y-66637523D01*
X83113809Y-66732761D01*
X82970952Y-66780380D01*
X82875714Y-66780380D01*
X83780476Y-66780380D02*
X83970952Y-66780380D01*
X84066190Y-66732761D01*
X84113809Y-66685142D01*
X84209047Y-66542285D01*
X84256666Y-66351809D01*
X84256666Y-65970857D01*
X84209047Y-65875619D01*
X84161428Y-65828000D01*
X84066190Y-65780380D01*
X83875714Y-65780380D01*
X83780476Y-65828000D01*
X83732857Y-65875619D01*
X83685238Y-65970857D01*
X83685238Y-66208952D01*
X83732857Y-66304190D01*
X83780476Y-66351809D01*
X83875714Y-66399428D01*
X84066190Y-66399428D01*
X84161428Y-66351809D01*
X84209047Y-66304190D01*
X84256666Y-66208952D01*
G04 #@! TO.C,R1*
X85876380Y-40630666D02*
X85400190Y-40964000D01*
X85876380Y-41202095D02*
X84876380Y-41202095D01*
X84876380Y-40821142D01*
X84924000Y-40725904D01*
X84971619Y-40678285D01*
X85066857Y-40630666D01*
X85209714Y-40630666D01*
X85304952Y-40678285D01*
X85352571Y-40725904D01*
X85400190Y-40821142D01*
X85400190Y-41202095D01*
X85876380Y-39678285D02*
X85876380Y-40249714D01*
X85876380Y-39964000D02*
X84876380Y-39964000D01*
X85019238Y-40059238D01*
X85114476Y-40154476D01*
X85162095Y-40249714D01*
G04 #@! TO.C,U1*
X63326095Y-74460380D02*
X63326095Y-75269904D01*
X63373714Y-75365142D01*
X63421333Y-75412761D01*
X63516571Y-75460380D01*
X63707047Y-75460380D01*
X63802285Y-75412761D01*
X63849904Y-75365142D01*
X63897523Y-75269904D01*
X63897523Y-74460380D01*
X64897523Y-75460380D02*
X64326095Y-75460380D01*
X64611809Y-75460380D02*
X64611809Y-74460380D01*
X64516571Y-74603238D01*
X64421333Y-74698476D01*
X64326095Y-74746095D01*
G04 #@! TO.C,U2*
X57738095Y-74460380D02*
X57738095Y-75269904D01*
X57785714Y-75365142D01*
X57833333Y-75412761D01*
X57928571Y-75460380D01*
X58119047Y-75460380D01*
X58214285Y-75412761D01*
X58261904Y-75365142D01*
X58309523Y-75269904D01*
X58309523Y-74460380D01*
X58738095Y-74555619D02*
X58785714Y-74508000D01*
X58880952Y-74460380D01*
X59119047Y-74460380D01*
X59214285Y-74508000D01*
X59261904Y-74555619D01*
X59309523Y-74650857D01*
X59309523Y-74746095D01*
X59261904Y-74888952D01*
X58690476Y-75460380D01*
X59309523Y-75460380D01*
G04 #@! TD*
%LPC*%
D13*
G04 #@! TO.C,R1*
G36*
X131289957Y-86649833D02*
X131306751Y-86652324D01*
X131323219Y-86656449D01*
X131339204Y-86662169D01*
X131354552Y-86669428D01*
X131369114Y-86678156D01*
X131382750Y-86688269D01*
X131395329Y-86699671D01*
X131406731Y-86712250D01*
X131416844Y-86725886D01*
X131425572Y-86740448D01*
X131432831Y-86755796D01*
X131438551Y-86771781D01*
X131442676Y-86788249D01*
X131445167Y-86805043D01*
X131446000Y-86822000D01*
X131446000Y-87168000D01*
X131445167Y-87184957D01*
X131442676Y-87201751D01*
X131438551Y-87218219D01*
X131432831Y-87234204D01*
X131425572Y-87249552D01*
X131416844Y-87264114D01*
X131406731Y-87277750D01*
X131395329Y-87290329D01*
X131382750Y-87301731D01*
X131369114Y-87311844D01*
X131354552Y-87320572D01*
X131339204Y-87327831D01*
X131323219Y-87333551D01*
X131306751Y-87337676D01*
X131289957Y-87340167D01*
X131273000Y-87341000D01*
X130877000Y-87341000D01*
X130860043Y-87340167D01*
X130843249Y-87337676D01*
X130826781Y-87333551D01*
X130810796Y-87327831D01*
X130795448Y-87320572D01*
X130780886Y-87311844D01*
X130767250Y-87301731D01*
X130754671Y-87290329D01*
X130743269Y-87277750D01*
X130733156Y-87264114D01*
X130724428Y-87249552D01*
X130717169Y-87234204D01*
X130711449Y-87218219D01*
X130707324Y-87201751D01*
X130704833Y-87184957D01*
X130704000Y-87168000D01*
X130704000Y-86822000D01*
X130704833Y-86805043D01*
X130707324Y-86788249D01*
X130711449Y-86771781D01*
X130717169Y-86755796D01*
X130724428Y-86740448D01*
X130733156Y-86725886D01*
X130743269Y-86712250D01*
X130754671Y-86699671D01*
X130767250Y-86688269D01*
X130780886Y-86678156D01*
X130795448Y-86669428D01*
X130810796Y-86662169D01*
X130826781Y-86656449D01*
X130843249Y-86652324D01*
X130860043Y-86649833D01*
X130877000Y-86649000D01*
X131273000Y-86649000D01*
X131289957Y-86649833D01*
X131289957Y-86649833D01*
G37*
D14*
X131075000Y-86995000D03*
D13*
G36*
X131289957Y-87619833D02*
X131306751Y-87622324D01*
X131323219Y-87626449D01*
X131339204Y-87632169D01*
X131354552Y-87639428D01*
X131369114Y-87648156D01*
X131382750Y-87658269D01*
X131395329Y-87669671D01*
X131406731Y-87682250D01*
X131416844Y-87695886D01*
X131425572Y-87710448D01*
X131432831Y-87725796D01*
X131438551Y-87741781D01*
X131442676Y-87758249D01*
X131445167Y-87775043D01*
X131446000Y-87792000D01*
X131446000Y-88138000D01*
X131445167Y-88154957D01*
X131442676Y-88171751D01*
X131438551Y-88188219D01*
X131432831Y-88204204D01*
X131425572Y-88219552D01*
X131416844Y-88234114D01*
X131406731Y-88247750D01*
X131395329Y-88260329D01*
X131382750Y-88271731D01*
X131369114Y-88281844D01*
X131354552Y-88290572D01*
X131339204Y-88297831D01*
X131323219Y-88303551D01*
X131306751Y-88307676D01*
X131289957Y-88310167D01*
X131273000Y-88311000D01*
X130877000Y-88311000D01*
X130860043Y-88310167D01*
X130843249Y-88307676D01*
X130826781Y-88303551D01*
X130810796Y-88297831D01*
X130795448Y-88290572D01*
X130780886Y-88281844D01*
X130767250Y-88271731D01*
X130754671Y-88260329D01*
X130743269Y-88247750D01*
X130733156Y-88234114D01*
X130724428Y-88219552D01*
X130717169Y-88204204D01*
X130711449Y-88188219D01*
X130707324Y-88171751D01*
X130704833Y-88154957D01*
X130704000Y-88138000D01*
X130704000Y-87792000D01*
X130704833Y-87775043D01*
X130707324Y-87758249D01*
X130711449Y-87741781D01*
X130717169Y-87725796D01*
X130724428Y-87710448D01*
X130733156Y-87695886D01*
X130743269Y-87682250D01*
X130754671Y-87669671D01*
X130767250Y-87658269D01*
X130780886Y-87648156D01*
X130795448Y-87639428D01*
X130810796Y-87632169D01*
X130826781Y-87626449D01*
X130843249Y-87622324D01*
X130860043Y-87619833D01*
X130877000Y-87619000D01*
X131273000Y-87619000D01*
X131289957Y-87619833D01*
X131289957Y-87619833D01*
G37*
D14*
X131075000Y-87965000D03*
G04 #@! TD*
D13*
G04 #@! TO.C,R1*
G36*
X87289957Y-86649833D02*
X87306751Y-86652324D01*
X87323219Y-86656449D01*
X87339204Y-86662169D01*
X87354552Y-86669428D01*
X87369114Y-86678156D01*
X87382750Y-86688269D01*
X87395329Y-86699671D01*
X87406731Y-86712250D01*
X87416844Y-86725886D01*
X87425572Y-86740448D01*
X87432831Y-86755796D01*
X87438551Y-86771781D01*
X87442676Y-86788249D01*
X87445167Y-86805043D01*
X87446000Y-86822000D01*
X87446000Y-87168000D01*
X87445167Y-87184957D01*
X87442676Y-87201751D01*
X87438551Y-87218219D01*
X87432831Y-87234204D01*
X87425572Y-87249552D01*
X87416844Y-87264114D01*
X87406731Y-87277750D01*
X87395329Y-87290329D01*
X87382750Y-87301731D01*
X87369114Y-87311844D01*
X87354552Y-87320572D01*
X87339204Y-87327831D01*
X87323219Y-87333551D01*
X87306751Y-87337676D01*
X87289957Y-87340167D01*
X87273000Y-87341000D01*
X86877000Y-87341000D01*
X86860043Y-87340167D01*
X86843249Y-87337676D01*
X86826781Y-87333551D01*
X86810796Y-87327831D01*
X86795448Y-87320572D01*
X86780886Y-87311844D01*
X86767250Y-87301731D01*
X86754671Y-87290329D01*
X86743269Y-87277750D01*
X86733156Y-87264114D01*
X86724428Y-87249552D01*
X86717169Y-87234204D01*
X86711449Y-87218219D01*
X86707324Y-87201751D01*
X86704833Y-87184957D01*
X86704000Y-87168000D01*
X86704000Y-86822000D01*
X86704833Y-86805043D01*
X86707324Y-86788249D01*
X86711449Y-86771781D01*
X86717169Y-86755796D01*
X86724428Y-86740448D01*
X86733156Y-86725886D01*
X86743269Y-86712250D01*
X86754671Y-86699671D01*
X86767250Y-86688269D01*
X86780886Y-86678156D01*
X86795448Y-86669428D01*
X86810796Y-86662169D01*
X86826781Y-86656449D01*
X86843249Y-86652324D01*
X86860043Y-86649833D01*
X86877000Y-86649000D01*
X87273000Y-86649000D01*
X87289957Y-86649833D01*
X87289957Y-86649833D01*
G37*
D14*
X87075000Y-86995000D03*
D13*
G36*
X87289957Y-87619833D02*
X87306751Y-87622324D01*
X87323219Y-87626449D01*
X87339204Y-87632169D01*
X87354552Y-87639428D01*
X87369114Y-87648156D01*
X87382750Y-87658269D01*
X87395329Y-87669671D01*
X87406731Y-87682250D01*
X87416844Y-87695886D01*
X87425572Y-87710448D01*
X87432831Y-87725796D01*
X87438551Y-87741781D01*
X87442676Y-87758249D01*
X87445167Y-87775043D01*
X87446000Y-87792000D01*
X87446000Y-88138000D01*
X87445167Y-88154957D01*
X87442676Y-88171751D01*
X87438551Y-88188219D01*
X87432831Y-88204204D01*
X87425572Y-88219552D01*
X87416844Y-88234114D01*
X87406731Y-88247750D01*
X87395329Y-88260329D01*
X87382750Y-88271731D01*
X87369114Y-88281844D01*
X87354552Y-88290572D01*
X87339204Y-88297831D01*
X87323219Y-88303551D01*
X87306751Y-88307676D01*
X87289957Y-88310167D01*
X87273000Y-88311000D01*
X86877000Y-88311000D01*
X86860043Y-88310167D01*
X86843249Y-88307676D01*
X86826781Y-88303551D01*
X86810796Y-88297831D01*
X86795448Y-88290572D01*
X86780886Y-88281844D01*
X86767250Y-88271731D01*
X86754671Y-88260329D01*
X86743269Y-88247750D01*
X86733156Y-88234114D01*
X86724428Y-88219552D01*
X86717169Y-88204204D01*
X86711449Y-88188219D01*
X86707324Y-88171751D01*
X86704833Y-88154957D01*
X86704000Y-88138000D01*
X86704000Y-87792000D01*
X86704833Y-87775043D01*
X86707324Y-87758249D01*
X86711449Y-87741781D01*
X86717169Y-87725796D01*
X86724428Y-87710448D01*
X86733156Y-87695886D01*
X86743269Y-87682250D01*
X86754671Y-87669671D01*
X86767250Y-87658269D01*
X86780886Y-87648156D01*
X86795448Y-87639428D01*
X86810796Y-87632169D01*
X86826781Y-87626449D01*
X86843249Y-87622324D01*
X86860043Y-87619833D01*
X86877000Y-87619000D01*
X87273000Y-87619000D01*
X87289957Y-87619833D01*
X87289957Y-87619833D01*
G37*
D14*
X87075000Y-87965000D03*
G04 #@! TD*
D13*
G04 #@! TO.C,R1*
G36*
X131289957Y-40649833D02*
X131306751Y-40652324D01*
X131323219Y-40656449D01*
X131339204Y-40662169D01*
X131354552Y-40669428D01*
X131369114Y-40678156D01*
X131382750Y-40688269D01*
X131395329Y-40699671D01*
X131406731Y-40712250D01*
X131416844Y-40725886D01*
X131425572Y-40740448D01*
X131432831Y-40755796D01*
X131438551Y-40771781D01*
X131442676Y-40788249D01*
X131445167Y-40805043D01*
X131446000Y-40822000D01*
X131446000Y-41168000D01*
X131445167Y-41184957D01*
X131442676Y-41201751D01*
X131438551Y-41218219D01*
X131432831Y-41234204D01*
X131425572Y-41249552D01*
X131416844Y-41264114D01*
X131406731Y-41277750D01*
X131395329Y-41290329D01*
X131382750Y-41301731D01*
X131369114Y-41311844D01*
X131354552Y-41320572D01*
X131339204Y-41327831D01*
X131323219Y-41333551D01*
X131306751Y-41337676D01*
X131289957Y-41340167D01*
X131273000Y-41341000D01*
X130877000Y-41341000D01*
X130860043Y-41340167D01*
X130843249Y-41337676D01*
X130826781Y-41333551D01*
X130810796Y-41327831D01*
X130795448Y-41320572D01*
X130780886Y-41311844D01*
X130767250Y-41301731D01*
X130754671Y-41290329D01*
X130743269Y-41277750D01*
X130733156Y-41264114D01*
X130724428Y-41249552D01*
X130717169Y-41234204D01*
X130711449Y-41218219D01*
X130707324Y-41201751D01*
X130704833Y-41184957D01*
X130704000Y-41168000D01*
X130704000Y-40822000D01*
X130704833Y-40805043D01*
X130707324Y-40788249D01*
X130711449Y-40771781D01*
X130717169Y-40755796D01*
X130724428Y-40740448D01*
X130733156Y-40725886D01*
X130743269Y-40712250D01*
X130754671Y-40699671D01*
X130767250Y-40688269D01*
X130780886Y-40678156D01*
X130795448Y-40669428D01*
X130810796Y-40662169D01*
X130826781Y-40656449D01*
X130843249Y-40652324D01*
X130860043Y-40649833D01*
X130877000Y-40649000D01*
X131273000Y-40649000D01*
X131289957Y-40649833D01*
X131289957Y-40649833D01*
G37*
D14*
X131075000Y-40995000D03*
D13*
G36*
X131289957Y-41619833D02*
X131306751Y-41622324D01*
X131323219Y-41626449D01*
X131339204Y-41632169D01*
X131354552Y-41639428D01*
X131369114Y-41648156D01*
X131382750Y-41658269D01*
X131395329Y-41669671D01*
X131406731Y-41682250D01*
X131416844Y-41695886D01*
X131425572Y-41710448D01*
X131432831Y-41725796D01*
X131438551Y-41741781D01*
X131442676Y-41758249D01*
X131445167Y-41775043D01*
X131446000Y-41792000D01*
X131446000Y-42138000D01*
X131445167Y-42154957D01*
X131442676Y-42171751D01*
X131438551Y-42188219D01*
X131432831Y-42204204D01*
X131425572Y-42219552D01*
X131416844Y-42234114D01*
X131406731Y-42247750D01*
X131395329Y-42260329D01*
X131382750Y-42271731D01*
X131369114Y-42281844D01*
X131354552Y-42290572D01*
X131339204Y-42297831D01*
X131323219Y-42303551D01*
X131306751Y-42307676D01*
X131289957Y-42310167D01*
X131273000Y-42311000D01*
X130877000Y-42311000D01*
X130860043Y-42310167D01*
X130843249Y-42307676D01*
X130826781Y-42303551D01*
X130810796Y-42297831D01*
X130795448Y-42290572D01*
X130780886Y-42281844D01*
X130767250Y-42271731D01*
X130754671Y-42260329D01*
X130743269Y-42247750D01*
X130733156Y-42234114D01*
X130724428Y-42219552D01*
X130717169Y-42204204D01*
X130711449Y-42188219D01*
X130707324Y-42171751D01*
X130704833Y-42154957D01*
X130704000Y-42138000D01*
X130704000Y-41792000D01*
X130704833Y-41775043D01*
X130707324Y-41758249D01*
X130711449Y-41741781D01*
X130717169Y-41725796D01*
X130724428Y-41710448D01*
X130733156Y-41695886D01*
X130743269Y-41682250D01*
X130754671Y-41669671D01*
X130767250Y-41658269D01*
X130780886Y-41648156D01*
X130795448Y-41639428D01*
X130810796Y-41632169D01*
X130826781Y-41626449D01*
X130843249Y-41622324D01*
X130860043Y-41619833D01*
X130877000Y-41619000D01*
X131273000Y-41619000D01*
X131289957Y-41619833D01*
X131289957Y-41619833D01*
G37*
D14*
X131075000Y-41965000D03*
G04 #@! TD*
D15*
G04 #@! TO.C,J1*
X115454000Y-93131500D03*
X116724000Y-93131500D03*
X114184000Y-93131500D03*
X112914000Y-93131500D03*
X111644000Y-93131500D03*
X116724000Y-88940500D03*
X115454000Y-88940500D03*
X114184000Y-88940500D03*
X112914000Y-88940500D03*
X111644000Y-88940500D03*
G04 #@! TD*
G04 #@! TO.C,J1*
X71454000Y-93131500D03*
X72724000Y-93131500D03*
X70184000Y-93131500D03*
X68914000Y-93131500D03*
X67644000Y-93131500D03*
X72724000Y-88940500D03*
X71454000Y-88940500D03*
X70184000Y-88940500D03*
X68914000Y-88940500D03*
X67644000Y-88940500D03*
G04 #@! TD*
G04 #@! TO.C,J1*
X115454000Y-47131500D03*
X116724000Y-47131500D03*
X114184000Y-47131500D03*
X112914000Y-47131500D03*
X111644000Y-47131500D03*
X116724000Y-42940500D03*
X115454000Y-42940500D03*
X114184000Y-42940500D03*
X112914000Y-42940500D03*
X111644000Y-42940500D03*
G04 #@! TD*
D16*
G04 #@! TO.C,U1*
X107959624Y-119359202D03*
X108909624Y-119359202D03*
X109859624Y-119359202D03*
X109859624Y-117159202D03*
X107959624Y-117159202D03*
G04 #@! TD*
G04 #@! TO.C,U1*
X63959624Y-119359202D03*
X64909624Y-119359202D03*
X65859624Y-119359202D03*
X65859624Y-117159202D03*
X63959624Y-117159202D03*
G04 #@! TD*
G04 #@! TO.C,U1*
X107959624Y-73359202D03*
X108909624Y-73359202D03*
X109859624Y-73359202D03*
X109859624Y-71159202D03*
X107959624Y-71159202D03*
G04 #@! TD*
D13*
G04 #@! TO.C,C4*
G36*
X101964581Y-114079035D02*
X101981375Y-114081526D01*
X101997843Y-114085651D01*
X102013828Y-114091371D01*
X102029176Y-114098630D01*
X102043738Y-114107358D01*
X102057374Y-114117471D01*
X102069953Y-114128873D01*
X102081355Y-114141452D01*
X102091468Y-114155088D01*
X102100196Y-114169650D01*
X102107455Y-114184998D01*
X102113175Y-114200983D01*
X102117300Y-114217451D01*
X102119791Y-114234245D01*
X102120624Y-114251202D01*
X102120624Y-114647202D01*
X102119791Y-114664159D01*
X102117300Y-114680953D01*
X102113175Y-114697421D01*
X102107455Y-114713406D01*
X102100196Y-114728754D01*
X102091468Y-114743316D01*
X102081355Y-114756952D01*
X102069953Y-114769531D01*
X102057374Y-114780933D01*
X102043738Y-114791046D01*
X102029176Y-114799774D01*
X102013828Y-114807033D01*
X101997843Y-114812753D01*
X101981375Y-114816878D01*
X101964581Y-114819369D01*
X101947624Y-114820202D01*
X101601624Y-114820202D01*
X101584667Y-114819369D01*
X101567873Y-114816878D01*
X101551405Y-114812753D01*
X101535420Y-114807033D01*
X101520072Y-114799774D01*
X101505510Y-114791046D01*
X101491874Y-114780933D01*
X101479295Y-114769531D01*
X101467893Y-114756952D01*
X101457780Y-114743316D01*
X101449052Y-114728754D01*
X101441793Y-114713406D01*
X101436073Y-114697421D01*
X101431948Y-114680953D01*
X101429457Y-114664159D01*
X101428624Y-114647202D01*
X101428624Y-114251202D01*
X101429457Y-114234245D01*
X101431948Y-114217451D01*
X101436073Y-114200983D01*
X101441793Y-114184998D01*
X101449052Y-114169650D01*
X101457780Y-114155088D01*
X101467893Y-114141452D01*
X101479295Y-114128873D01*
X101491874Y-114117471D01*
X101505510Y-114107358D01*
X101520072Y-114098630D01*
X101535420Y-114091371D01*
X101551405Y-114085651D01*
X101567873Y-114081526D01*
X101584667Y-114079035D01*
X101601624Y-114078202D01*
X101947624Y-114078202D01*
X101964581Y-114079035D01*
X101964581Y-114079035D01*
G37*
D14*
X101774624Y-114449202D03*
D13*
G36*
X100994581Y-114079035D02*
X101011375Y-114081526D01*
X101027843Y-114085651D01*
X101043828Y-114091371D01*
X101059176Y-114098630D01*
X101073738Y-114107358D01*
X101087374Y-114117471D01*
X101099953Y-114128873D01*
X101111355Y-114141452D01*
X101121468Y-114155088D01*
X101130196Y-114169650D01*
X101137455Y-114184998D01*
X101143175Y-114200983D01*
X101147300Y-114217451D01*
X101149791Y-114234245D01*
X101150624Y-114251202D01*
X101150624Y-114647202D01*
X101149791Y-114664159D01*
X101147300Y-114680953D01*
X101143175Y-114697421D01*
X101137455Y-114713406D01*
X101130196Y-114728754D01*
X101121468Y-114743316D01*
X101111355Y-114756952D01*
X101099953Y-114769531D01*
X101087374Y-114780933D01*
X101073738Y-114791046D01*
X101059176Y-114799774D01*
X101043828Y-114807033D01*
X101027843Y-114812753D01*
X101011375Y-114816878D01*
X100994581Y-114819369D01*
X100977624Y-114820202D01*
X100631624Y-114820202D01*
X100614667Y-114819369D01*
X100597873Y-114816878D01*
X100581405Y-114812753D01*
X100565420Y-114807033D01*
X100550072Y-114799774D01*
X100535510Y-114791046D01*
X100521874Y-114780933D01*
X100509295Y-114769531D01*
X100497893Y-114756952D01*
X100487780Y-114743316D01*
X100479052Y-114728754D01*
X100471793Y-114713406D01*
X100466073Y-114697421D01*
X100461948Y-114680953D01*
X100459457Y-114664159D01*
X100458624Y-114647202D01*
X100458624Y-114251202D01*
X100459457Y-114234245D01*
X100461948Y-114217451D01*
X100466073Y-114200983D01*
X100471793Y-114184998D01*
X100479052Y-114169650D01*
X100487780Y-114155088D01*
X100497893Y-114141452D01*
X100509295Y-114128873D01*
X100521874Y-114117471D01*
X100535510Y-114107358D01*
X100550072Y-114098630D01*
X100565420Y-114091371D01*
X100581405Y-114085651D01*
X100597873Y-114081526D01*
X100614667Y-114079035D01*
X100631624Y-114078202D01*
X100977624Y-114078202D01*
X100994581Y-114079035D01*
X100994581Y-114079035D01*
G37*
D14*
X100804624Y-114449202D03*
G04 #@! TD*
D13*
G04 #@! TO.C,C4*
G36*
X57964581Y-114079035D02*
X57981375Y-114081526D01*
X57997843Y-114085651D01*
X58013828Y-114091371D01*
X58029176Y-114098630D01*
X58043738Y-114107358D01*
X58057374Y-114117471D01*
X58069953Y-114128873D01*
X58081355Y-114141452D01*
X58091468Y-114155088D01*
X58100196Y-114169650D01*
X58107455Y-114184998D01*
X58113175Y-114200983D01*
X58117300Y-114217451D01*
X58119791Y-114234245D01*
X58120624Y-114251202D01*
X58120624Y-114647202D01*
X58119791Y-114664159D01*
X58117300Y-114680953D01*
X58113175Y-114697421D01*
X58107455Y-114713406D01*
X58100196Y-114728754D01*
X58091468Y-114743316D01*
X58081355Y-114756952D01*
X58069953Y-114769531D01*
X58057374Y-114780933D01*
X58043738Y-114791046D01*
X58029176Y-114799774D01*
X58013828Y-114807033D01*
X57997843Y-114812753D01*
X57981375Y-114816878D01*
X57964581Y-114819369D01*
X57947624Y-114820202D01*
X57601624Y-114820202D01*
X57584667Y-114819369D01*
X57567873Y-114816878D01*
X57551405Y-114812753D01*
X57535420Y-114807033D01*
X57520072Y-114799774D01*
X57505510Y-114791046D01*
X57491874Y-114780933D01*
X57479295Y-114769531D01*
X57467893Y-114756952D01*
X57457780Y-114743316D01*
X57449052Y-114728754D01*
X57441793Y-114713406D01*
X57436073Y-114697421D01*
X57431948Y-114680953D01*
X57429457Y-114664159D01*
X57428624Y-114647202D01*
X57428624Y-114251202D01*
X57429457Y-114234245D01*
X57431948Y-114217451D01*
X57436073Y-114200983D01*
X57441793Y-114184998D01*
X57449052Y-114169650D01*
X57457780Y-114155088D01*
X57467893Y-114141452D01*
X57479295Y-114128873D01*
X57491874Y-114117471D01*
X57505510Y-114107358D01*
X57520072Y-114098630D01*
X57535420Y-114091371D01*
X57551405Y-114085651D01*
X57567873Y-114081526D01*
X57584667Y-114079035D01*
X57601624Y-114078202D01*
X57947624Y-114078202D01*
X57964581Y-114079035D01*
X57964581Y-114079035D01*
G37*
D14*
X57774624Y-114449202D03*
D13*
G36*
X56994581Y-114079035D02*
X57011375Y-114081526D01*
X57027843Y-114085651D01*
X57043828Y-114091371D01*
X57059176Y-114098630D01*
X57073738Y-114107358D01*
X57087374Y-114117471D01*
X57099953Y-114128873D01*
X57111355Y-114141452D01*
X57121468Y-114155088D01*
X57130196Y-114169650D01*
X57137455Y-114184998D01*
X57143175Y-114200983D01*
X57147300Y-114217451D01*
X57149791Y-114234245D01*
X57150624Y-114251202D01*
X57150624Y-114647202D01*
X57149791Y-114664159D01*
X57147300Y-114680953D01*
X57143175Y-114697421D01*
X57137455Y-114713406D01*
X57130196Y-114728754D01*
X57121468Y-114743316D01*
X57111355Y-114756952D01*
X57099953Y-114769531D01*
X57087374Y-114780933D01*
X57073738Y-114791046D01*
X57059176Y-114799774D01*
X57043828Y-114807033D01*
X57027843Y-114812753D01*
X57011375Y-114816878D01*
X56994581Y-114819369D01*
X56977624Y-114820202D01*
X56631624Y-114820202D01*
X56614667Y-114819369D01*
X56597873Y-114816878D01*
X56581405Y-114812753D01*
X56565420Y-114807033D01*
X56550072Y-114799774D01*
X56535510Y-114791046D01*
X56521874Y-114780933D01*
X56509295Y-114769531D01*
X56497893Y-114756952D01*
X56487780Y-114743316D01*
X56479052Y-114728754D01*
X56471793Y-114713406D01*
X56466073Y-114697421D01*
X56461948Y-114680953D01*
X56459457Y-114664159D01*
X56458624Y-114647202D01*
X56458624Y-114251202D01*
X56459457Y-114234245D01*
X56461948Y-114217451D01*
X56466073Y-114200983D01*
X56471793Y-114184998D01*
X56479052Y-114169650D01*
X56487780Y-114155088D01*
X56497893Y-114141452D01*
X56509295Y-114128873D01*
X56521874Y-114117471D01*
X56535510Y-114107358D01*
X56550072Y-114098630D01*
X56565420Y-114091371D01*
X56581405Y-114085651D01*
X56597873Y-114081526D01*
X56614667Y-114079035D01*
X56631624Y-114078202D01*
X56977624Y-114078202D01*
X56994581Y-114079035D01*
X56994581Y-114079035D01*
G37*
D14*
X56804624Y-114449202D03*
G04 #@! TD*
D13*
G04 #@! TO.C,C4*
G36*
X101964581Y-68079035D02*
X101981375Y-68081526D01*
X101997843Y-68085651D01*
X102013828Y-68091371D01*
X102029176Y-68098630D01*
X102043738Y-68107358D01*
X102057374Y-68117471D01*
X102069953Y-68128873D01*
X102081355Y-68141452D01*
X102091468Y-68155088D01*
X102100196Y-68169650D01*
X102107455Y-68184998D01*
X102113175Y-68200983D01*
X102117300Y-68217451D01*
X102119791Y-68234245D01*
X102120624Y-68251202D01*
X102120624Y-68647202D01*
X102119791Y-68664159D01*
X102117300Y-68680953D01*
X102113175Y-68697421D01*
X102107455Y-68713406D01*
X102100196Y-68728754D01*
X102091468Y-68743316D01*
X102081355Y-68756952D01*
X102069953Y-68769531D01*
X102057374Y-68780933D01*
X102043738Y-68791046D01*
X102029176Y-68799774D01*
X102013828Y-68807033D01*
X101997843Y-68812753D01*
X101981375Y-68816878D01*
X101964581Y-68819369D01*
X101947624Y-68820202D01*
X101601624Y-68820202D01*
X101584667Y-68819369D01*
X101567873Y-68816878D01*
X101551405Y-68812753D01*
X101535420Y-68807033D01*
X101520072Y-68799774D01*
X101505510Y-68791046D01*
X101491874Y-68780933D01*
X101479295Y-68769531D01*
X101467893Y-68756952D01*
X101457780Y-68743316D01*
X101449052Y-68728754D01*
X101441793Y-68713406D01*
X101436073Y-68697421D01*
X101431948Y-68680953D01*
X101429457Y-68664159D01*
X101428624Y-68647202D01*
X101428624Y-68251202D01*
X101429457Y-68234245D01*
X101431948Y-68217451D01*
X101436073Y-68200983D01*
X101441793Y-68184998D01*
X101449052Y-68169650D01*
X101457780Y-68155088D01*
X101467893Y-68141452D01*
X101479295Y-68128873D01*
X101491874Y-68117471D01*
X101505510Y-68107358D01*
X101520072Y-68098630D01*
X101535420Y-68091371D01*
X101551405Y-68085651D01*
X101567873Y-68081526D01*
X101584667Y-68079035D01*
X101601624Y-68078202D01*
X101947624Y-68078202D01*
X101964581Y-68079035D01*
X101964581Y-68079035D01*
G37*
D14*
X101774624Y-68449202D03*
D13*
G36*
X100994581Y-68079035D02*
X101011375Y-68081526D01*
X101027843Y-68085651D01*
X101043828Y-68091371D01*
X101059176Y-68098630D01*
X101073738Y-68107358D01*
X101087374Y-68117471D01*
X101099953Y-68128873D01*
X101111355Y-68141452D01*
X101121468Y-68155088D01*
X101130196Y-68169650D01*
X101137455Y-68184998D01*
X101143175Y-68200983D01*
X101147300Y-68217451D01*
X101149791Y-68234245D01*
X101150624Y-68251202D01*
X101150624Y-68647202D01*
X101149791Y-68664159D01*
X101147300Y-68680953D01*
X101143175Y-68697421D01*
X101137455Y-68713406D01*
X101130196Y-68728754D01*
X101121468Y-68743316D01*
X101111355Y-68756952D01*
X101099953Y-68769531D01*
X101087374Y-68780933D01*
X101073738Y-68791046D01*
X101059176Y-68799774D01*
X101043828Y-68807033D01*
X101027843Y-68812753D01*
X101011375Y-68816878D01*
X100994581Y-68819369D01*
X100977624Y-68820202D01*
X100631624Y-68820202D01*
X100614667Y-68819369D01*
X100597873Y-68816878D01*
X100581405Y-68812753D01*
X100565420Y-68807033D01*
X100550072Y-68799774D01*
X100535510Y-68791046D01*
X100521874Y-68780933D01*
X100509295Y-68769531D01*
X100497893Y-68756952D01*
X100487780Y-68743316D01*
X100479052Y-68728754D01*
X100471793Y-68713406D01*
X100466073Y-68697421D01*
X100461948Y-68680953D01*
X100459457Y-68664159D01*
X100458624Y-68647202D01*
X100458624Y-68251202D01*
X100459457Y-68234245D01*
X100461948Y-68217451D01*
X100466073Y-68200983D01*
X100471793Y-68184998D01*
X100479052Y-68169650D01*
X100487780Y-68155088D01*
X100497893Y-68141452D01*
X100509295Y-68128873D01*
X100521874Y-68117471D01*
X100535510Y-68107358D01*
X100550072Y-68098630D01*
X100565420Y-68091371D01*
X100581405Y-68085651D01*
X100597873Y-68081526D01*
X100614667Y-68079035D01*
X100631624Y-68078202D01*
X100977624Y-68078202D01*
X100994581Y-68079035D01*
X100994581Y-68079035D01*
G37*
D14*
X100804624Y-68449202D03*
G04 #@! TD*
D17*
G04 #@! TO.C,J6*
X127900000Y-98656000D03*
X125360000Y-98656000D03*
D18*
X122820000Y-98656000D03*
G04 #@! TD*
D17*
G04 #@! TO.C,J6*
X83900000Y-98656000D03*
X81360000Y-98656000D03*
D18*
X78820000Y-98656000D03*
G04 #@! TD*
D17*
G04 #@! TO.C,J6*
X127900000Y-52656000D03*
X125360000Y-52656000D03*
D18*
X122820000Y-52656000D03*
G04 #@! TD*
G04 #@! TO.C,J2*
X103516000Y-123548000D03*
D17*
X106056000Y-123548000D03*
G04 #@! TD*
D18*
G04 #@! TO.C,J2*
X59516000Y-123548000D03*
D17*
X62056000Y-123548000D03*
G04 #@! TD*
D18*
G04 #@! TO.C,J2*
X103516000Y-77548000D03*
D17*
X106056000Y-77548000D03*
G04 #@! TD*
D18*
G04 #@! TO.C,J8*
X113930000Y-110340000D03*
D17*
X116470000Y-110340000D03*
X113930000Y-112880000D03*
X116470000Y-112880000D03*
X113930000Y-115420000D03*
X116470000Y-115420000D03*
X113930000Y-117960000D03*
X116470000Y-117960000D03*
G04 #@! TD*
D18*
G04 #@! TO.C,J8*
X69930000Y-110340000D03*
D17*
X72470000Y-110340000D03*
X69930000Y-112880000D03*
X72470000Y-112880000D03*
X69930000Y-115420000D03*
X72470000Y-115420000D03*
X69930000Y-117960000D03*
X72470000Y-117960000D03*
G04 #@! TD*
D18*
G04 #@! TO.C,J8*
X113930000Y-64340000D03*
D17*
X116470000Y-64340000D03*
X113930000Y-66880000D03*
X116470000Y-66880000D03*
X113930000Y-69420000D03*
X116470000Y-69420000D03*
X113930000Y-71960000D03*
X116470000Y-71960000D03*
G04 #@! TD*
D16*
G04 #@! TO.C,U2*
X101609624Y-117159202D03*
X103509624Y-117159202D03*
X103509624Y-119359202D03*
X102559624Y-119359202D03*
X101609624Y-119359202D03*
G04 #@! TD*
G04 #@! TO.C,U2*
X57609624Y-117159202D03*
X59509624Y-117159202D03*
X59509624Y-119359202D03*
X58559624Y-119359202D03*
X57609624Y-119359202D03*
G04 #@! TD*
G04 #@! TO.C,U2*
X101609624Y-71159202D03*
X103509624Y-71159202D03*
X103509624Y-73359202D03*
X102559624Y-73359202D03*
X101609624Y-73359202D03*
G04 #@! TD*
D17*
G04 #@! TO.C,J5*
X137425000Y-86210000D03*
D18*
X134885000Y-86210000D03*
G04 #@! TD*
D17*
G04 #@! TO.C,J5*
X93425000Y-86210000D03*
D18*
X90885000Y-86210000D03*
G04 #@! TD*
D17*
G04 #@! TO.C,J5*
X137425000Y-40210000D03*
D18*
X134885000Y-40210000D03*
G04 #@! TD*
D19*
G04 #@! TO.C,J9*
X121190000Y-123678000D03*
X133990000Y-123678000D03*
D20*
X121190000Y-115178000D03*
X133990000Y-115178000D03*
D21*
X123590000Y-114428000D03*
X125590000Y-114428000D03*
X127590000Y-114428000D03*
X129590000Y-114428000D03*
X131590000Y-114428000D03*
X131090000Y-115928000D03*
X128590000Y-115928000D03*
X126590000Y-115928000D03*
X124090000Y-115928000D03*
G04 #@! TD*
D19*
G04 #@! TO.C,J9*
X77190000Y-123678000D03*
X89990000Y-123678000D03*
D20*
X77190000Y-115178000D03*
X89990000Y-115178000D03*
D21*
X79590000Y-114428000D03*
X81590000Y-114428000D03*
X83590000Y-114428000D03*
X85590000Y-114428000D03*
X87590000Y-114428000D03*
X87090000Y-115928000D03*
X84590000Y-115928000D03*
X82590000Y-115928000D03*
X80090000Y-115928000D03*
G04 #@! TD*
D19*
G04 #@! TO.C,J9*
X121190000Y-77678000D03*
X133990000Y-77678000D03*
D20*
X121190000Y-69178000D03*
X133990000Y-69178000D03*
D21*
X123590000Y-68428000D03*
X125590000Y-68428000D03*
X127590000Y-68428000D03*
X129590000Y-68428000D03*
X131590000Y-68428000D03*
X131090000Y-69928000D03*
X128590000Y-69928000D03*
X126590000Y-69928000D03*
X124090000Y-69928000D03*
G04 #@! TD*
D22*
G04 #@! TO.C,J4*
X114516000Y-125256000D03*
X112836000Y-125256000D03*
D23*
X116586000Y-125256000D03*
X110766000Y-125256000D03*
D24*
X116138500Y-122956000D03*
X111213500Y-122956000D03*
D25*
X114976000Y-122596000D03*
X114326000Y-122596000D03*
X113676000Y-122596000D03*
X113026000Y-122596000D03*
X112376000Y-122596000D03*
G04 #@! TD*
D22*
G04 #@! TO.C,J4*
X70516000Y-125256000D03*
X68836000Y-125256000D03*
D23*
X72586000Y-125256000D03*
X66766000Y-125256000D03*
D24*
X72138500Y-122956000D03*
X67213500Y-122956000D03*
D25*
X70976000Y-122596000D03*
X70326000Y-122596000D03*
X69676000Y-122596000D03*
X69026000Y-122596000D03*
X68376000Y-122596000D03*
G04 #@! TD*
D22*
G04 #@! TO.C,J4*
X114516000Y-79256000D03*
X112836000Y-79256000D03*
D23*
X116586000Y-79256000D03*
X110766000Y-79256000D03*
D24*
X116138500Y-76956000D03*
X111213500Y-76956000D03*
D25*
X114976000Y-76596000D03*
X114326000Y-76596000D03*
X113676000Y-76596000D03*
X113026000Y-76596000D03*
X112376000Y-76596000D03*
G04 #@! TD*
D17*
G04 #@! TO.C,J3*
X103008000Y-101196000D03*
X105548000Y-101196000D03*
X103008000Y-103736000D03*
X105548000Y-103736000D03*
X103008000Y-106276000D03*
X105548000Y-106276000D03*
X103008000Y-108816000D03*
D18*
X105548000Y-108816000D03*
G04 #@! TD*
D17*
G04 #@! TO.C,J3*
X59008000Y-101196000D03*
X61548000Y-101196000D03*
X59008000Y-103736000D03*
X61548000Y-103736000D03*
X59008000Y-106276000D03*
X61548000Y-106276000D03*
X59008000Y-108816000D03*
D18*
X61548000Y-108816000D03*
G04 #@! TD*
D17*
G04 #@! TO.C,J3*
X103008000Y-55196000D03*
X105548000Y-55196000D03*
X103008000Y-57736000D03*
X105548000Y-57736000D03*
X103008000Y-60276000D03*
X105548000Y-60276000D03*
X103008000Y-62816000D03*
D18*
X105548000Y-62816000D03*
G04 #@! TD*
D26*
G04 #@! TO.C,SW1*
X132345000Y-90020000D03*
X137425000Y-90020000D03*
X132345000Y-97640000D03*
X137425000Y-97640000D03*
G04 #@! TD*
G04 #@! TO.C,SW1*
X88345000Y-90020000D03*
X93425000Y-90020000D03*
X88345000Y-97640000D03*
X93425000Y-97640000D03*
G04 #@! TD*
G04 #@! TO.C,SW1*
X132345000Y-44020000D03*
X137425000Y-44020000D03*
X132345000Y-51640000D03*
X137425000Y-51640000D03*
G04 #@! TD*
D13*
G04 #@! TO.C,C1*
G36*
X109884581Y-114079035D02*
X109901375Y-114081526D01*
X109917843Y-114085651D01*
X109933828Y-114091371D01*
X109949176Y-114098630D01*
X109963738Y-114107358D01*
X109977374Y-114117471D01*
X109989953Y-114128873D01*
X110001355Y-114141452D01*
X110011468Y-114155088D01*
X110020196Y-114169650D01*
X110027455Y-114184998D01*
X110033175Y-114200983D01*
X110037300Y-114217451D01*
X110039791Y-114234245D01*
X110040624Y-114251202D01*
X110040624Y-114647202D01*
X110039791Y-114664159D01*
X110037300Y-114680953D01*
X110033175Y-114697421D01*
X110027455Y-114713406D01*
X110020196Y-114728754D01*
X110011468Y-114743316D01*
X110001355Y-114756952D01*
X109989953Y-114769531D01*
X109977374Y-114780933D01*
X109963738Y-114791046D01*
X109949176Y-114799774D01*
X109933828Y-114807033D01*
X109917843Y-114812753D01*
X109901375Y-114816878D01*
X109884581Y-114819369D01*
X109867624Y-114820202D01*
X109521624Y-114820202D01*
X109504667Y-114819369D01*
X109487873Y-114816878D01*
X109471405Y-114812753D01*
X109455420Y-114807033D01*
X109440072Y-114799774D01*
X109425510Y-114791046D01*
X109411874Y-114780933D01*
X109399295Y-114769531D01*
X109387893Y-114756952D01*
X109377780Y-114743316D01*
X109369052Y-114728754D01*
X109361793Y-114713406D01*
X109356073Y-114697421D01*
X109351948Y-114680953D01*
X109349457Y-114664159D01*
X109348624Y-114647202D01*
X109348624Y-114251202D01*
X109349457Y-114234245D01*
X109351948Y-114217451D01*
X109356073Y-114200983D01*
X109361793Y-114184998D01*
X109369052Y-114169650D01*
X109377780Y-114155088D01*
X109387893Y-114141452D01*
X109399295Y-114128873D01*
X109411874Y-114117471D01*
X109425510Y-114107358D01*
X109440072Y-114098630D01*
X109455420Y-114091371D01*
X109471405Y-114085651D01*
X109487873Y-114081526D01*
X109504667Y-114079035D01*
X109521624Y-114078202D01*
X109867624Y-114078202D01*
X109884581Y-114079035D01*
X109884581Y-114079035D01*
G37*
D14*
X109694624Y-114449202D03*
D13*
G36*
X110854581Y-114079035D02*
X110871375Y-114081526D01*
X110887843Y-114085651D01*
X110903828Y-114091371D01*
X110919176Y-114098630D01*
X110933738Y-114107358D01*
X110947374Y-114117471D01*
X110959953Y-114128873D01*
X110971355Y-114141452D01*
X110981468Y-114155088D01*
X110990196Y-114169650D01*
X110997455Y-114184998D01*
X111003175Y-114200983D01*
X111007300Y-114217451D01*
X111009791Y-114234245D01*
X111010624Y-114251202D01*
X111010624Y-114647202D01*
X111009791Y-114664159D01*
X111007300Y-114680953D01*
X111003175Y-114697421D01*
X110997455Y-114713406D01*
X110990196Y-114728754D01*
X110981468Y-114743316D01*
X110971355Y-114756952D01*
X110959953Y-114769531D01*
X110947374Y-114780933D01*
X110933738Y-114791046D01*
X110919176Y-114799774D01*
X110903828Y-114807033D01*
X110887843Y-114812753D01*
X110871375Y-114816878D01*
X110854581Y-114819369D01*
X110837624Y-114820202D01*
X110491624Y-114820202D01*
X110474667Y-114819369D01*
X110457873Y-114816878D01*
X110441405Y-114812753D01*
X110425420Y-114807033D01*
X110410072Y-114799774D01*
X110395510Y-114791046D01*
X110381874Y-114780933D01*
X110369295Y-114769531D01*
X110357893Y-114756952D01*
X110347780Y-114743316D01*
X110339052Y-114728754D01*
X110331793Y-114713406D01*
X110326073Y-114697421D01*
X110321948Y-114680953D01*
X110319457Y-114664159D01*
X110318624Y-114647202D01*
X110318624Y-114251202D01*
X110319457Y-114234245D01*
X110321948Y-114217451D01*
X110326073Y-114200983D01*
X110331793Y-114184998D01*
X110339052Y-114169650D01*
X110347780Y-114155088D01*
X110357893Y-114141452D01*
X110369295Y-114128873D01*
X110381874Y-114117471D01*
X110395510Y-114107358D01*
X110410072Y-114098630D01*
X110425420Y-114091371D01*
X110441405Y-114085651D01*
X110457873Y-114081526D01*
X110474667Y-114079035D01*
X110491624Y-114078202D01*
X110837624Y-114078202D01*
X110854581Y-114079035D01*
X110854581Y-114079035D01*
G37*
D14*
X110664624Y-114449202D03*
G04 #@! TD*
D13*
G04 #@! TO.C,C1*
G36*
X65884581Y-114079035D02*
X65901375Y-114081526D01*
X65917843Y-114085651D01*
X65933828Y-114091371D01*
X65949176Y-114098630D01*
X65963738Y-114107358D01*
X65977374Y-114117471D01*
X65989953Y-114128873D01*
X66001355Y-114141452D01*
X66011468Y-114155088D01*
X66020196Y-114169650D01*
X66027455Y-114184998D01*
X66033175Y-114200983D01*
X66037300Y-114217451D01*
X66039791Y-114234245D01*
X66040624Y-114251202D01*
X66040624Y-114647202D01*
X66039791Y-114664159D01*
X66037300Y-114680953D01*
X66033175Y-114697421D01*
X66027455Y-114713406D01*
X66020196Y-114728754D01*
X66011468Y-114743316D01*
X66001355Y-114756952D01*
X65989953Y-114769531D01*
X65977374Y-114780933D01*
X65963738Y-114791046D01*
X65949176Y-114799774D01*
X65933828Y-114807033D01*
X65917843Y-114812753D01*
X65901375Y-114816878D01*
X65884581Y-114819369D01*
X65867624Y-114820202D01*
X65521624Y-114820202D01*
X65504667Y-114819369D01*
X65487873Y-114816878D01*
X65471405Y-114812753D01*
X65455420Y-114807033D01*
X65440072Y-114799774D01*
X65425510Y-114791046D01*
X65411874Y-114780933D01*
X65399295Y-114769531D01*
X65387893Y-114756952D01*
X65377780Y-114743316D01*
X65369052Y-114728754D01*
X65361793Y-114713406D01*
X65356073Y-114697421D01*
X65351948Y-114680953D01*
X65349457Y-114664159D01*
X65348624Y-114647202D01*
X65348624Y-114251202D01*
X65349457Y-114234245D01*
X65351948Y-114217451D01*
X65356073Y-114200983D01*
X65361793Y-114184998D01*
X65369052Y-114169650D01*
X65377780Y-114155088D01*
X65387893Y-114141452D01*
X65399295Y-114128873D01*
X65411874Y-114117471D01*
X65425510Y-114107358D01*
X65440072Y-114098630D01*
X65455420Y-114091371D01*
X65471405Y-114085651D01*
X65487873Y-114081526D01*
X65504667Y-114079035D01*
X65521624Y-114078202D01*
X65867624Y-114078202D01*
X65884581Y-114079035D01*
X65884581Y-114079035D01*
G37*
D14*
X65694624Y-114449202D03*
D13*
G36*
X66854581Y-114079035D02*
X66871375Y-114081526D01*
X66887843Y-114085651D01*
X66903828Y-114091371D01*
X66919176Y-114098630D01*
X66933738Y-114107358D01*
X66947374Y-114117471D01*
X66959953Y-114128873D01*
X66971355Y-114141452D01*
X66981468Y-114155088D01*
X66990196Y-114169650D01*
X66997455Y-114184998D01*
X67003175Y-114200983D01*
X67007300Y-114217451D01*
X67009791Y-114234245D01*
X67010624Y-114251202D01*
X67010624Y-114647202D01*
X67009791Y-114664159D01*
X67007300Y-114680953D01*
X67003175Y-114697421D01*
X66997455Y-114713406D01*
X66990196Y-114728754D01*
X66981468Y-114743316D01*
X66971355Y-114756952D01*
X66959953Y-114769531D01*
X66947374Y-114780933D01*
X66933738Y-114791046D01*
X66919176Y-114799774D01*
X66903828Y-114807033D01*
X66887843Y-114812753D01*
X66871375Y-114816878D01*
X66854581Y-114819369D01*
X66837624Y-114820202D01*
X66491624Y-114820202D01*
X66474667Y-114819369D01*
X66457873Y-114816878D01*
X66441405Y-114812753D01*
X66425420Y-114807033D01*
X66410072Y-114799774D01*
X66395510Y-114791046D01*
X66381874Y-114780933D01*
X66369295Y-114769531D01*
X66357893Y-114756952D01*
X66347780Y-114743316D01*
X66339052Y-114728754D01*
X66331793Y-114713406D01*
X66326073Y-114697421D01*
X66321948Y-114680953D01*
X66319457Y-114664159D01*
X66318624Y-114647202D01*
X66318624Y-114251202D01*
X66319457Y-114234245D01*
X66321948Y-114217451D01*
X66326073Y-114200983D01*
X66331793Y-114184998D01*
X66339052Y-114169650D01*
X66347780Y-114155088D01*
X66357893Y-114141452D01*
X66369295Y-114128873D01*
X66381874Y-114117471D01*
X66395510Y-114107358D01*
X66410072Y-114098630D01*
X66425420Y-114091371D01*
X66441405Y-114085651D01*
X66457873Y-114081526D01*
X66474667Y-114079035D01*
X66491624Y-114078202D01*
X66837624Y-114078202D01*
X66854581Y-114079035D01*
X66854581Y-114079035D01*
G37*
D14*
X66664624Y-114449202D03*
G04 #@! TD*
D13*
G04 #@! TO.C,C1*
G36*
X109884581Y-68079035D02*
X109901375Y-68081526D01*
X109917843Y-68085651D01*
X109933828Y-68091371D01*
X109949176Y-68098630D01*
X109963738Y-68107358D01*
X109977374Y-68117471D01*
X109989953Y-68128873D01*
X110001355Y-68141452D01*
X110011468Y-68155088D01*
X110020196Y-68169650D01*
X110027455Y-68184998D01*
X110033175Y-68200983D01*
X110037300Y-68217451D01*
X110039791Y-68234245D01*
X110040624Y-68251202D01*
X110040624Y-68647202D01*
X110039791Y-68664159D01*
X110037300Y-68680953D01*
X110033175Y-68697421D01*
X110027455Y-68713406D01*
X110020196Y-68728754D01*
X110011468Y-68743316D01*
X110001355Y-68756952D01*
X109989953Y-68769531D01*
X109977374Y-68780933D01*
X109963738Y-68791046D01*
X109949176Y-68799774D01*
X109933828Y-68807033D01*
X109917843Y-68812753D01*
X109901375Y-68816878D01*
X109884581Y-68819369D01*
X109867624Y-68820202D01*
X109521624Y-68820202D01*
X109504667Y-68819369D01*
X109487873Y-68816878D01*
X109471405Y-68812753D01*
X109455420Y-68807033D01*
X109440072Y-68799774D01*
X109425510Y-68791046D01*
X109411874Y-68780933D01*
X109399295Y-68769531D01*
X109387893Y-68756952D01*
X109377780Y-68743316D01*
X109369052Y-68728754D01*
X109361793Y-68713406D01*
X109356073Y-68697421D01*
X109351948Y-68680953D01*
X109349457Y-68664159D01*
X109348624Y-68647202D01*
X109348624Y-68251202D01*
X109349457Y-68234245D01*
X109351948Y-68217451D01*
X109356073Y-68200983D01*
X109361793Y-68184998D01*
X109369052Y-68169650D01*
X109377780Y-68155088D01*
X109387893Y-68141452D01*
X109399295Y-68128873D01*
X109411874Y-68117471D01*
X109425510Y-68107358D01*
X109440072Y-68098630D01*
X109455420Y-68091371D01*
X109471405Y-68085651D01*
X109487873Y-68081526D01*
X109504667Y-68079035D01*
X109521624Y-68078202D01*
X109867624Y-68078202D01*
X109884581Y-68079035D01*
X109884581Y-68079035D01*
G37*
D14*
X109694624Y-68449202D03*
D13*
G36*
X110854581Y-68079035D02*
X110871375Y-68081526D01*
X110887843Y-68085651D01*
X110903828Y-68091371D01*
X110919176Y-68098630D01*
X110933738Y-68107358D01*
X110947374Y-68117471D01*
X110959953Y-68128873D01*
X110971355Y-68141452D01*
X110981468Y-68155088D01*
X110990196Y-68169650D01*
X110997455Y-68184998D01*
X111003175Y-68200983D01*
X111007300Y-68217451D01*
X111009791Y-68234245D01*
X111010624Y-68251202D01*
X111010624Y-68647202D01*
X111009791Y-68664159D01*
X111007300Y-68680953D01*
X111003175Y-68697421D01*
X110997455Y-68713406D01*
X110990196Y-68728754D01*
X110981468Y-68743316D01*
X110971355Y-68756952D01*
X110959953Y-68769531D01*
X110947374Y-68780933D01*
X110933738Y-68791046D01*
X110919176Y-68799774D01*
X110903828Y-68807033D01*
X110887843Y-68812753D01*
X110871375Y-68816878D01*
X110854581Y-68819369D01*
X110837624Y-68820202D01*
X110491624Y-68820202D01*
X110474667Y-68819369D01*
X110457873Y-68816878D01*
X110441405Y-68812753D01*
X110425420Y-68807033D01*
X110410072Y-68799774D01*
X110395510Y-68791046D01*
X110381874Y-68780933D01*
X110369295Y-68769531D01*
X110357893Y-68756952D01*
X110347780Y-68743316D01*
X110339052Y-68728754D01*
X110331793Y-68713406D01*
X110326073Y-68697421D01*
X110321948Y-68680953D01*
X110319457Y-68664159D01*
X110318624Y-68647202D01*
X110318624Y-68251202D01*
X110319457Y-68234245D01*
X110321948Y-68217451D01*
X110326073Y-68200983D01*
X110331793Y-68184998D01*
X110339052Y-68169650D01*
X110347780Y-68155088D01*
X110357893Y-68141452D01*
X110369295Y-68128873D01*
X110381874Y-68117471D01*
X110395510Y-68107358D01*
X110410072Y-68098630D01*
X110425420Y-68091371D01*
X110441405Y-68085651D01*
X110457873Y-68081526D01*
X110474667Y-68079035D01*
X110491624Y-68078202D01*
X110837624Y-68078202D01*
X110854581Y-68079035D01*
X110854581Y-68079035D01*
G37*
D14*
X110664624Y-68449202D03*
G04 #@! TD*
D13*
G04 #@! TO.C,C2*
G36*
X107344581Y-114079035D02*
X107361375Y-114081526D01*
X107377843Y-114085651D01*
X107393828Y-114091371D01*
X107409176Y-114098630D01*
X107423738Y-114107358D01*
X107437374Y-114117471D01*
X107449953Y-114128873D01*
X107461355Y-114141452D01*
X107471468Y-114155088D01*
X107480196Y-114169650D01*
X107487455Y-114184998D01*
X107493175Y-114200983D01*
X107497300Y-114217451D01*
X107499791Y-114234245D01*
X107500624Y-114251202D01*
X107500624Y-114647202D01*
X107499791Y-114664159D01*
X107497300Y-114680953D01*
X107493175Y-114697421D01*
X107487455Y-114713406D01*
X107480196Y-114728754D01*
X107471468Y-114743316D01*
X107461355Y-114756952D01*
X107449953Y-114769531D01*
X107437374Y-114780933D01*
X107423738Y-114791046D01*
X107409176Y-114799774D01*
X107393828Y-114807033D01*
X107377843Y-114812753D01*
X107361375Y-114816878D01*
X107344581Y-114819369D01*
X107327624Y-114820202D01*
X106981624Y-114820202D01*
X106964667Y-114819369D01*
X106947873Y-114816878D01*
X106931405Y-114812753D01*
X106915420Y-114807033D01*
X106900072Y-114799774D01*
X106885510Y-114791046D01*
X106871874Y-114780933D01*
X106859295Y-114769531D01*
X106847893Y-114756952D01*
X106837780Y-114743316D01*
X106829052Y-114728754D01*
X106821793Y-114713406D01*
X106816073Y-114697421D01*
X106811948Y-114680953D01*
X106809457Y-114664159D01*
X106808624Y-114647202D01*
X106808624Y-114251202D01*
X106809457Y-114234245D01*
X106811948Y-114217451D01*
X106816073Y-114200983D01*
X106821793Y-114184998D01*
X106829052Y-114169650D01*
X106837780Y-114155088D01*
X106847893Y-114141452D01*
X106859295Y-114128873D01*
X106871874Y-114117471D01*
X106885510Y-114107358D01*
X106900072Y-114098630D01*
X106915420Y-114091371D01*
X106931405Y-114085651D01*
X106947873Y-114081526D01*
X106964667Y-114079035D01*
X106981624Y-114078202D01*
X107327624Y-114078202D01*
X107344581Y-114079035D01*
X107344581Y-114079035D01*
G37*
D14*
X107154624Y-114449202D03*
D13*
G36*
X108314581Y-114079035D02*
X108331375Y-114081526D01*
X108347843Y-114085651D01*
X108363828Y-114091371D01*
X108379176Y-114098630D01*
X108393738Y-114107358D01*
X108407374Y-114117471D01*
X108419953Y-114128873D01*
X108431355Y-114141452D01*
X108441468Y-114155088D01*
X108450196Y-114169650D01*
X108457455Y-114184998D01*
X108463175Y-114200983D01*
X108467300Y-114217451D01*
X108469791Y-114234245D01*
X108470624Y-114251202D01*
X108470624Y-114647202D01*
X108469791Y-114664159D01*
X108467300Y-114680953D01*
X108463175Y-114697421D01*
X108457455Y-114713406D01*
X108450196Y-114728754D01*
X108441468Y-114743316D01*
X108431355Y-114756952D01*
X108419953Y-114769531D01*
X108407374Y-114780933D01*
X108393738Y-114791046D01*
X108379176Y-114799774D01*
X108363828Y-114807033D01*
X108347843Y-114812753D01*
X108331375Y-114816878D01*
X108314581Y-114819369D01*
X108297624Y-114820202D01*
X107951624Y-114820202D01*
X107934667Y-114819369D01*
X107917873Y-114816878D01*
X107901405Y-114812753D01*
X107885420Y-114807033D01*
X107870072Y-114799774D01*
X107855510Y-114791046D01*
X107841874Y-114780933D01*
X107829295Y-114769531D01*
X107817893Y-114756952D01*
X107807780Y-114743316D01*
X107799052Y-114728754D01*
X107791793Y-114713406D01*
X107786073Y-114697421D01*
X107781948Y-114680953D01*
X107779457Y-114664159D01*
X107778624Y-114647202D01*
X107778624Y-114251202D01*
X107779457Y-114234245D01*
X107781948Y-114217451D01*
X107786073Y-114200983D01*
X107791793Y-114184998D01*
X107799052Y-114169650D01*
X107807780Y-114155088D01*
X107817893Y-114141452D01*
X107829295Y-114128873D01*
X107841874Y-114117471D01*
X107855510Y-114107358D01*
X107870072Y-114098630D01*
X107885420Y-114091371D01*
X107901405Y-114085651D01*
X107917873Y-114081526D01*
X107934667Y-114079035D01*
X107951624Y-114078202D01*
X108297624Y-114078202D01*
X108314581Y-114079035D01*
X108314581Y-114079035D01*
G37*
D14*
X108124624Y-114449202D03*
G04 #@! TD*
D13*
G04 #@! TO.C,C2*
G36*
X63344581Y-114079035D02*
X63361375Y-114081526D01*
X63377843Y-114085651D01*
X63393828Y-114091371D01*
X63409176Y-114098630D01*
X63423738Y-114107358D01*
X63437374Y-114117471D01*
X63449953Y-114128873D01*
X63461355Y-114141452D01*
X63471468Y-114155088D01*
X63480196Y-114169650D01*
X63487455Y-114184998D01*
X63493175Y-114200983D01*
X63497300Y-114217451D01*
X63499791Y-114234245D01*
X63500624Y-114251202D01*
X63500624Y-114647202D01*
X63499791Y-114664159D01*
X63497300Y-114680953D01*
X63493175Y-114697421D01*
X63487455Y-114713406D01*
X63480196Y-114728754D01*
X63471468Y-114743316D01*
X63461355Y-114756952D01*
X63449953Y-114769531D01*
X63437374Y-114780933D01*
X63423738Y-114791046D01*
X63409176Y-114799774D01*
X63393828Y-114807033D01*
X63377843Y-114812753D01*
X63361375Y-114816878D01*
X63344581Y-114819369D01*
X63327624Y-114820202D01*
X62981624Y-114820202D01*
X62964667Y-114819369D01*
X62947873Y-114816878D01*
X62931405Y-114812753D01*
X62915420Y-114807033D01*
X62900072Y-114799774D01*
X62885510Y-114791046D01*
X62871874Y-114780933D01*
X62859295Y-114769531D01*
X62847893Y-114756952D01*
X62837780Y-114743316D01*
X62829052Y-114728754D01*
X62821793Y-114713406D01*
X62816073Y-114697421D01*
X62811948Y-114680953D01*
X62809457Y-114664159D01*
X62808624Y-114647202D01*
X62808624Y-114251202D01*
X62809457Y-114234245D01*
X62811948Y-114217451D01*
X62816073Y-114200983D01*
X62821793Y-114184998D01*
X62829052Y-114169650D01*
X62837780Y-114155088D01*
X62847893Y-114141452D01*
X62859295Y-114128873D01*
X62871874Y-114117471D01*
X62885510Y-114107358D01*
X62900072Y-114098630D01*
X62915420Y-114091371D01*
X62931405Y-114085651D01*
X62947873Y-114081526D01*
X62964667Y-114079035D01*
X62981624Y-114078202D01*
X63327624Y-114078202D01*
X63344581Y-114079035D01*
X63344581Y-114079035D01*
G37*
D14*
X63154624Y-114449202D03*
D13*
G36*
X64314581Y-114079035D02*
X64331375Y-114081526D01*
X64347843Y-114085651D01*
X64363828Y-114091371D01*
X64379176Y-114098630D01*
X64393738Y-114107358D01*
X64407374Y-114117471D01*
X64419953Y-114128873D01*
X64431355Y-114141452D01*
X64441468Y-114155088D01*
X64450196Y-114169650D01*
X64457455Y-114184998D01*
X64463175Y-114200983D01*
X64467300Y-114217451D01*
X64469791Y-114234245D01*
X64470624Y-114251202D01*
X64470624Y-114647202D01*
X64469791Y-114664159D01*
X64467300Y-114680953D01*
X64463175Y-114697421D01*
X64457455Y-114713406D01*
X64450196Y-114728754D01*
X64441468Y-114743316D01*
X64431355Y-114756952D01*
X64419953Y-114769531D01*
X64407374Y-114780933D01*
X64393738Y-114791046D01*
X64379176Y-114799774D01*
X64363828Y-114807033D01*
X64347843Y-114812753D01*
X64331375Y-114816878D01*
X64314581Y-114819369D01*
X64297624Y-114820202D01*
X63951624Y-114820202D01*
X63934667Y-114819369D01*
X63917873Y-114816878D01*
X63901405Y-114812753D01*
X63885420Y-114807033D01*
X63870072Y-114799774D01*
X63855510Y-114791046D01*
X63841874Y-114780933D01*
X63829295Y-114769531D01*
X63817893Y-114756952D01*
X63807780Y-114743316D01*
X63799052Y-114728754D01*
X63791793Y-114713406D01*
X63786073Y-114697421D01*
X63781948Y-114680953D01*
X63779457Y-114664159D01*
X63778624Y-114647202D01*
X63778624Y-114251202D01*
X63779457Y-114234245D01*
X63781948Y-114217451D01*
X63786073Y-114200983D01*
X63791793Y-114184998D01*
X63799052Y-114169650D01*
X63807780Y-114155088D01*
X63817893Y-114141452D01*
X63829295Y-114128873D01*
X63841874Y-114117471D01*
X63855510Y-114107358D01*
X63870072Y-114098630D01*
X63885420Y-114091371D01*
X63901405Y-114085651D01*
X63917873Y-114081526D01*
X63934667Y-114079035D01*
X63951624Y-114078202D01*
X64297624Y-114078202D01*
X64314581Y-114079035D01*
X64314581Y-114079035D01*
G37*
D14*
X64124624Y-114449202D03*
G04 #@! TD*
D13*
G04 #@! TO.C,C2*
G36*
X107344581Y-68079035D02*
X107361375Y-68081526D01*
X107377843Y-68085651D01*
X107393828Y-68091371D01*
X107409176Y-68098630D01*
X107423738Y-68107358D01*
X107437374Y-68117471D01*
X107449953Y-68128873D01*
X107461355Y-68141452D01*
X107471468Y-68155088D01*
X107480196Y-68169650D01*
X107487455Y-68184998D01*
X107493175Y-68200983D01*
X107497300Y-68217451D01*
X107499791Y-68234245D01*
X107500624Y-68251202D01*
X107500624Y-68647202D01*
X107499791Y-68664159D01*
X107497300Y-68680953D01*
X107493175Y-68697421D01*
X107487455Y-68713406D01*
X107480196Y-68728754D01*
X107471468Y-68743316D01*
X107461355Y-68756952D01*
X107449953Y-68769531D01*
X107437374Y-68780933D01*
X107423738Y-68791046D01*
X107409176Y-68799774D01*
X107393828Y-68807033D01*
X107377843Y-68812753D01*
X107361375Y-68816878D01*
X107344581Y-68819369D01*
X107327624Y-68820202D01*
X106981624Y-68820202D01*
X106964667Y-68819369D01*
X106947873Y-68816878D01*
X106931405Y-68812753D01*
X106915420Y-68807033D01*
X106900072Y-68799774D01*
X106885510Y-68791046D01*
X106871874Y-68780933D01*
X106859295Y-68769531D01*
X106847893Y-68756952D01*
X106837780Y-68743316D01*
X106829052Y-68728754D01*
X106821793Y-68713406D01*
X106816073Y-68697421D01*
X106811948Y-68680953D01*
X106809457Y-68664159D01*
X106808624Y-68647202D01*
X106808624Y-68251202D01*
X106809457Y-68234245D01*
X106811948Y-68217451D01*
X106816073Y-68200983D01*
X106821793Y-68184998D01*
X106829052Y-68169650D01*
X106837780Y-68155088D01*
X106847893Y-68141452D01*
X106859295Y-68128873D01*
X106871874Y-68117471D01*
X106885510Y-68107358D01*
X106900072Y-68098630D01*
X106915420Y-68091371D01*
X106931405Y-68085651D01*
X106947873Y-68081526D01*
X106964667Y-68079035D01*
X106981624Y-68078202D01*
X107327624Y-68078202D01*
X107344581Y-68079035D01*
X107344581Y-68079035D01*
G37*
D14*
X107154624Y-68449202D03*
D13*
G36*
X108314581Y-68079035D02*
X108331375Y-68081526D01*
X108347843Y-68085651D01*
X108363828Y-68091371D01*
X108379176Y-68098630D01*
X108393738Y-68107358D01*
X108407374Y-68117471D01*
X108419953Y-68128873D01*
X108431355Y-68141452D01*
X108441468Y-68155088D01*
X108450196Y-68169650D01*
X108457455Y-68184998D01*
X108463175Y-68200983D01*
X108467300Y-68217451D01*
X108469791Y-68234245D01*
X108470624Y-68251202D01*
X108470624Y-68647202D01*
X108469791Y-68664159D01*
X108467300Y-68680953D01*
X108463175Y-68697421D01*
X108457455Y-68713406D01*
X108450196Y-68728754D01*
X108441468Y-68743316D01*
X108431355Y-68756952D01*
X108419953Y-68769531D01*
X108407374Y-68780933D01*
X108393738Y-68791046D01*
X108379176Y-68799774D01*
X108363828Y-68807033D01*
X108347843Y-68812753D01*
X108331375Y-68816878D01*
X108314581Y-68819369D01*
X108297624Y-68820202D01*
X107951624Y-68820202D01*
X107934667Y-68819369D01*
X107917873Y-68816878D01*
X107901405Y-68812753D01*
X107885420Y-68807033D01*
X107870072Y-68799774D01*
X107855510Y-68791046D01*
X107841874Y-68780933D01*
X107829295Y-68769531D01*
X107817893Y-68756952D01*
X107807780Y-68743316D01*
X107799052Y-68728754D01*
X107791793Y-68713406D01*
X107786073Y-68697421D01*
X107781948Y-68680953D01*
X107779457Y-68664159D01*
X107778624Y-68647202D01*
X107778624Y-68251202D01*
X107779457Y-68234245D01*
X107781948Y-68217451D01*
X107786073Y-68200983D01*
X107791793Y-68184998D01*
X107799052Y-68169650D01*
X107807780Y-68155088D01*
X107817893Y-68141452D01*
X107829295Y-68128873D01*
X107841874Y-68117471D01*
X107855510Y-68107358D01*
X107870072Y-68098630D01*
X107885420Y-68091371D01*
X107901405Y-68085651D01*
X107917873Y-68081526D01*
X107934667Y-68079035D01*
X107951624Y-68078202D01*
X108297624Y-68078202D01*
X108314581Y-68079035D01*
X108314581Y-68079035D01*
G37*
D14*
X108124624Y-68449202D03*
G04 #@! TD*
D13*
G04 #@! TO.C,C3*
G36*
X104504581Y-114079035D02*
X104521375Y-114081526D01*
X104537843Y-114085651D01*
X104553828Y-114091371D01*
X104569176Y-114098630D01*
X104583738Y-114107358D01*
X104597374Y-114117471D01*
X104609953Y-114128873D01*
X104621355Y-114141452D01*
X104631468Y-114155088D01*
X104640196Y-114169650D01*
X104647455Y-114184998D01*
X104653175Y-114200983D01*
X104657300Y-114217451D01*
X104659791Y-114234245D01*
X104660624Y-114251202D01*
X104660624Y-114647202D01*
X104659791Y-114664159D01*
X104657300Y-114680953D01*
X104653175Y-114697421D01*
X104647455Y-114713406D01*
X104640196Y-114728754D01*
X104631468Y-114743316D01*
X104621355Y-114756952D01*
X104609953Y-114769531D01*
X104597374Y-114780933D01*
X104583738Y-114791046D01*
X104569176Y-114799774D01*
X104553828Y-114807033D01*
X104537843Y-114812753D01*
X104521375Y-114816878D01*
X104504581Y-114819369D01*
X104487624Y-114820202D01*
X104141624Y-114820202D01*
X104124667Y-114819369D01*
X104107873Y-114816878D01*
X104091405Y-114812753D01*
X104075420Y-114807033D01*
X104060072Y-114799774D01*
X104045510Y-114791046D01*
X104031874Y-114780933D01*
X104019295Y-114769531D01*
X104007893Y-114756952D01*
X103997780Y-114743316D01*
X103989052Y-114728754D01*
X103981793Y-114713406D01*
X103976073Y-114697421D01*
X103971948Y-114680953D01*
X103969457Y-114664159D01*
X103968624Y-114647202D01*
X103968624Y-114251202D01*
X103969457Y-114234245D01*
X103971948Y-114217451D01*
X103976073Y-114200983D01*
X103981793Y-114184998D01*
X103989052Y-114169650D01*
X103997780Y-114155088D01*
X104007893Y-114141452D01*
X104019295Y-114128873D01*
X104031874Y-114117471D01*
X104045510Y-114107358D01*
X104060072Y-114098630D01*
X104075420Y-114091371D01*
X104091405Y-114085651D01*
X104107873Y-114081526D01*
X104124667Y-114079035D01*
X104141624Y-114078202D01*
X104487624Y-114078202D01*
X104504581Y-114079035D01*
X104504581Y-114079035D01*
G37*
D14*
X104314624Y-114449202D03*
D13*
G36*
X103534581Y-114079035D02*
X103551375Y-114081526D01*
X103567843Y-114085651D01*
X103583828Y-114091371D01*
X103599176Y-114098630D01*
X103613738Y-114107358D01*
X103627374Y-114117471D01*
X103639953Y-114128873D01*
X103651355Y-114141452D01*
X103661468Y-114155088D01*
X103670196Y-114169650D01*
X103677455Y-114184998D01*
X103683175Y-114200983D01*
X103687300Y-114217451D01*
X103689791Y-114234245D01*
X103690624Y-114251202D01*
X103690624Y-114647202D01*
X103689791Y-114664159D01*
X103687300Y-114680953D01*
X103683175Y-114697421D01*
X103677455Y-114713406D01*
X103670196Y-114728754D01*
X103661468Y-114743316D01*
X103651355Y-114756952D01*
X103639953Y-114769531D01*
X103627374Y-114780933D01*
X103613738Y-114791046D01*
X103599176Y-114799774D01*
X103583828Y-114807033D01*
X103567843Y-114812753D01*
X103551375Y-114816878D01*
X103534581Y-114819369D01*
X103517624Y-114820202D01*
X103171624Y-114820202D01*
X103154667Y-114819369D01*
X103137873Y-114816878D01*
X103121405Y-114812753D01*
X103105420Y-114807033D01*
X103090072Y-114799774D01*
X103075510Y-114791046D01*
X103061874Y-114780933D01*
X103049295Y-114769531D01*
X103037893Y-114756952D01*
X103027780Y-114743316D01*
X103019052Y-114728754D01*
X103011793Y-114713406D01*
X103006073Y-114697421D01*
X103001948Y-114680953D01*
X102999457Y-114664159D01*
X102998624Y-114647202D01*
X102998624Y-114251202D01*
X102999457Y-114234245D01*
X103001948Y-114217451D01*
X103006073Y-114200983D01*
X103011793Y-114184998D01*
X103019052Y-114169650D01*
X103027780Y-114155088D01*
X103037893Y-114141452D01*
X103049295Y-114128873D01*
X103061874Y-114117471D01*
X103075510Y-114107358D01*
X103090072Y-114098630D01*
X103105420Y-114091371D01*
X103121405Y-114085651D01*
X103137873Y-114081526D01*
X103154667Y-114079035D01*
X103171624Y-114078202D01*
X103517624Y-114078202D01*
X103534581Y-114079035D01*
X103534581Y-114079035D01*
G37*
D14*
X103344624Y-114449202D03*
G04 #@! TD*
D13*
G04 #@! TO.C,C3*
G36*
X60504581Y-114079035D02*
X60521375Y-114081526D01*
X60537843Y-114085651D01*
X60553828Y-114091371D01*
X60569176Y-114098630D01*
X60583738Y-114107358D01*
X60597374Y-114117471D01*
X60609953Y-114128873D01*
X60621355Y-114141452D01*
X60631468Y-114155088D01*
X60640196Y-114169650D01*
X60647455Y-114184998D01*
X60653175Y-114200983D01*
X60657300Y-114217451D01*
X60659791Y-114234245D01*
X60660624Y-114251202D01*
X60660624Y-114647202D01*
X60659791Y-114664159D01*
X60657300Y-114680953D01*
X60653175Y-114697421D01*
X60647455Y-114713406D01*
X60640196Y-114728754D01*
X60631468Y-114743316D01*
X60621355Y-114756952D01*
X60609953Y-114769531D01*
X60597374Y-114780933D01*
X60583738Y-114791046D01*
X60569176Y-114799774D01*
X60553828Y-114807033D01*
X60537843Y-114812753D01*
X60521375Y-114816878D01*
X60504581Y-114819369D01*
X60487624Y-114820202D01*
X60141624Y-114820202D01*
X60124667Y-114819369D01*
X60107873Y-114816878D01*
X60091405Y-114812753D01*
X60075420Y-114807033D01*
X60060072Y-114799774D01*
X60045510Y-114791046D01*
X60031874Y-114780933D01*
X60019295Y-114769531D01*
X60007893Y-114756952D01*
X59997780Y-114743316D01*
X59989052Y-114728754D01*
X59981793Y-114713406D01*
X59976073Y-114697421D01*
X59971948Y-114680953D01*
X59969457Y-114664159D01*
X59968624Y-114647202D01*
X59968624Y-114251202D01*
X59969457Y-114234245D01*
X59971948Y-114217451D01*
X59976073Y-114200983D01*
X59981793Y-114184998D01*
X59989052Y-114169650D01*
X59997780Y-114155088D01*
X60007893Y-114141452D01*
X60019295Y-114128873D01*
X60031874Y-114117471D01*
X60045510Y-114107358D01*
X60060072Y-114098630D01*
X60075420Y-114091371D01*
X60091405Y-114085651D01*
X60107873Y-114081526D01*
X60124667Y-114079035D01*
X60141624Y-114078202D01*
X60487624Y-114078202D01*
X60504581Y-114079035D01*
X60504581Y-114079035D01*
G37*
D14*
X60314624Y-114449202D03*
D13*
G36*
X59534581Y-114079035D02*
X59551375Y-114081526D01*
X59567843Y-114085651D01*
X59583828Y-114091371D01*
X59599176Y-114098630D01*
X59613738Y-114107358D01*
X59627374Y-114117471D01*
X59639953Y-114128873D01*
X59651355Y-114141452D01*
X59661468Y-114155088D01*
X59670196Y-114169650D01*
X59677455Y-114184998D01*
X59683175Y-114200983D01*
X59687300Y-114217451D01*
X59689791Y-114234245D01*
X59690624Y-114251202D01*
X59690624Y-114647202D01*
X59689791Y-114664159D01*
X59687300Y-114680953D01*
X59683175Y-114697421D01*
X59677455Y-114713406D01*
X59670196Y-114728754D01*
X59661468Y-114743316D01*
X59651355Y-114756952D01*
X59639953Y-114769531D01*
X59627374Y-114780933D01*
X59613738Y-114791046D01*
X59599176Y-114799774D01*
X59583828Y-114807033D01*
X59567843Y-114812753D01*
X59551375Y-114816878D01*
X59534581Y-114819369D01*
X59517624Y-114820202D01*
X59171624Y-114820202D01*
X59154667Y-114819369D01*
X59137873Y-114816878D01*
X59121405Y-114812753D01*
X59105420Y-114807033D01*
X59090072Y-114799774D01*
X59075510Y-114791046D01*
X59061874Y-114780933D01*
X59049295Y-114769531D01*
X59037893Y-114756952D01*
X59027780Y-114743316D01*
X59019052Y-114728754D01*
X59011793Y-114713406D01*
X59006073Y-114697421D01*
X59001948Y-114680953D01*
X58999457Y-114664159D01*
X58998624Y-114647202D01*
X58998624Y-114251202D01*
X58999457Y-114234245D01*
X59001948Y-114217451D01*
X59006073Y-114200983D01*
X59011793Y-114184998D01*
X59019052Y-114169650D01*
X59027780Y-114155088D01*
X59037893Y-114141452D01*
X59049295Y-114128873D01*
X59061874Y-114117471D01*
X59075510Y-114107358D01*
X59090072Y-114098630D01*
X59105420Y-114091371D01*
X59121405Y-114085651D01*
X59137873Y-114081526D01*
X59154667Y-114079035D01*
X59171624Y-114078202D01*
X59517624Y-114078202D01*
X59534581Y-114079035D01*
X59534581Y-114079035D01*
G37*
D14*
X59344624Y-114449202D03*
G04 #@! TD*
D13*
G04 #@! TO.C,C3*
G36*
X104504581Y-68079035D02*
X104521375Y-68081526D01*
X104537843Y-68085651D01*
X104553828Y-68091371D01*
X104569176Y-68098630D01*
X104583738Y-68107358D01*
X104597374Y-68117471D01*
X104609953Y-68128873D01*
X104621355Y-68141452D01*
X104631468Y-68155088D01*
X104640196Y-68169650D01*
X104647455Y-68184998D01*
X104653175Y-68200983D01*
X104657300Y-68217451D01*
X104659791Y-68234245D01*
X104660624Y-68251202D01*
X104660624Y-68647202D01*
X104659791Y-68664159D01*
X104657300Y-68680953D01*
X104653175Y-68697421D01*
X104647455Y-68713406D01*
X104640196Y-68728754D01*
X104631468Y-68743316D01*
X104621355Y-68756952D01*
X104609953Y-68769531D01*
X104597374Y-68780933D01*
X104583738Y-68791046D01*
X104569176Y-68799774D01*
X104553828Y-68807033D01*
X104537843Y-68812753D01*
X104521375Y-68816878D01*
X104504581Y-68819369D01*
X104487624Y-68820202D01*
X104141624Y-68820202D01*
X104124667Y-68819369D01*
X104107873Y-68816878D01*
X104091405Y-68812753D01*
X104075420Y-68807033D01*
X104060072Y-68799774D01*
X104045510Y-68791046D01*
X104031874Y-68780933D01*
X104019295Y-68769531D01*
X104007893Y-68756952D01*
X103997780Y-68743316D01*
X103989052Y-68728754D01*
X103981793Y-68713406D01*
X103976073Y-68697421D01*
X103971948Y-68680953D01*
X103969457Y-68664159D01*
X103968624Y-68647202D01*
X103968624Y-68251202D01*
X103969457Y-68234245D01*
X103971948Y-68217451D01*
X103976073Y-68200983D01*
X103981793Y-68184998D01*
X103989052Y-68169650D01*
X103997780Y-68155088D01*
X104007893Y-68141452D01*
X104019295Y-68128873D01*
X104031874Y-68117471D01*
X104045510Y-68107358D01*
X104060072Y-68098630D01*
X104075420Y-68091371D01*
X104091405Y-68085651D01*
X104107873Y-68081526D01*
X104124667Y-68079035D01*
X104141624Y-68078202D01*
X104487624Y-68078202D01*
X104504581Y-68079035D01*
X104504581Y-68079035D01*
G37*
D14*
X104314624Y-68449202D03*
D13*
G36*
X103534581Y-68079035D02*
X103551375Y-68081526D01*
X103567843Y-68085651D01*
X103583828Y-68091371D01*
X103599176Y-68098630D01*
X103613738Y-68107358D01*
X103627374Y-68117471D01*
X103639953Y-68128873D01*
X103651355Y-68141452D01*
X103661468Y-68155088D01*
X103670196Y-68169650D01*
X103677455Y-68184998D01*
X103683175Y-68200983D01*
X103687300Y-68217451D01*
X103689791Y-68234245D01*
X103690624Y-68251202D01*
X103690624Y-68647202D01*
X103689791Y-68664159D01*
X103687300Y-68680953D01*
X103683175Y-68697421D01*
X103677455Y-68713406D01*
X103670196Y-68728754D01*
X103661468Y-68743316D01*
X103651355Y-68756952D01*
X103639953Y-68769531D01*
X103627374Y-68780933D01*
X103613738Y-68791046D01*
X103599176Y-68799774D01*
X103583828Y-68807033D01*
X103567843Y-68812753D01*
X103551375Y-68816878D01*
X103534581Y-68819369D01*
X103517624Y-68820202D01*
X103171624Y-68820202D01*
X103154667Y-68819369D01*
X103137873Y-68816878D01*
X103121405Y-68812753D01*
X103105420Y-68807033D01*
X103090072Y-68799774D01*
X103075510Y-68791046D01*
X103061874Y-68780933D01*
X103049295Y-68769531D01*
X103037893Y-68756952D01*
X103027780Y-68743316D01*
X103019052Y-68728754D01*
X103011793Y-68713406D01*
X103006073Y-68697421D01*
X103001948Y-68680953D01*
X102999457Y-68664159D01*
X102998624Y-68647202D01*
X102998624Y-68251202D01*
X102999457Y-68234245D01*
X103001948Y-68217451D01*
X103006073Y-68200983D01*
X103011793Y-68184998D01*
X103019052Y-68169650D01*
X103027780Y-68155088D01*
X103037893Y-68141452D01*
X103049295Y-68128873D01*
X103061874Y-68117471D01*
X103075510Y-68107358D01*
X103090072Y-68098630D01*
X103105420Y-68091371D01*
X103121405Y-68085651D01*
X103137873Y-68081526D01*
X103154667Y-68079035D01*
X103171624Y-68078202D01*
X103517624Y-68078202D01*
X103534581Y-68079035D01*
X103534581Y-68079035D01*
G37*
D14*
X103344624Y-68449202D03*
G04 #@! TD*
D17*
G04 #@! TO.C,J7*
X136790000Y-105260000D03*
X134250000Y-105260000D03*
X131710000Y-105260000D03*
X129170000Y-105260000D03*
X126630000Y-105260000D03*
X124090000Y-105260000D03*
X121550000Y-105260000D03*
X119010000Y-105260000D03*
D18*
X116470000Y-105260000D03*
G04 #@! TD*
D17*
G04 #@! TO.C,J7*
X92790000Y-105260000D03*
X90250000Y-105260000D03*
X87710000Y-105260000D03*
X85170000Y-105260000D03*
X82630000Y-105260000D03*
X80090000Y-105260000D03*
X77550000Y-105260000D03*
X75010000Y-105260000D03*
D18*
X72470000Y-105260000D03*
G04 #@! TD*
D17*
G04 #@! TO.C,J7*
X136790000Y-59260000D03*
X134250000Y-59260000D03*
X131710000Y-59260000D03*
X129170000Y-59260000D03*
X126630000Y-59260000D03*
X124090000Y-59260000D03*
X121550000Y-59260000D03*
X119010000Y-59260000D03*
D18*
X116470000Y-59260000D03*
G04 #@! TD*
D15*
G04 #@! TO.C,J1*
X67644000Y-42940500D03*
X68914000Y-42940500D03*
X70184000Y-42940500D03*
X71454000Y-42940500D03*
X72724000Y-42940500D03*
X67644000Y-47131500D03*
X68914000Y-47131500D03*
X70184000Y-47131500D03*
X72724000Y-47131500D03*
X71454000Y-47131500D03*
G04 #@! TD*
D26*
G04 #@! TO.C,SW1*
X93425000Y-51640000D03*
X88345000Y-51640000D03*
X93425000Y-44020000D03*
X88345000Y-44020000D03*
G04 #@! TD*
D13*
G04 #@! TO.C,C1*
G36*
X66854581Y-68079035D02*
X66871375Y-68081526D01*
X66887843Y-68085651D01*
X66903828Y-68091371D01*
X66919176Y-68098630D01*
X66933738Y-68107358D01*
X66947374Y-68117471D01*
X66959953Y-68128873D01*
X66971355Y-68141452D01*
X66981468Y-68155088D01*
X66990196Y-68169650D01*
X66997455Y-68184998D01*
X67003175Y-68200983D01*
X67007300Y-68217451D01*
X67009791Y-68234245D01*
X67010624Y-68251202D01*
X67010624Y-68647202D01*
X67009791Y-68664159D01*
X67007300Y-68680953D01*
X67003175Y-68697421D01*
X66997455Y-68713406D01*
X66990196Y-68728754D01*
X66981468Y-68743316D01*
X66971355Y-68756952D01*
X66959953Y-68769531D01*
X66947374Y-68780933D01*
X66933738Y-68791046D01*
X66919176Y-68799774D01*
X66903828Y-68807033D01*
X66887843Y-68812753D01*
X66871375Y-68816878D01*
X66854581Y-68819369D01*
X66837624Y-68820202D01*
X66491624Y-68820202D01*
X66474667Y-68819369D01*
X66457873Y-68816878D01*
X66441405Y-68812753D01*
X66425420Y-68807033D01*
X66410072Y-68799774D01*
X66395510Y-68791046D01*
X66381874Y-68780933D01*
X66369295Y-68769531D01*
X66357893Y-68756952D01*
X66347780Y-68743316D01*
X66339052Y-68728754D01*
X66331793Y-68713406D01*
X66326073Y-68697421D01*
X66321948Y-68680953D01*
X66319457Y-68664159D01*
X66318624Y-68647202D01*
X66318624Y-68251202D01*
X66319457Y-68234245D01*
X66321948Y-68217451D01*
X66326073Y-68200983D01*
X66331793Y-68184998D01*
X66339052Y-68169650D01*
X66347780Y-68155088D01*
X66357893Y-68141452D01*
X66369295Y-68128873D01*
X66381874Y-68117471D01*
X66395510Y-68107358D01*
X66410072Y-68098630D01*
X66425420Y-68091371D01*
X66441405Y-68085651D01*
X66457873Y-68081526D01*
X66474667Y-68079035D01*
X66491624Y-68078202D01*
X66837624Y-68078202D01*
X66854581Y-68079035D01*
X66854581Y-68079035D01*
G37*
D14*
X66664624Y-68449202D03*
D13*
G36*
X65884581Y-68079035D02*
X65901375Y-68081526D01*
X65917843Y-68085651D01*
X65933828Y-68091371D01*
X65949176Y-68098630D01*
X65963738Y-68107358D01*
X65977374Y-68117471D01*
X65989953Y-68128873D01*
X66001355Y-68141452D01*
X66011468Y-68155088D01*
X66020196Y-68169650D01*
X66027455Y-68184998D01*
X66033175Y-68200983D01*
X66037300Y-68217451D01*
X66039791Y-68234245D01*
X66040624Y-68251202D01*
X66040624Y-68647202D01*
X66039791Y-68664159D01*
X66037300Y-68680953D01*
X66033175Y-68697421D01*
X66027455Y-68713406D01*
X66020196Y-68728754D01*
X66011468Y-68743316D01*
X66001355Y-68756952D01*
X65989953Y-68769531D01*
X65977374Y-68780933D01*
X65963738Y-68791046D01*
X65949176Y-68799774D01*
X65933828Y-68807033D01*
X65917843Y-68812753D01*
X65901375Y-68816878D01*
X65884581Y-68819369D01*
X65867624Y-68820202D01*
X65521624Y-68820202D01*
X65504667Y-68819369D01*
X65487873Y-68816878D01*
X65471405Y-68812753D01*
X65455420Y-68807033D01*
X65440072Y-68799774D01*
X65425510Y-68791046D01*
X65411874Y-68780933D01*
X65399295Y-68769531D01*
X65387893Y-68756952D01*
X65377780Y-68743316D01*
X65369052Y-68728754D01*
X65361793Y-68713406D01*
X65356073Y-68697421D01*
X65351948Y-68680953D01*
X65349457Y-68664159D01*
X65348624Y-68647202D01*
X65348624Y-68251202D01*
X65349457Y-68234245D01*
X65351948Y-68217451D01*
X65356073Y-68200983D01*
X65361793Y-68184998D01*
X65369052Y-68169650D01*
X65377780Y-68155088D01*
X65387893Y-68141452D01*
X65399295Y-68128873D01*
X65411874Y-68117471D01*
X65425510Y-68107358D01*
X65440072Y-68098630D01*
X65455420Y-68091371D01*
X65471405Y-68085651D01*
X65487873Y-68081526D01*
X65504667Y-68079035D01*
X65521624Y-68078202D01*
X65867624Y-68078202D01*
X65884581Y-68079035D01*
X65884581Y-68079035D01*
G37*
D14*
X65694624Y-68449202D03*
G04 #@! TD*
D13*
G04 #@! TO.C,C2*
G36*
X64314581Y-68079035D02*
X64331375Y-68081526D01*
X64347843Y-68085651D01*
X64363828Y-68091371D01*
X64379176Y-68098630D01*
X64393738Y-68107358D01*
X64407374Y-68117471D01*
X64419953Y-68128873D01*
X64431355Y-68141452D01*
X64441468Y-68155088D01*
X64450196Y-68169650D01*
X64457455Y-68184998D01*
X64463175Y-68200983D01*
X64467300Y-68217451D01*
X64469791Y-68234245D01*
X64470624Y-68251202D01*
X64470624Y-68647202D01*
X64469791Y-68664159D01*
X64467300Y-68680953D01*
X64463175Y-68697421D01*
X64457455Y-68713406D01*
X64450196Y-68728754D01*
X64441468Y-68743316D01*
X64431355Y-68756952D01*
X64419953Y-68769531D01*
X64407374Y-68780933D01*
X64393738Y-68791046D01*
X64379176Y-68799774D01*
X64363828Y-68807033D01*
X64347843Y-68812753D01*
X64331375Y-68816878D01*
X64314581Y-68819369D01*
X64297624Y-68820202D01*
X63951624Y-68820202D01*
X63934667Y-68819369D01*
X63917873Y-68816878D01*
X63901405Y-68812753D01*
X63885420Y-68807033D01*
X63870072Y-68799774D01*
X63855510Y-68791046D01*
X63841874Y-68780933D01*
X63829295Y-68769531D01*
X63817893Y-68756952D01*
X63807780Y-68743316D01*
X63799052Y-68728754D01*
X63791793Y-68713406D01*
X63786073Y-68697421D01*
X63781948Y-68680953D01*
X63779457Y-68664159D01*
X63778624Y-68647202D01*
X63778624Y-68251202D01*
X63779457Y-68234245D01*
X63781948Y-68217451D01*
X63786073Y-68200983D01*
X63791793Y-68184998D01*
X63799052Y-68169650D01*
X63807780Y-68155088D01*
X63817893Y-68141452D01*
X63829295Y-68128873D01*
X63841874Y-68117471D01*
X63855510Y-68107358D01*
X63870072Y-68098630D01*
X63885420Y-68091371D01*
X63901405Y-68085651D01*
X63917873Y-68081526D01*
X63934667Y-68079035D01*
X63951624Y-68078202D01*
X64297624Y-68078202D01*
X64314581Y-68079035D01*
X64314581Y-68079035D01*
G37*
D14*
X64124624Y-68449202D03*
D13*
G36*
X63344581Y-68079035D02*
X63361375Y-68081526D01*
X63377843Y-68085651D01*
X63393828Y-68091371D01*
X63409176Y-68098630D01*
X63423738Y-68107358D01*
X63437374Y-68117471D01*
X63449953Y-68128873D01*
X63461355Y-68141452D01*
X63471468Y-68155088D01*
X63480196Y-68169650D01*
X63487455Y-68184998D01*
X63493175Y-68200983D01*
X63497300Y-68217451D01*
X63499791Y-68234245D01*
X63500624Y-68251202D01*
X63500624Y-68647202D01*
X63499791Y-68664159D01*
X63497300Y-68680953D01*
X63493175Y-68697421D01*
X63487455Y-68713406D01*
X63480196Y-68728754D01*
X63471468Y-68743316D01*
X63461355Y-68756952D01*
X63449953Y-68769531D01*
X63437374Y-68780933D01*
X63423738Y-68791046D01*
X63409176Y-68799774D01*
X63393828Y-68807033D01*
X63377843Y-68812753D01*
X63361375Y-68816878D01*
X63344581Y-68819369D01*
X63327624Y-68820202D01*
X62981624Y-68820202D01*
X62964667Y-68819369D01*
X62947873Y-68816878D01*
X62931405Y-68812753D01*
X62915420Y-68807033D01*
X62900072Y-68799774D01*
X62885510Y-68791046D01*
X62871874Y-68780933D01*
X62859295Y-68769531D01*
X62847893Y-68756952D01*
X62837780Y-68743316D01*
X62829052Y-68728754D01*
X62821793Y-68713406D01*
X62816073Y-68697421D01*
X62811948Y-68680953D01*
X62809457Y-68664159D01*
X62808624Y-68647202D01*
X62808624Y-68251202D01*
X62809457Y-68234245D01*
X62811948Y-68217451D01*
X62816073Y-68200983D01*
X62821793Y-68184998D01*
X62829052Y-68169650D01*
X62837780Y-68155088D01*
X62847893Y-68141452D01*
X62859295Y-68128873D01*
X62871874Y-68117471D01*
X62885510Y-68107358D01*
X62900072Y-68098630D01*
X62915420Y-68091371D01*
X62931405Y-68085651D01*
X62947873Y-68081526D01*
X62964667Y-68079035D01*
X62981624Y-68078202D01*
X63327624Y-68078202D01*
X63344581Y-68079035D01*
X63344581Y-68079035D01*
G37*
D14*
X63154624Y-68449202D03*
G04 #@! TD*
D13*
G04 #@! TO.C,C3*
G36*
X59534581Y-68079035D02*
X59551375Y-68081526D01*
X59567843Y-68085651D01*
X59583828Y-68091371D01*
X59599176Y-68098630D01*
X59613738Y-68107358D01*
X59627374Y-68117471D01*
X59639953Y-68128873D01*
X59651355Y-68141452D01*
X59661468Y-68155088D01*
X59670196Y-68169650D01*
X59677455Y-68184998D01*
X59683175Y-68200983D01*
X59687300Y-68217451D01*
X59689791Y-68234245D01*
X59690624Y-68251202D01*
X59690624Y-68647202D01*
X59689791Y-68664159D01*
X59687300Y-68680953D01*
X59683175Y-68697421D01*
X59677455Y-68713406D01*
X59670196Y-68728754D01*
X59661468Y-68743316D01*
X59651355Y-68756952D01*
X59639953Y-68769531D01*
X59627374Y-68780933D01*
X59613738Y-68791046D01*
X59599176Y-68799774D01*
X59583828Y-68807033D01*
X59567843Y-68812753D01*
X59551375Y-68816878D01*
X59534581Y-68819369D01*
X59517624Y-68820202D01*
X59171624Y-68820202D01*
X59154667Y-68819369D01*
X59137873Y-68816878D01*
X59121405Y-68812753D01*
X59105420Y-68807033D01*
X59090072Y-68799774D01*
X59075510Y-68791046D01*
X59061874Y-68780933D01*
X59049295Y-68769531D01*
X59037893Y-68756952D01*
X59027780Y-68743316D01*
X59019052Y-68728754D01*
X59011793Y-68713406D01*
X59006073Y-68697421D01*
X59001948Y-68680953D01*
X58999457Y-68664159D01*
X58998624Y-68647202D01*
X58998624Y-68251202D01*
X58999457Y-68234245D01*
X59001948Y-68217451D01*
X59006073Y-68200983D01*
X59011793Y-68184998D01*
X59019052Y-68169650D01*
X59027780Y-68155088D01*
X59037893Y-68141452D01*
X59049295Y-68128873D01*
X59061874Y-68117471D01*
X59075510Y-68107358D01*
X59090072Y-68098630D01*
X59105420Y-68091371D01*
X59121405Y-68085651D01*
X59137873Y-68081526D01*
X59154667Y-68079035D01*
X59171624Y-68078202D01*
X59517624Y-68078202D01*
X59534581Y-68079035D01*
X59534581Y-68079035D01*
G37*
D14*
X59344624Y-68449202D03*
D13*
G36*
X60504581Y-68079035D02*
X60521375Y-68081526D01*
X60537843Y-68085651D01*
X60553828Y-68091371D01*
X60569176Y-68098630D01*
X60583738Y-68107358D01*
X60597374Y-68117471D01*
X60609953Y-68128873D01*
X60621355Y-68141452D01*
X60631468Y-68155088D01*
X60640196Y-68169650D01*
X60647455Y-68184998D01*
X60653175Y-68200983D01*
X60657300Y-68217451D01*
X60659791Y-68234245D01*
X60660624Y-68251202D01*
X60660624Y-68647202D01*
X60659791Y-68664159D01*
X60657300Y-68680953D01*
X60653175Y-68697421D01*
X60647455Y-68713406D01*
X60640196Y-68728754D01*
X60631468Y-68743316D01*
X60621355Y-68756952D01*
X60609953Y-68769531D01*
X60597374Y-68780933D01*
X60583738Y-68791046D01*
X60569176Y-68799774D01*
X60553828Y-68807033D01*
X60537843Y-68812753D01*
X60521375Y-68816878D01*
X60504581Y-68819369D01*
X60487624Y-68820202D01*
X60141624Y-68820202D01*
X60124667Y-68819369D01*
X60107873Y-68816878D01*
X60091405Y-68812753D01*
X60075420Y-68807033D01*
X60060072Y-68799774D01*
X60045510Y-68791046D01*
X60031874Y-68780933D01*
X60019295Y-68769531D01*
X60007893Y-68756952D01*
X59997780Y-68743316D01*
X59989052Y-68728754D01*
X59981793Y-68713406D01*
X59976073Y-68697421D01*
X59971948Y-68680953D01*
X59969457Y-68664159D01*
X59968624Y-68647202D01*
X59968624Y-68251202D01*
X59969457Y-68234245D01*
X59971948Y-68217451D01*
X59976073Y-68200983D01*
X59981793Y-68184998D01*
X59989052Y-68169650D01*
X59997780Y-68155088D01*
X60007893Y-68141452D01*
X60019295Y-68128873D01*
X60031874Y-68117471D01*
X60045510Y-68107358D01*
X60060072Y-68098630D01*
X60075420Y-68091371D01*
X60091405Y-68085651D01*
X60107873Y-68081526D01*
X60124667Y-68079035D01*
X60141624Y-68078202D01*
X60487624Y-68078202D01*
X60504581Y-68079035D01*
X60504581Y-68079035D01*
G37*
D14*
X60314624Y-68449202D03*
G04 #@! TD*
D13*
G04 #@! TO.C,C4*
G36*
X56994581Y-68079035D02*
X57011375Y-68081526D01*
X57027843Y-68085651D01*
X57043828Y-68091371D01*
X57059176Y-68098630D01*
X57073738Y-68107358D01*
X57087374Y-68117471D01*
X57099953Y-68128873D01*
X57111355Y-68141452D01*
X57121468Y-68155088D01*
X57130196Y-68169650D01*
X57137455Y-68184998D01*
X57143175Y-68200983D01*
X57147300Y-68217451D01*
X57149791Y-68234245D01*
X57150624Y-68251202D01*
X57150624Y-68647202D01*
X57149791Y-68664159D01*
X57147300Y-68680953D01*
X57143175Y-68697421D01*
X57137455Y-68713406D01*
X57130196Y-68728754D01*
X57121468Y-68743316D01*
X57111355Y-68756952D01*
X57099953Y-68769531D01*
X57087374Y-68780933D01*
X57073738Y-68791046D01*
X57059176Y-68799774D01*
X57043828Y-68807033D01*
X57027843Y-68812753D01*
X57011375Y-68816878D01*
X56994581Y-68819369D01*
X56977624Y-68820202D01*
X56631624Y-68820202D01*
X56614667Y-68819369D01*
X56597873Y-68816878D01*
X56581405Y-68812753D01*
X56565420Y-68807033D01*
X56550072Y-68799774D01*
X56535510Y-68791046D01*
X56521874Y-68780933D01*
X56509295Y-68769531D01*
X56497893Y-68756952D01*
X56487780Y-68743316D01*
X56479052Y-68728754D01*
X56471793Y-68713406D01*
X56466073Y-68697421D01*
X56461948Y-68680953D01*
X56459457Y-68664159D01*
X56458624Y-68647202D01*
X56458624Y-68251202D01*
X56459457Y-68234245D01*
X56461948Y-68217451D01*
X56466073Y-68200983D01*
X56471793Y-68184998D01*
X56479052Y-68169650D01*
X56487780Y-68155088D01*
X56497893Y-68141452D01*
X56509295Y-68128873D01*
X56521874Y-68117471D01*
X56535510Y-68107358D01*
X56550072Y-68098630D01*
X56565420Y-68091371D01*
X56581405Y-68085651D01*
X56597873Y-68081526D01*
X56614667Y-68079035D01*
X56631624Y-68078202D01*
X56977624Y-68078202D01*
X56994581Y-68079035D01*
X56994581Y-68079035D01*
G37*
D14*
X56804624Y-68449202D03*
D13*
G36*
X57964581Y-68079035D02*
X57981375Y-68081526D01*
X57997843Y-68085651D01*
X58013828Y-68091371D01*
X58029176Y-68098630D01*
X58043738Y-68107358D01*
X58057374Y-68117471D01*
X58069953Y-68128873D01*
X58081355Y-68141452D01*
X58091468Y-68155088D01*
X58100196Y-68169650D01*
X58107455Y-68184998D01*
X58113175Y-68200983D01*
X58117300Y-68217451D01*
X58119791Y-68234245D01*
X58120624Y-68251202D01*
X58120624Y-68647202D01*
X58119791Y-68664159D01*
X58117300Y-68680953D01*
X58113175Y-68697421D01*
X58107455Y-68713406D01*
X58100196Y-68728754D01*
X58091468Y-68743316D01*
X58081355Y-68756952D01*
X58069953Y-68769531D01*
X58057374Y-68780933D01*
X58043738Y-68791046D01*
X58029176Y-68799774D01*
X58013828Y-68807033D01*
X57997843Y-68812753D01*
X57981375Y-68816878D01*
X57964581Y-68819369D01*
X57947624Y-68820202D01*
X57601624Y-68820202D01*
X57584667Y-68819369D01*
X57567873Y-68816878D01*
X57551405Y-68812753D01*
X57535420Y-68807033D01*
X57520072Y-68799774D01*
X57505510Y-68791046D01*
X57491874Y-68780933D01*
X57479295Y-68769531D01*
X57467893Y-68756952D01*
X57457780Y-68743316D01*
X57449052Y-68728754D01*
X57441793Y-68713406D01*
X57436073Y-68697421D01*
X57431948Y-68680953D01*
X57429457Y-68664159D01*
X57428624Y-68647202D01*
X57428624Y-68251202D01*
X57429457Y-68234245D01*
X57431948Y-68217451D01*
X57436073Y-68200983D01*
X57441793Y-68184998D01*
X57449052Y-68169650D01*
X57457780Y-68155088D01*
X57467893Y-68141452D01*
X57479295Y-68128873D01*
X57491874Y-68117471D01*
X57505510Y-68107358D01*
X57520072Y-68098630D01*
X57535420Y-68091371D01*
X57551405Y-68085651D01*
X57567873Y-68081526D01*
X57584667Y-68079035D01*
X57601624Y-68078202D01*
X57947624Y-68078202D01*
X57964581Y-68079035D01*
X57964581Y-68079035D01*
G37*
D14*
X57774624Y-68449202D03*
G04 #@! TD*
D17*
G04 #@! TO.C,J2*
X62056000Y-77548000D03*
D18*
X59516000Y-77548000D03*
G04 #@! TD*
G04 #@! TO.C,J3*
X61548000Y-62816000D03*
D17*
X59008000Y-62816000D03*
X61548000Y-60276000D03*
X59008000Y-60276000D03*
X61548000Y-57736000D03*
X59008000Y-57736000D03*
X61548000Y-55196000D03*
X59008000Y-55196000D03*
G04 #@! TD*
D25*
G04 #@! TO.C,J4*
X68376000Y-76596000D03*
X69026000Y-76596000D03*
X69676000Y-76596000D03*
X70326000Y-76596000D03*
X70976000Y-76596000D03*
D24*
X67213500Y-76956000D03*
X72138500Y-76956000D03*
D23*
X66766000Y-79256000D03*
X72586000Y-79256000D03*
D22*
X68836000Y-79256000D03*
X70516000Y-79256000D03*
G04 #@! TD*
D18*
G04 #@! TO.C,J5*
X90885000Y-40210000D03*
D17*
X93425000Y-40210000D03*
G04 #@! TD*
D18*
G04 #@! TO.C,J6*
X78820000Y-52656000D03*
D17*
X81360000Y-52656000D03*
X83900000Y-52656000D03*
G04 #@! TD*
D18*
G04 #@! TO.C,J7*
X72470000Y-59260000D03*
D17*
X75010000Y-59260000D03*
X77550000Y-59260000D03*
X80090000Y-59260000D03*
X82630000Y-59260000D03*
X85170000Y-59260000D03*
X87710000Y-59260000D03*
X90250000Y-59260000D03*
X92790000Y-59260000D03*
G04 #@! TD*
G04 #@! TO.C,J8*
X72470000Y-71960000D03*
X69930000Y-71960000D03*
X72470000Y-69420000D03*
X69930000Y-69420000D03*
X72470000Y-66880000D03*
X69930000Y-66880000D03*
X72470000Y-64340000D03*
D18*
X69930000Y-64340000D03*
G04 #@! TD*
D21*
G04 #@! TO.C,J9*
X80090000Y-69928000D03*
X82590000Y-69928000D03*
X84590000Y-69928000D03*
X87090000Y-69928000D03*
X87590000Y-68428000D03*
X85590000Y-68428000D03*
X83590000Y-68428000D03*
X81590000Y-68428000D03*
X79590000Y-68428000D03*
D20*
X89990000Y-69178000D03*
X77190000Y-69178000D03*
D19*
X89990000Y-77678000D03*
X77190000Y-77678000D03*
G04 #@! TD*
D13*
G04 #@! TO.C,R1*
G36*
X87289957Y-41619833D02*
X87306751Y-41622324D01*
X87323219Y-41626449D01*
X87339204Y-41632169D01*
X87354552Y-41639428D01*
X87369114Y-41648156D01*
X87382750Y-41658269D01*
X87395329Y-41669671D01*
X87406731Y-41682250D01*
X87416844Y-41695886D01*
X87425572Y-41710448D01*
X87432831Y-41725796D01*
X87438551Y-41741781D01*
X87442676Y-41758249D01*
X87445167Y-41775043D01*
X87446000Y-41792000D01*
X87446000Y-42138000D01*
X87445167Y-42154957D01*
X87442676Y-42171751D01*
X87438551Y-42188219D01*
X87432831Y-42204204D01*
X87425572Y-42219552D01*
X87416844Y-42234114D01*
X87406731Y-42247750D01*
X87395329Y-42260329D01*
X87382750Y-42271731D01*
X87369114Y-42281844D01*
X87354552Y-42290572D01*
X87339204Y-42297831D01*
X87323219Y-42303551D01*
X87306751Y-42307676D01*
X87289957Y-42310167D01*
X87273000Y-42311000D01*
X86877000Y-42311000D01*
X86860043Y-42310167D01*
X86843249Y-42307676D01*
X86826781Y-42303551D01*
X86810796Y-42297831D01*
X86795448Y-42290572D01*
X86780886Y-42281844D01*
X86767250Y-42271731D01*
X86754671Y-42260329D01*
X86743269Y-42247750D01*
X86733156Y-42234114D01*
X86724428Y-42219552D01*
X86717169Y-42204204D01*
X86711449Y-42188219D01*
X86707324Y-42171751D01*
X86704833Y-42154957D01*
X86704000Y-42138000D01*
X86704000Y-41792000D01*
X86704833Y-41775043D01*
X86707324Y-41758249D01*
X86711449Y-41741781D01*
X86717169Y-41725796D01*
X86724428Y-41710448D01*
X86733156Y-41695886D01*
X86743269Y-41682250D01*
X86754671Y-41669671D01*
X86767250Y-41658269D01*
X86780886Y-41648156D01*
X86795448Y-41639428D01*
X86810796Y-41632169D01*
X86826781Y-41626449D01*
X86843249Y-41622324D01*
X86860043Y-41619833D01*
X86877000Y-41619000D01*
X87273000Y-41619000D01*
X87289957Y-41619833D01*
X87289957Y-41619833D01*
G37*
D14*
X87075000Y-41965000D03*
D13*
G36*
X87289957Y-40649833D02*
X87306751Y-40652324D01*
X87323219Y-40656449D01*
X87339204Y-40662169D01*
X87354552Y-40669428D01*
X87369114Y-40678156D01*
X87382750Y-40688269D01*
X87395329Y-40699671D01*
X87406731Y-40712250D01*
X87416844Y-40725886D01*
X87425572Y-40740448D01*
X87432831Y-40755796D01*
X87438551Y-40771781D01*
X87442676Y-40788249D01*
X87445167Y-40805043D01*
X87446000Y-40822000D01*
X87446000Y-41168000D01*
X87445167Y-41184957D01*
X87442676Y-41201751D01*
X87438551Y-41218219D01*
X87432831Y-41234204D01*
X87425572Y-41249552D01*
X87416844Y-41264114D01*
X87406731Y-41277750D01*
X87395329Y-41290329D01*
X87382750Y-41301731D01*
X87369114Y-41311844D01*
X87354552Y-41320572D01*
X87339204Y-41327831D01*
X87323219Y-41333551D01*
X87306751Y-41337676D01*
X87289957Y-41340167D01*
X87273000Y-41341000D01*
X86877000Y-41341000D01*
X86860043Y-41340167D01*
X86843249Y-41337676D01*
X86826781Y-41333551D01*
X86810796Y-41327831D01*
X86795448Y-41320572D01*
X86780886Y-41311844D01*
X86767250Y-41301731D01*
X86754671Y-41290329D01*
X86743269Y-41277750D01*
X86733156Y-41264114D01*
X86724428Y-41249552D01*
X86717169Y-41234204D01*
X86711449Y-41218219D01*
X86707324Y-41201751D01*
X86704833Y-41184957D01*
X86704000Y-41168000D01*
X86704000Y-40822000D01*
X86704833Y-40805043D01*
X86707324Y-40788249D01*
X86711449Y-40771781D01*
X86717169Y-40755796D01*
X86724428Y-40740448D01*
X86733156Y-40725886D01*
X86743269Y-40712250D01*
X86754671Y-40699671D01*
X86767250Y-40688269D01*
X86780886Y-40678156D01*
X86795448Y-40669428D01*
X86810796Y-40662169D01*
X86826781Y-40656449D01*
X86843249Y-40652324D01*
X86860043Y-40649833D01*
X86877000Y-40649000D01*
X87273000Y-40649000D01*
X87289957Y-40649833D01*
X87289957Y-40649833D01*
G37*
D14*
X87075000Y-40995000D03*
G04 #@! TD*
D16*
G04 #@! TO.C,U1*
X63959624Y-71159202D03*
X65859624Y-71159202D03*
X65859624Y-73359202D03*
X64909624Y-73359202D03*
X63959624Y-73359202D03*
G04 #@! TD*
G04 #@! TO.C,U2*
X57609624Y-73359202D03*
X58559624Y-73359202D03*
X59509624Y-73359202D03*
X59509624Y-71159202D03*
X57609624Y-71159202D03*
G04 #@! TD*
M02*
