G04 #@! TF.GenerationSoftware,KiCad,Pcbnew,5.0.2-bee76a0~70~ubuntu18.04.1*
G04 #@! TF.CreationDate,2019-02-02T15:45:17-08:00*
G04 #@! TF.ProjectId,programing_adapter,70726f67-7261-46d6-996e-675f61646170,rev?*
G04 #@! TF.SameCoordinates,Original*
G04 #@! TF.FileFunction,Paste,Top*
G04 #@! TF.FilePolarity,Positive*
%FSLAX46Y46*%
G04 Gerber Fmt 4.6, Leading zero omitted, Abs format (unit mm)*
G04 Created by KiCad (PCBNEW 5.0.2-bee76a0~70~ubuntu18.04.1) date Sat 02 Feb 2019 03:45:17 PM PST*
%MOMM*%
%LPD*%
G01*
G04 APERTURE LIST*
%ADD10C,0.020000*%
%ADD11C,0.590000*%
%ADD12R,0.762000X2.921000*%
%ADD13R,0.650000X1.060000*%
%ADD14R,1.175000X1.900000*%
%ADD15R,2.375000X1.900000*%
%ADD16R,1.475000X2.100000*%
%ADD17R,0.450000X1.380000*%
G04 APERTURE END LIST*
D10*
G04 #@! TO.C,R1*
G36*
X131261958Y-86700710D02*
X131276276Y-86702834D01*
X131290317Y-86706351D01*
X131303946Y-86711228D01*
X131317031Y-86717417D01*
X131329447Y-86724858D01*
X131341073Y-86733481D01*
X131351798Y-86743202D01*
X131361519Y-86753927D01*
X131370142Y-86765553D01*
X131377583Y-86777969D01*
X131383772Y-86791054D01*
X131388649Y-86804683D01*
X131392166Y-86818724D01*
X131394290Y-86833042D01*
X131395000Y-86847500D01*
X131395000Y-87142500D01*
X131394290Y-87156958D01*
X131392166Y-87171276D01*
X131388649Y-87185317D01*
X131383772Y-87198946D01*
X131377583Y-87212031D01*
X131370142Y-87224447D01*
X131361519Y-87236073D01*
X131351798Y-87246798D01*
X131341073Y-87256519D01*
X131329447Y-87265142D01*
X131317031Y-87272583D01*
X131303946Y-87278772D01*
X131290317Y-87283649D01*
X131276276Y-87287166D01*
X131261958Y-87289290D01*
X131247500Y-87290000D01*
X130902500Y-87290000D01*
X130888042Y-87289290D01*
X130873724Y-87287166D01*
X130859683Y-87283649D01*
X130846054Y-87278772D01*
X130832969Y-87272583D01*
X130820553Y-87265142D01*
X130808927Y-87256519D01*
X130798202Y-87246798D01*
X130788481Y-87236073D01*
X130779858Y-87224447D01*
X130772417Y-87212031D01*
X130766228Y-87198946D01*
X130761351Y-87185317D01*
X130757834Y-87171276D01*
X130755710Y-87156958D01*
X130755000Y-87142500D01*
X130755000Y-86847500D01*
X130755710Y-86833042D01*
X130757834Y-86818724D01*
X130761351Y-86804683D01*
X130766228Y-86791054D01*
X130772417Y-86777969D01*
X130779858Y-86765553D01*
X130788481Y-86753927D01*
X130798202Y-86743202D01*
X130808927Y-86733481D01*
X130820553Y-86724858D01*
X130832969Y-86717417D01*
X130846054Y-86711228D01*
X130859683Y-86706351D01*
X130873724Y-86702834D01*
X130888042Y-86700710D01*
X130902500Y-86700000D01*
X131247500Y-86700000D01*
X131261958Y-86700710D01*
X131261958Y-86700710D01*
G37*
D11*
X131075000Y-86995000D03*
D10*
G36*
X131261958Y-87670710D02*
X131276276Y-87672834D01*
X131290317Y-87676351D01*
X131303946Y-87681228D01*
X131317031Y-87687417D01*
X131329447Y-87694858D01*
X131341073Y-87703481D01*
X131351798Y-87713202D01*
X131361519Y-87723927D01*
X131370142Y-87735553D01*
X131377583Y-87747969D01*
X131383772Y-87761054D01*
X131388649Y-87774683D01*
X131392166Y-87788724D01*
X131394290Y-87803042D01*
X131395000Y-87817500D01*
X131395000Y-88112500D01*
X131394290Y-88126958D01*
X131392166Y-88141276D01*
X131388649Y-88155317D01*
X131383772Y-88168946D01*
X131377583Y-88182031D01*
X131370142Y-88194447D01*
X131361519Y-88206073D01*
X131351798Y-88216798D01*
X131341073Y-88226519D01*
X131329447Y-88235142D01*
X131317031Y-88242583D01*
X131303946Y-88248772D01*
X131290317Y-88253649D01*
X131276276Y-88257166D01*
X131261958Y-88259290D01*
X131247500Y-88260000D01*
X130902500Y-88260000D01*
X130888042Y-88259290D01*
X130873724Y-88257166D01*
X130859683Y-88253649D01*
X130846054Y-88248772D01*
X130832969Y-88242583D01*
X130820553Y-88235142D01*
X130808927Y-88226519D01*
X130798202Y-88216798D01*
X130788481Y-88206073D01*
X130779858Y-88194447D01*
X130772417Y-88182031D01*
X130766228Y-88168946D01*
X130761351Y-88155317D01*
X130757834Y-88141276D01*
X130755710Y-88126958D01*
X130755000Y-88112500D01*
X130755000Y-87817500D01*
X130755710Y-87803042D01*
X130757834Y-87788724D01*
X130761351Y-87774683D01*
X130766228Y-87761054D01*
X130772417Y-87747969D01*
X130779858Y-87735553D01*
X130788481Y-87723927D01*
X130798202Y-87713202D01*
X130808927Y-87703481D01*
X130820553Y-87694858D01*
X130832969Y-87687417D01*
X130846054Y-87681228D01*
X130859683Y-87676351D01*
X130873724Y-87672834D01*
X130888042Y-87670710D01*
X130902500Y-87670000D01*
X131247500Y-87670000D01*
X131261958Y-87670710D01*
X131261958Y-87670710D01*
G37*
D11*
X131075000Y-87965000D03*
G04 #@! TD*
D10*
G04 #@! TO.C,R1*
G36*
X87261958Y-86700710D02*
X87276276Y-86702834D01*
X87290317Y-86706351D01*
X87303946Y-86711228D01*
X87317031Y-86717417D01*
X87329447Y-86724858D01*
X87341073Y-86733481D01*
X87351798Y-86743202D01*
X87361519Y-86753927D01*
X87370142Y-86765553D01*
X87377583Y-86777969D01*
X87383772Y-86791054D01*
X87388649Y-86804683D01*
X87392166Y-86818724D01*
X87394290Y-86833042D01*
X87395000Y-86847500D01*
X87395000Y-87142500D01*
X87394290Y-87156958D01*
X87392166Y-87171276D01*
X87388649Y-87185317D01*
X87383772Y-87198946D01*
X87377583Y-87212031D01*
X87370142Y-87224447D01*
X87361519Y-87236073D01*
X87351798Y-87246798D01*
X87341073Y-87256519D01*
X87329447Y-87265142D01*
X87317031Y-87272583D01*
X87303946Y-87278772D01*
X87290317Y-87283649D01*
X87276276Y-87287166D01*
X87261958Y-87289290D01*
X87247500Y-87290000D01*
X86902500Y-87290000D01*
X86888042Y-87289290D01*
X86873724Y-87287166D01*
X86859683Y-87283649D01*
X86846054Y-87278772D01*
X86832969Y-87272583D01*
X86820553Y-87265142D01*
X86808927Y-87256519D01*
X86798202Y-87246798D01*
X86788481Y-87236073D01*
X86779858Y-87224447D01*
X86772417Y-87212031D01*
X86766228Y-87198946D01*
X86761351Y-87185317D01*
X86757834Y-87171276D01*
X86755710Y-87156958D01*
X86755000Y-87142500D01*
X86755000Y-86847500D01*
X86755710Y-86833042D01*
X86757834Y-86818724D01*
X86761351Y-86804683D01*
X86766228Y-86791054D01*
X86772417Y-86777969D01*
X86779858Y-86765553D01*
X86788481Y-86753927D01*
X86798202Y-86743202D01*
X86808927Y-86733481D01*
X86820553Y-86724858D01*
X86832969Y-86717417D01*
X86846054Y-86711228D01*
X86859683Y-86706351D01*
X86873724Y-86702834D01*
X86888042Y-86700710D01*
X86902500Y-86700000D01*
X87247500Y-86700000D01*
X87261958Y-86700710D01*
X87261958Y-86700710D01*
G37*
D11*
X87075000Y-86995000D03*
D10*
G36*
X87261958Y-87670710D02*
X87276276Y-87672834D01*
X87290317Y-87676351D01*
X87303946Y-87681228D01*
X87317031Y-87687417D01*
X87329447Y-87694858D01*
X87341073Y-87703481D01*
X87351798Y-87713202D01*
X87361519Y-87723927D01*
X87370142Y-87735553D01*
X87377583Y-87747969D01*
X87383772Y-87761054D01*
X87388649Y-87774683D01*
X87392166Y-87788724D01*
X87394290Y-87803042D01*
X87395000Y-87817500D01*
X87395000Y-88112500D01*
X87394290Y-88126958D01*
X87392166Y-88141276D01*
X87388649Y-88155317D01*
X87383772Y-88168946D01*
X87377583Y-88182031D01*
X87370142Y-88194447D01*
X87361519Y-88206073D01*
X87351798Y-88216798D01*
X87341073Y-88226519D01*
X87329447Y-88235142D01*
X87317031Y-88242583D01*
X87303946Y-88248772D01*
X87290317Y-88253649D01*
X87276276Y-88257166D01*
X87261958Y-88259290D01*
X87247500Y-88260000D01*
X86902500Y-88260000D01*
X86888042Y-88259290D01*
X86873724Y-88257166D01*
X86859683Y-88253649D01*
X86846054Y-88248772D01*
X86832969Y-88242583D01*
X86820553Y-88235142D01*
X86808927Y-88226519D01*
X86798202Y-88216798D01*
X86788481Y-88206073D01*
X86779858Y-88194447D01*
X86772417Y-88182031D01*
X86766228Y-88168946D01*
X86761351Y-88155317D01*
X86757834Y-88141276D01*
X86755710Y-88126958D01*
X86755000Y-88112500D01*
X86755000Y-87817500D01*
X86755710Y-87803042D01*
X86757834Y-87788724D01*
X86761351Y-87774683D01*
X86766228Y-87761054D01*
X86772417Y-87747969D01*
X86779858Y-87735553D01*
X86788481Y-87723927D01*
X86798202Y-87713202D01*
X86808927Y-87703481D01*
X86820553Y-87694858D01*
X86832969Y-87687417D01*
X86846054Y-87681228D01*
X86859683Y-87676351D01*
X86873724Y-87672834D01*
X86888042Y-87670710D01*
X86902500Y-87670000D01*
X87247500Y-87670000D01*
X87261958Y-87670710D01*
X87261958Y-87670710D01*
G37*
D11*
X87075000Y-87965000D03*
G04 #@! TD*
D10*
G04 #@! TO.C,R1*
G36*
X131261958Y-40700710D02*
X131276276Y-40702834D01*
X131290317Y-40706351D01*
X131303946Y-40711228D01*
X131317031Y-40717417D01*
X131329447Y-40724858D01*
X131341073Y-40733481D01*
X131351798Y-40743202D01*
X131361519Y-40753927D01*
X131370142Y-40765553D01*
X131377583Y-40777969D01*
X131383772Y-40791054D01*
X131388649Y-40804683D01*
X131392166Y-40818724D01*
X131394290Y-40833042D01*
X131395000Y-40847500D01*
X131395000Y-41142500D01*
X131394290Y-41156958D01*
X131392166Y-41171276D01*
X131388649Y-41185317D01*
X131383772Y-41198946D01*
X131377583Y-41212031D01*
X131370142Y-41224447D01*
X131361519Y-41236073D01*
X131351798Y-41246798D01*
X131341073Y-41256519D01*
X131329447Y-41265142D01*
X131317031Y-41272583D01*
X131303946Y-41278772D01*
X131290317Y-41283649D01*
X131276276Y-41287166D01*
X131261958Y-41289290D01*
X131247500Y-41290000D01*
X130902500Y-41290000D01*
X130888042Y-41289290D01*
X130873724Y-41287166D01*
X130859683Y-41283649D01*
X130846054Y-41278772D01*
X130832969Y-41272583D01*
X130820553Y-41265142D01*
X130808927Y-41256519D01*
X130798202Y-41246798D01*
X130788481Y-41236073D01*
X130779858Y-41224447D01*
X130772417Y-41212031D01*
X130766228Y-41198946D01*
X130761351Y-41185317D01*
X130757834Y-41171276D01*
X130755710Y-41156958D01*
X130755000Y-41142500D01*
X130755000Y-40847500D01*
X130755710Y-40833042D01*
X130757834Y-40818724D01*
X130761351Y-40804683D01*
X130766228Y-40791054D01*
X130772417Y-40777969D01*
X130779858Y-40765553D01*
X130788481Y-40753927D01*
X130798202Y-40743202D01*
X130808927Y-40733481D01*
X130820553Y-40724858D01*
X130832969Y-40717417D01*
X130846054Y-40711228D01*
X130859683Y-40706351D01*
X130873724Y-40702834D01*
X130888042Y-40700710D01*
X130902500Y-40700000D01*
X131247500Y-40700000D01*
X131261958Y-40700710D01*
X131261958Y-40700710D01*
G37*
D11*
X131075000Y-40995000D03*
D10*
G36*
X131261958Y-41670710D02*
X131276276Y-41672834D01*
X131290317Y-41676351D01*
X131303946Y-41681228D01*
X131317031Y-41687417D01*
X131329447Y-41694858D01*
X131341073Y-41703481D01*
X131351798Y-41713202D01*
X131361519Y-41723927D01*
X131370142Y-41735553D01*
X131377583Y-41747969D01*
X131383772Y-41761054D01*
X131388649Y-41774683D01*
X131392166Y-41788724D01*
X131394290Y-41803042D01*
X131395000Y-41817500D01*
X131395000Y-42112500D01*
X131394290Y-42126958D01*
X131392166Y-42141276D01*
X131388649Y-42155317D01*
X131383772Y-42168946D01*
X131377583Y-42182031D01*
X131370142Y-42194447D01*
X131361519Y-42206073D01*
X131351798Y-42216798D01*
X131341073Y-42226519D01*
X131329447Y-42235142D01*
X131317031Y-42242583D01*
X131303946Y-42248772D01*
X131290317Y-42253649D01*
X131276276Y-42257166D01*
X131261958Y-42259290D01*
X131247500Y-42260000D01*
X130902500Y-42260000D01*
X130888042Y-42259290D01*
X130873724Y-42257166D01*
X130859683Y-42253649D01*
X130846054Y-42248772D01*
X130832969Y-42242583D01*
X130820553Y-42235142D01*
X130808927Y-42226519D01*
X130798202Y-42216798D01*
X130788481Y-42206073D01*
X130779858Y-42194447D01*
X130772417Y-42182031D01*
X130766228Y-42168946D01*
X130761351Y-42155317D01*
X130757834Y-42141276D01*
X130755710Y-42126958D01*
X130755000Y-42112500D01*
X130755000Y-41817500D01*
X130755710Y-41803042D01*
X130757834Y-41788724D01*
X130761351Y-41774683D01*
X130766228Y-41761054D01*
X130772417Y-41747969D01*
X130779858Y-41735553D01*
X130788481Y-41723927D01*
X130798202Y-41713202D01*
X130808927Y-41703481D01*
X130820553Y-41694858D01*
X130832969Y-41687417D01*
X130846054Y-41681228D01*
X130859683Y-41676351D01*
X130873724Y-41672834D01*
X130888042Y-41670710D01*
X130902500Y-41670000D01*
X131247500Y-41670000D01*
X131261958Y-41670710D01*
X131261958Y-41670710D01*
G37*
D11*
X131075000Y-41965000D03*
G04 #@! TD*
D12*
G04 #@! TO.C,J1*
X115454000Y-93131500D03*
X116724000Y-93131500D03*
X114184000Y-93131500D03*
X112914000Y-93131500D03*
X111644000Y-93131500D03*
X116724000Y-88940500D03*
X115454000Y-88940500D03*
X114184000Y-88940500D03*
X112914000Y-88940500D03*
X111644000Y-88940500D03*
G04 #@! TD*
G04 #@! TO.C,J1*
X71454000Y-93131500D03*
X72724000Y-93131500D03*
X70184000Y-93131500D03*
X68914000Y-93131500D03*
X67644000Y-93131500D03*
X72724000Y-88940500D03*
X71454000Y-88940500D03*
X70184000Y-88940500D03*
X68914000Y-88940500D03*
X67644000Y-88940500D03*
G04 #@! TD*
G04 #@! TO.C,J1*
X115454000Y-47131500D03*
X116724000Y-47131500D03*
X114184000Y-47131500D03*
X112914000Y-47131500D03*
X111644000Y-47131500D03*
X116724000Y-42940500D03*
X115454000Y-42940500D03*
X114184000Y-42940500D03*
X112914000Y-42940500D03*
X111644000Y-42940500D03*
G04 #@! TD*
D13*
G04 #@! TO.C,U1*
X107959624Y-119359202D03*
X108909624Y-119359202D03*
X109859624Y-119359202D03*
X109859624Y-117159202D03*
X107959624Y-117159202D03*
G04 #@! TD*
G04 #@! TO.C,U1*
X63959624Y-119359202D03*
X64909624Y-119359202D03*
X65859624Y-119359202D03*
X65859624Y-117159202D03*
X63959624Y-117159202D03*
G04 #@! TD*
G04 #@! TO.C,U1*
X107959624Y-73359202D03*
X108909624Y-73359202D03*
X109859624Y-73359202D03*
X109859624Y-71159202D03*
X107959624Y-71159202D03*
G04 #@! TD*
D10*
G04 #@! TO.C,C4*
G36*
X101936582Y-114129912D02*
X101950900Y-114132036D01*
X101964941Y-114135553D01*
X101978570Y-114140430D01*
X101991655Y-114146619D01*
X102004071Y-114154060D01*
X102015697Y-114162683D01*
X102026422Y-114172404D01*
X102036143Y-114183129D01*
X102044766Y-114194755D01*
X102052207Y-114207171D01*
X102058396Y-114220256D01*
X102063273Y-114233885D01*
X102066790Y-114247926D01*
X102068914Y-114262244D01*
X102069624Y-114276702D01*
X102069624Y-114621702D01*
X102068914Y-114636160D01*
X102066790Y-114650478D01*
X102063273Y-114664519D01*
X102058396Y-114678148D01*
X102052207Y-114691233D01*
X102044766Y-114703649D01*
X102036143Y-114715275D01*
X102026422Y-114726000D01*
X102015697Y-114735721D01*
X102004071Y-114744344D01*
X101991655Y-114751785D01*
X101978570Y-114757974D01*
X101964941Y-114762851D01*
X101950900Y-114766368D01*
X101936582Y-114768492D01*
X101922124Y-114769202D01*
X101627124Y-114769202D01*
X101612666Y-114768492D01*
X101598348Y-114766368D01*
X101584307Y-114762851D01*
X101570678Y-114757974D01*
X101557593Y-114751785D01*
X101545177Y-114744344D01*
X101533551Y-114735721D01*
X101522826Y-114726000D01*
X101513105Y-114715275D01*
X101504482Y-114703649D01*
X101497041Y-114691233D01*
X101490852Y-114678148D01*
X101485975Y-114664519D01*
X101482458Y-114650478D01*
X101480334Y-114636160D01*
X101479624Y-114621702D01*
X101479624Y-114276702D01*
X101480334Y-114262244D01*
X101482458Y-114247926D01*
X101485975Y-114233885D01*
X101490852Y-114220256D01*
X101497041Y-114207171D01*
X101504482Y-114194755D01*
X101513105Y-114183129D01*
X101522826Y-114172404D01*
X101533551Y-114162683D01*
X101545177Y-114154060D01*
X101557593Y-114146619D01*
X101570678Y-114140430D01*
X101584307Y-114135553D01*
X101598348Y-114132036D01*
X101612666Y-114129912D01*
X101627124Y-114129202D01*
X101922124Y-114129202D01*
X101936582Y-114129912D01*
X101936582Y-114129912D01*
G37*
D11*
X101774624Y-114449202D03*
D10*
G36*
X100966582Y-114129912D02*
X100980900Y-114132036D01*
X100994941Y-114135553D01*
X101008570Y-114140430D01*
X101021655Y-114146619D01*
X101034071Y-114154060D01*
X101045697Y-114162683D01*
X101056422Y-114172404D01*
X101066143Y-114183129D01*
X101074766Y-114194755D01*
X101082207Y-114207171D01*
X101088396Y-114220256D01*
X101093273Y-114233885D01*
X101096790Y-114247926D01*
X101098914Y-114262244D01*
X101099624Y-114276702D01*
X101099624Y-114621702D01*
X101098914Y-114636160D01*
X101096790Y-114650478D01*
X101093273Y-114664519D01*
X101088396Y-114678148D01*
X101082207Y-114691233D01*
X101074766Y-114703649D01*
X101066143Y-114715275D01*
X101056422Y-114726000D01*
X101045697Y-114735721D01*
X101034071Y-114744344D01*
X101021655Y-114751785D01*
X101008570Y-114757974D01*
X100994941Y-114762851D01*
X100980900Y-114766368D01*
X100966582Y-114768492D01*
X100952124Y-114769202D01*
X100657124Y-114769202D01*
X100642666Y-114768492D01*
X100628348Y-114766368D01*
X100614307Y-114762851D01*
X100600678Y-114757974D01*
X100587593Y-114751785D01*
X100575177Y-114744344D01*
X100563551Y-114735721D01*
X100552826Y-114726000D01*
X100543105Y-114715275D01*
X100534482Y-114703649D01*
X100527041Y-114691233D01*
X100520852Y-114678148D01*
X100515975Y-114664519D01*
X100512458Y-114650478D01*
X100510334Y-114636160D01*
X100509624Y-114621702D01*
X100509624Y-114276702D01*
X100510334Y-114262244D01*
X100512458Y-114247926D01*
X100515975Y-114233885D01*
X100520852Y-114220256D01*
X100527041Y-114207171D01*
X100534482Y-114194755D01*
X100543105Y-114183129D01*
X100552826Y-114172404D01*
X100563551Y-114162683D01*
X100575177Y-114154060D01*
X100587593Y-114146619D01*
X100600678Y-114140430D01*
X100614307Y-114135553D01*
X100628348Y-114132036D01*
X100642666Y-114129912D01*
X100657124Y-114129202D01*
X100952124Y-114129202D01*
X100966582Y-114129912D01*
X100966582Y-114129912D01*
G37*
D11*
X100804624Y-114449202D03*
G04 #@! TD*
D10*
G04 #@! TO.C,C4*
G36*
X57936582Y-114129912D02*
X57950900Y-114132036D01*
X57964941Y-114135553D01*
X57978570Y-114140430D01*
X57991655Y-114146619D01*
X58004071Y-114154060D01*
X58015697Y-114162683D01*
X58026422Y-114172404D01*
X58036143Y-114183129D01*
X58044766Y-114194755D01*
X58052207Y-114207171D01*
X58058396Y-114220256D01*
X58063273Y-114233885D01*
X58066790Y-114247926D01*
X58068914Y-114262244D01*
X58069624Y-114276702D01*
X58069624Y-114621702D01*
X58068914Y-114636160D01*
X58066790Y-114650478D01*
X58063273Y-114664519D01*
X58058396Y-114678148D01*
X58052207Y-114691233D01*
X58044766Y-114703649D01*
X58036143Y-114715275D01*
X58026422Y-114726000D01*
X58015697Y-114735721D01*
X58004071Y-114744344D01*
X57991655Y-114751785D01*
X57978570Y-114757974D01*
X57964941Y-114762851D01*
X57950900Y-114766368D01*
X57936582Y-114768492D01*
X57922124Y-114769202D01*
X57627124Y-114769202D01*
X57612666Y-114768492D01*
X57598348Y-114766368D01*
X57584307Y-114762851D01*
X57570678Y-114757974D01*
X57557593Y-114751785D01*
X57545177Y-114744344D01*
X57533551Y-114735721D01*
X57522826Y-114726000D01*
X57513105Y-114715275D01*
X57504482Y-114703649D01*
X57497041Y-114691233D01*
X57490852Y-114678148D01*
X57485975Y-114664519D01*
X57482458Y-114650478D01*
X57480334Y-114636160D01*
X57479624Y-114621702D01*
X57479624Y-114276702D01*
X57480334Y-114262244D01*
X57482458Y-114247926D01*
X57485975Y-114233885D01*
X57490852Y-114220256D01*
X57497041Y-114207171D01*
X57504482Y-114194755D01*
X57513105Y-114183129D01*
X57522826Y-114172404D01*
X57533551Y-114162683D01*
X57545177Y-114154060D01*
X57557593Y-114146619D01*
X57570678Y-114140430D01*
X57584307Y-114135553D01*
X57598348Y-114132036D01*
X57612666Y-114129912D01*
X57627124Y-114129202D01*
X57922124Y-114129202D01*
X57936582Y-114129912D01*
X57936582Y-114129912D01*
G37*
D11*
X57774624Y-114449202D03*
D10*
G36*
X56966582Y-114129912D02*
X56980900Y-114132036D01*
X56994941Y-114135553D01*
X57008570Y-114140430D01*
X57021655Y-114146619D01*
X57034071Y-114154060D01*
X57045697Y-114162683D01*
X57056422Y-114172404D01*
X57066143Y-114183129D01*
X57074766Y-114194755D01*
X57082207Y-114207171D01*
X57088396Y-114220256D01*
X57093273Y-114233885D01*
X57096790Y-114247926D01*
X57098914Y-114262244D01*
X57099624Y-114276702D01*
X57099624Y-114621702D01*
X57098914Y-114636160D01*
X57096790Y-114650478D01*
X57093273Y-114664519D01*
X57088396Y-114678148D01*
X57082207Y-114691233D01*
X57074766Y-114703649D01*
X57066143Y-114715275D01*
X57056422Y-114726000D01*
X57045697Y-114735721D01*
X57034071Y-114744344D01*
X57021655Y-114751785D01*
X57008570Y-114757974D01*
X56994941Y-114762851D01*
X56980900Y-114766368D01*
X56966582Y-114768492D01*
X56952124Y-114769202D01*
X56657124Y-114769202D01*
X56642666Y-114768492D01*
X56628348Y-114766368D01*
X56614307Y-114762851D01*
X56600678Y-114757974D01*
X56587593Y-114751785D01*
X56575177Y-114744344D01*
X56563551Y-114735721D01*
X56552826Y-114726000D01*
X56543105Y-114715275D01*
X56534482Y-114703649D01*
X56527041Y-114691233D01*
X56520852Y-114678148D01*
X56515975Y-114664519D01*
X56512458Y-114650478D01*
X56510334Y-114636160D01*
X56509624Y-114621702D01*
X56509624Y-114276702D01*
X56510334Y-114262244D01*
X56512458Y-114247926D01*
X56515975Y-114233885D01*
X56520852Y-114220256D01*
X56527041Y-114207171D01*
X56534482Y-114194755D01*
X56543105Y-114183129D01*
X56552826Y-114172404D01*
X56563551Y-114162683D01*
X56575177Y-114154060D01*
X56587593Y-114146619D01*
X56600678Y-114140430D01*
X56614307Y-114135553D01*
X56628348Y-114132036D01*
X56642666Y-114129912D01*
X56657124Y-114129202D01*
X56952124Y-114129202D01*
X56966582Y-114129912D01*
X56966582Y-114129912D01*
G37*
D11*
X56804624Y-114449202D03*
G04 #@! TD*
D10*
G04 #@! TO.C,C4*
G36*
X101936582Y-68129912D02*
X101950900Y-68132036D01*
X101964941Y-68135553D01*
X101978570Y-68140430D01*
X101991655Y-68146619D01*
X102004071Y-68154060D01*
X102015697Y-68162683D01*
X102026422Y-68172404D01*
X102036143Y-68183129D01*
X102044766Y-68194755D01*
X102052207Y-68207171D01*
X102058396Y-68220256D01*
X102063273Y-68233885D01*
X102066790Y-68247926D01*
X102068914Y-68262244D01*
X102069624Y-68276702D01*
X102069624Y-68621702D01*
X102068914Y-68636160D01*
X102066790Y-68650478D01*
X102063273Y-68664519D01*
X102058396Y-68678148D01*
X102052207Y-68691233D01*
X102044766Y-68703649D01*
X102036143Y-68715275D01*
X102026422Y-68726000D01*
X102015697Y-68735721D01*
X102004071Y-68744344D01*
X101991655Y-68751785D01*
X101978570Y-68757974D01*
X101964941Y-68762851D01*
X101950900Y-68766368D01*
X101936582Y-68768492D01*
X101922124Y-68769202D01*
X101627124Y-68769202D01*
X101612666Y-68768492D01*
X101598348Y-68766368D01*
X101584307Y-68762851D01*
X101570678Y-68757974D01*
X101557593Y-68751785D01*
X101545177Y-68744344D01*
X101533551Y-68735721D01*
X101522826Y-68726000D01*
X101513105Y-68715275D01*
X101504482Y-68703649D01*
X101497041Y-68691233D01*
X101490852Y-68678148D01*
X101485975Y-68664519D01*
X101482458Y-68650478D01*
X101480334Y-68636160D01*
X101479624Y-68621702D01*
X101479624Y-68276702D01*
X101480334Y-68262244D01*
X101482458Y-68247926D01*
X101485975Y-68233885D01*
X101490852Y-68220256D01*
X101497041Y-68207171D01*
X101504482Y-68194755D01*
X101513105Y-68183129D01*
X101522826Y-68172404D01*
X101533551Y-68162683D01*
X101545177Y-68154060D01*
X101557593Y-68146619D01*
X101570678Y-68140430D01*
X101584307Y-68135553D01*
X101598348Y-68132036D01*
X101612666Y-68129912D01*
X101627124Y-68129202D01*
X101922124Y-68129202D01*
X101936582Y-68129912D01*
X101936582Y-68129912D01*
G37*
D11*
X101774624Y-68449202D03*
D10*
G36*
X100966582Y-68129912D02*
X100980900Y-68132036D01*
X100994941Y-68135553D01*
X101008570Y-68140430D01*
X101021655Y-68146619D01*
X101034071Y-68154060D01*
X101045697Y-68162683D01*
X101056422Y-68172404D01*
X101066143Y-68183129D01*
X101074766Y-68194755D01*
X101082207Y-68207171D01*
X101088396Y-68220256D01*
X101093273Y-68233885D01*
X101096790Y-68247926D01*
X101098914Y-68262244D01*
X101099624Y-68276702D01*
X101099624Y-68621702D01*
X101098914Y-68636160D01*
X101096790Y-68650478D01*
X101093273Y-68664519D01*
X101088396Y-68678148D01*
X101082207Y-68691233D01*
X101074766Y-68703649D01*
X101066143Y-68715275D01*
X101056422Y-68726000D01*
X101045697Y-68735721D01*
X101034071Y-68744344D01*
X101021655Y-68751785D01*
X101008570Y-68757974D01*
X100994941Y-68762851D01*
X100980900Y-68766368D01*
X100966582Y-68768492D01*
X100952124Y-68769202D01*
X100657124Y-68769202D01*
X100642666Y-68768492D01*
X100628348Y-68766368D01*
X100614307Y-68762851D01*
X100600678Y-68757974D01*
X100587593Y-68751785D01*
X100575177Y-68744344D01*
X100563551Y-68735721D01*
X100552826Y-68726000D01*
X100543105Y-68715275D01*
X100534482Y-68703649D01*
X100527041Y-68691233D01*
X100520852Y-68678148D01*
X100515975Y-68664519D01*
X100512458Y-68650478D01*
X100510334Y-68636160D01*
X100509624Y-68621702D01*
X100509624Y-68276702D01*
X100510334Y-68262244D01*
X100512458Y-68247926D01*
X100515975Y-68233885D01*
X100520852Y-68220256D01*
X100527041Y-68207171D01*
X100534482Y-68194755D01*
X100543105Y-68183129D01*
X100552826Y-68172404D01*
X100563551Y-68162683D01*
X100575177Y-68154060D01*
X100587593Y-68146619D01*
X100600678Y-68140430D01*
X100614307Y-68135553D01*
X100628348Y-68132036D01*
X100642666Y-68129912D01*
X100657124Y-68129202D01*
X100952124Y-68129202D01*
X100966582Y-68129912D01*
X100966582Y-68129912D01*
G37*
D11*
X100804624Y-68449202D03*
G04 #@! TD*
D13*
G04 #@! TO.C,U2*
X101609624Y-117159202D03*
X103509624Y-117159202D03*
X103509624Y-119359202D03*
X102559624Y-119359202D03*
X101609624Y-119359202D03*
G04 #@! TD*
G04 #@! TO.C,U2*
X57609624Y-117159202D03*
X59509624Y-117159202D03*
X59509624Y-119359202D03*
X58559624Y-119359202D03*
X57609624Y-119359202D03*
G04 #@! TD*
G04 #@! TO.C,U2*
X101609624Y-71159202D03*
X103509624Y-71159202D03*
X103509624Y-73359202D03*
X102559624Y-73359202D03*
X101609624Y-73359202D03*
G04 #@! TD*
D14*
G04 #@! TO.C,J4*
X114516000Y-125256000D03*
X112836000Y-125256000D03*
D15*
X116586000Y-125256000D03*
X110766000Y-125256000D03*
D16*
X116138500Y-122956000D03*
X111213500Y-122956000D03*
D17*
X114976000Y-122596000D03*
X114326000Y-122596000D03*
X113676000Y-122596000D03*
X113026000Y-122596000D03*
X112376000Y-122596000D03*
G04 #@! TD*
D14*
G04 #@! TO.C,J4*
X70516000Y-125256000D03*
X68836000Y-125256000D03*
D15*
X72586000Y-125256000D03*
X66766000Y-125256000D03*
D16*
X72138500Y-122956000D03*
X67213500Y-122956000D03*
D17*
X70976000Y-122596000D03*
X70326000Y-122596000D03*
X69676000Y-122596000D03*
X69026000Y-122596000D03*
X68376000Y-122596000D03*
G04 #@! TD*
D14*
G04 #@! TO.C,J4*
X114516000Y-79256000D03*
X112836000Y-79256000D03*
D15*
X116586000Y-79256000D03*
X110766000Y-79256000D03*
D16*
X116138500Y-76956000D03*
X111213500Y-76956000D03*
D17*
X114976000Y-76596000D03*
X114326000Y-76596000D03*
X113676000Y-76596000D03*
X113026000Y-76596000D03*
X112376000Y-76596000D03*
G04 #@! TD*
D10*
G04 #@! TO.C,C1*
G36*
X109856582Y-114129912D02*
X109870900Y-114132036D01*
X109884941Y-114135553D01*
X109898570Y-114140430D01*
X109911655Y-114146619D01*
X109924071Y-114154060D01*
X109935697Y-114162683D01*
X109946422Y-114172404D01*
X109956143Y-114183129D01*
X109964766Y-114194755D01*
X109972207Y-114207171D01*
X109978396Y-114220256D01*
X109983273Y-114233885D01*
X109986790Y-114247926D01*
X109988914Y-114262244D01*
X109989624Y-114276702D01*
X109989624Y-114621702D01*
X109988914Y-114636160D01*
X109986790Y-114650478D01*
X109983273Y-114664519D01*
X109978396Y-114678148D01*
X109972207Y-114691233D01*
X109964766Y-114703649D01*
X109956143Y-114715275D01*
X109946422Y-114726000D01*
X109935697Y-114735721D01*
X109924071Y-114744344D01*
X109911655Y-114751785D01*
X109898570Y-114757974D01*
X109884941Y-114762851D01*
X109870900Y-114766368D01*
X109856582Y-114768492D01*
X109842124Y-114769202D01*
X109547124Y-114769202D01*
X109532666Y-114768492D01*
X109518348Y-114766368D01*
X109504307Y-114762851D01*
X109490678Y-114757974D01*
X109477593Y-114751785D01*
X109465177Y-114744344D01*
X109453551Y-114735721D01*
X109442826Y-114726000D01*
X109433105Y-114715275D01*
X109424482Y-114703649D01*
X109417041Y-114691233D01*
X109410852Y-114678148D01*
X109405975Y-114664519D01*
X109402458Y-114650478D01*
X109400334Y-114636160D01*
X109399624Y-114621702D01*
X109399624Y-114276702D01*
X109400334Y-114262244D01*
X109402458Y-114247926D01*
X109405975Y-114233885D01*
X109410852Y-114220256D01*
X109417041Y-114207171D01*
X109424482Y-114194755D01*
X109433105Y-114183129D01*
X109442826Y-114172404D01*
X109453551Y-114162683D01*
X109465177Y-114154060D01*
X109477593Y-114146619D01*
X109490678Y-114140430D01*
X109504307Y-114135553D01*
X109518348Y-114132036D01*
X109532666Y-114129912D01*
X109547124Y-114129202D01*
X109842124Y-114129202D01*
X109856582Y-114129912D01*
X109856582Y-114129912D01*
G37*
D11*
X109694624Y-114449202D03*
D10*
G36*
X110826582Y-114129912D02*
X110840900Y-114132036D01*
X110854941Y-114135553D01*
X110868570Y-114140430D01*
X110881655Y-114146619D01*
X110894071Y-114154060D01*
X110905697Y-114162683D01*
X110916422Y-114172404D01*
X110926143Y-114183129D01*
X110934766Y-114194755D01*
X110942207Y-114207171D01*
X110948396Y-114220256D01*
X110953273Y-114233885D01*
X110956790Y-114247926D01*
X110958914Y-114262244D01*
X110959624Y-114276702D01*
X110959624Y-114621702D01*
X110958914Y-114636160D01*
X110956790Y-114650478D01*
X110953273Y-114664519D01*
X110948396Y-114678148D01*
X110942207Y-114691233D01*
X110934766Y-114703649D01*
X110926143Y-114715275D01*
X110916422Y-114726000D01*
X110905697Y-114735721D01*
X110894071Y-114744344D01*
X110881655Y-114751785D01*
X110868570Y-114757974D01*
X110854941Y-114762851D01*
X110840900Y-114766368D01*
X110826582Y-114768492D01*
X110812124Y-114769202D01*
X110517124Y-114769202D01*
X110502666Y-114768492D01*
X110488348Y-114766368D01*
X110474307Y-114762851D01*
X110460678Y-114757974D01*
X110447593Y-114751785D01*
X110435177Y-114744344D01*
X110423551Y-114735721D01*
X110412826Y-114726000D01*
X110403105Y-114715275D01*
X110394482Y-114703649D01*
X110387041Y-114691233D01*
X110380852Y-114678148D01*
X110375975Y-114664519D01*
X110372458Y-114650478D01*
X110370334Y-114636160D01*
X110369624Y-114621702D01*
X110369624Y-114276702D01*
X110370334Y-114262244D01*
X110372458Y-114247926D01*
X110375975Y-114233885D01*
X110380852Y-114220256D01*
X110387041Y-114207171D01*
X110394482Y-114194755D01*
X110403105Y-114183129D01*
X110412826Y-114172404D01*
X110423551Y-114162683D01*
X110435177Y-114154060D01*
X110447593Y-114146619D01*
X110460678Y-114140430D01*
X110474307Y-114135553D01*
X110488348Y-114132036D01*
X110502666Y-114129912D01*
X110517124Y-114129202D01*
X110812124Y-114129202D01*
X110826582Y-114129912D01*
X110826582Y-114129912D01*
G37*
D11*
X110664624Y-114449202D03*
G04 #@! TD*
D10*
G04 #@! TO.C,C1*
G36*
X65856582Y-114129912D02*
X65870900Y-114132036D01*
X65884941Y-114135553D01*
X65898570Y-114140430D01*
X65911655Y-114146619D01*
X65924071Y-114154060D01*
X65935697Y-114162683D01*
X65946422Y-114172404D01*
X65956143Y-114183129D01*
X65964766Y-114194755D01*
X65972207Y-114207171D01*
X65978396Y-114220256D01*
X65983273Y-114233885D01*
X65986790Y-114247926D01*
X65988914Y-114262244D01*
X65989624Y-114276702D01*
X65989624Y-114621702D01*
X65988914Y-114636160D01*
X65986790Y-114650478D01*
X65983273Y-114664519D01*
X65978396Y-114678148D01*
X65972207Y-114691233D01*
X65964766Y-114703649D01*
X65956143Y-114715275D01*
X65946422Y-114726000D01*
X65935697Y-114735721D01*
X65924071Y-114744344D01*
X65911655Y-114751785D01*
X65898570Y-114757974D01*
X65884941Y-114762851D01*
X65870900Y-114766368D01*
X65856582Y-114768492D01*
X65842124Y-114769202D01*
X65547124Y-114769202D01*
X65532666Y-114768492D01*
X65518348Y-114766368D01*
X65504307Y-114762851D01*
X65490678Y-114757974D01*
X65477593Y-114751785D01*
X65465177Y-114744344D01*
X65453551Y-114735721D01*
X65442826Y-114726000D01*
X65433105Y-114715275D01*
X65424482Y-114703649D01*
X65417041Y-114691233D01*
X65410852Y-114678148D01*
X65405975Y-114664519D01*
X65402458Y-114650478D01*
X65400334Y-114636160D01*
X65399624Y-114621702D01*
X65399624Y-114276702D01*
X65400334Y-114262244D01*
X65402458Y-114247926D01*
X65405975Y-114233885D01*
X65410852Y-114220256D01*
X65417041Y-114207171D01*
X65424482Y-114194755D01*
X65433105Y-114183129D01*
X65442826Y-114172404D01*
X65453551Y-114162683D01*
X65465177Y-114154060D01*
X65477593Y-114146619D01*
X65490678Y-114140430D01*
X65504307Y-114135553D01*
X65518348Y-114132036D01*
X65532666Y-114129912D01*
X65547124Y-114129202D01*
X65842124Y-114129202D01*
X65856582Y-114129912D01*
X65856582Y-114129912D01*
G37*
D11*
X65694624Y-114449202D03*
D10*
G36*
X66826582Y-114129912D02*
X66840900Y-114132036D01*
X66854941Y-114135553D01*
X66868570Y-114140430D01*
X66881655Y-114146619D01*
X66894071Y-114154060D01*
X66905697Y-114162683D01*
X66916422Y-114172404D01*
X66926143Y-114183129D01*
X66934766Y-114194755D01*
X66942207Y-114207171D01*
X66948396Y-114220256D01*
X66953273Y-114233885D01*
X66956790Y-114247926D01*
X66958914Y-114262244D01*
X66959624Y-114276702D01*
X66959624Y-114621702D01*
X66958914Y-114636160D01*
X66956790Y-114650478D01*
X66953273Y-114664519D01*
X66948396Y-114678148D01*
X66942207Y-114691233D01*
X66934766Y-114703649D01*
X66926143Y-114715275D01*
X66916422Y-114726000D01*
X66905697Y-114735721D01*
X66894071Y-114744344D01*
X66881655Y-114751785D01*
X66868570Y-114757974D01*
X66854941Y-114762851D01*
X66840900Y-114766368D01*
X66826582Y-114768492D01*
X66812124Y-114769202D01*
X66517124Y-114769202D01*
X66502666Y-114768492D01*
X66488348Y-114766368D01*
X66474307Y-114762851D01*
X66460678Y-114757974D01*
X66447593Y-114751785D01*
X66435177Y-114744344D01*
X66423551Y-114735721D01*
X66412826Y-114726000D01*
X66403105Y-114715275D01*
X66394482Y-114703649D01*
X66387041Y-114691233D01*
X66380852Y-114678148D01*
X66375975Y-114664519D01*
X66372458Y-114650478D01*
X66370334Y-114636160D01*
X66369624Y-114621702D01*
X66369624Y-114276702D01*
X66370334Y-114262244D01*
X66372458Y-114247926D01*
X66375975Y-114233885D01*
X66380852Y-114220256D01*
X66387041Y-114207171D01*
X66394482Y-114194755D01*
X66403105Y-114183129D01*
X66412826Y-114172404D01*
X66423551Y-114162683D01*
X66435177Y-114154060D01*
X66447593Y-114146619D01*
X66460678Y-114140430D01*
X66474307Y-114135553D01*
X66488348Y-114132036D01*
X66502666Y-114129912D01*
X66517124Y-114129202D01*
X66812124Y-114129202D01*
X66826582Y-114129912D01*
X66826582Y-114129912D01*
G37*
D11*
X66664624Y-114449202D03*
G04 #@! TD*
D10*
G04 #@! TO.C,C1*
G36*
X109856582Y-68129912D02*
X109870900Y-68132036D01*
X109884941Y-68135553D01*
X109898570Y-68140430D01*
X109911655Y-68146619D01*
X109924071Y-68154060D01*
X109935697Y-68162683D01*
X109946422Y-68172404D01*
X109956143Y-68183129D01*
X109964766Y-68194755D01*
X109972207Y-68207171D01*
X109978396Y-68220256D01*
X109983273Y-68233885D01*
X109986790Y-68247926D01*
X109988914Y-68262244D01*
X109989624Y-68276702D01*
X109989624Y-68621702D01*
X109988914Y-68636160D01*
X109986790Y-68650478D01*
X109983273Y-68664519D01*
X109978396Y-68678148D01*
X109972207Y-68691233D01*
X109964766Y-68703649D01*
X109956143Y-68715275D01*
X109946422Y-68726000D01*
X109935697Y-68735721D01*
X109924071Y-68744344D01*
X109911655Y-68751785D01*
X109898570Y-68757974D01*
X109884941Y-68762851D01*
X109870900Y-68766368D01*
X109856582Y-68768492D01*
X109842124Y-68769202D01*
X109547124Y-68769202D01*
X109532666Y-68768492D01*
X109518348Y-68766368D01*
X109504307Y-68762851D01*
X109490678Y-68757974D01*
X109477593Y-68751785D01*
X109465177Y-68744344D01*
X109453551Y-68735721D01*
X109442826Y-68726000D01*
X109433105Y-68715275D01*
X109424482Y-68703649D01*
X109417041Y-68691233D01*
X109410852Y-68678148D01*
X109405975Y-68664519D01*
X109402458Y-68650478D01*
X109400334Y-68636160D01*
X109399624Y-68621702D01*
X109399624Y-68276702D01*
X109400334Y-68262244D01*
X109402458Y-68247926D01*
X109405975Y-68233885D01*
X109410852Y-68220256D01*
X109417041Y-68207171D01*
X109424482Y-68194755D01*
X109433105Y-68183129D01*
X109442826Y-68172404D01*
X109453551Y-68162683D01*
X109465177Y-68154060D01*
X109477593Y-68146619D01*
X109490678Y-68140430D01*
X109504307Y-68135553D01*
X109518348Y-68132036D01*
X109532666Y-68129912D01*
X109547124Y-68129202D01*
X109842124Y-68129202D01*
X109856582Y-68129912D01*
X109856582Y-68129912D01*
G37*
D11*
X109694624Y-68449202D03*
D10*
G36*
X110826582Y-68129912D02*
X110840900Y-68132036D01*
X110854941Y-68135553D01*
X110868570Y-68140430D01*
X110881655Y-68146619D01*
X110894071Y-68154060D01*
X110905697Y-68162683D01*
X110916422Y-68172404D01*
X110926143Y-68183129D01*
X110934766Y-68194755D01*
X110942207Y-68207171D01*
X110948396Y-68220256D01*
X110953273Y-68233885D01*
X110956790Y-68247926D01*
X110958914Y-68262244D01*
X110959624Y-68276702D01*
X110959624Y-68621702D01*
X110958914Y-68636160D01*
X110956790Y-68650478D01*
X110953273Y-68664519D01*
X110948396Y-68678148D01*
X110942207Y-68691233D01*
X110934766Y-68703649D01*
X110926143Y-68715275D01*
X110916422Y-68726000D01*
X110905697Y-68735721D01*
X110894071Y-68744344D01*
X110881655Y-68751785D01*
X110868570Y-68757974D01*
X110854941Y-68762851D01*
X110840900Y-68766368D01*
X110826582Y-68768492D01*
X110812124Y-68769202D01*
X110517124Y-68769202D01*
X110502666Y-68768492D01*
X110488348Y-68766368D01*
X110474307Y-68762851D01*
X110460678Y-68757974D01*
X110447593Y-68751785D01*
X110435177Y-68744344D01*
X110423551Y-68735721D01*
X110412826Y-68726000D01*
X110403105Y-68715275D01*
X110394482Y-68703649D01*
X110387041Y-68691233D01*
X110380852Y-68678148D01*
X110375975Y-68664519D01*
X110372458Y-68650478D01*
X110370334Y-68636160D01*
X110369624Y-68621702D01*
X110369624Y-68276702D01*
X110370334Y-68262244D01*
X110372458Y-68247926D01*
X110375975Y-68233885D01*
X110380852Y-68220256D01*
X110387041Y-68207171D01*
X110394482Y-68194755D01*
X110403105Y-68183129D01*
X110412826Y-68172404D01*
X110423551Y-68162683D01*
X110435177Y-68154060D01*
X110447593Y-68146619D01*
X110460678Y-68140430D01*
X110474307Y-68135553D01*
X110488348Y-68132036D01*
X110502666Y-68129912D01*
X110517124Y-68129202D01*
X110812124Y-68129202D01*
X110826582Y-68129912D01*
X110826582Y-68129912D01*
G37*
D11*
X110664624Y-68449202D03*
G04 #@! TD*
D10*
G04 #@! TO.C,C2*
G36*
X107316582Y-114129912D02*
X107330900Y-114132036D01*
X107344941Y-114135553D01*
X107358570Y-114140430D01*
X107371655Y-114146619D01*
X107384071Y-114154060D01*
X107395697Y-114162683D01*
X107406422Y-114172404D01*
X107416143Y-114183129D01*
X107424766Y-114194755D01*
X107432207Y-114207171D01*
X107438396Y-114220256D01*
X107443273Y-114233885D01*
X107446790Y-114247926D01*
X107448914Y-114262244D01*
X107449624Y-114276702D01*
X107449624Y-114621702D01*
X107448914Y-114636160D01*
X107446790Y-114650478D01*
X107443273Y-114664519D01*
X107438396Y-114678148D01*
X107432207Y-114691233D01*
X107424766Y-114703649D01*
X107416143Y-114715275D01*
X107406422Y-114726000D01*
X107395697Y-114735721D01*
X107384071Y-114744344D01*
X107371655Y-114751785D01*
X107358570Y-114757974D01*
X107344941Y-114762851D01*
X107330900Y-114766368D01*
X107316582Y-114768492D01*
X107302124Y-114769202D01*
X107007124Y-114769202D01*
X106992666Y-114768492D01*
X106978348Y-114766368D01*
X106964307Y-114762851D01*
X106950678Y-114757974D01*
X106937593Y-114751785D01*
X106925177Y-114744344D01*
X106913551Y-114735721D01*
X106902826Y-114726000D01*
X106893105Y-114715275D01*
X106884482Y-114703649D01*
X106877041Y-114691233D01*
X106870852Y-114678148D01*
X106865975Y-114664519D01*
X106862458Y-114650478D01*
X106860334Y-114636160D01*
X106859624Y-114621702D01*
X106859624Y-114276702D01*
X106860334Y-114262244D01*
X106862458Y-114247926D01*
X106865975Y-114233885D01*
X106870852Y-114220256D01*
X106877041Y-114207171D01*
X106884482Y-114194755D01*
X106893105Y-114183129D01*
X106902826Y-114172404D01*
X106913551Y-114162683D01*
X106925177Y-114154060D01*
X106937593Y-114146619D01*
X106950678Y-114140430D01*
X106964307Y-114135553D01*
X106978348Y-114132036D01*
X106992666Y-114129912D01*
X107007124Y-114129202D01*
X107302124Y-114129202D01*
X107316582Y-114129912D01*
X107316582Y-114129912D01*
G37*
D11*
X107154624Y-114449202D03*
D10*
G36*
X108286582Y-114129912D02*
X108300900Y-114132036D01*
X108314941Y-114135553D01*
X108328570Y-114140430D01*
X108341655Y-114146619D01*
X108354071Y-114154060D01*
X108365697Y-114162683D01*
X108376422Y-114172404D01*
X108386143Y-114183129D01*
X108394766Y-114194755D01*
X108402207Y-114207171D01*
X108408396Y-114220256D01*
X108413273Y-114233885D01*
X108416790Y-114247926D01*
X108418914Y-114262244D01*
X108419624Y-114276702D01*
X108419624Y-114621702D01*
X108418914Y-114636160D01*
X108416790Y-114650478D01*
X108413273Y-114664519D01*
X108408396Y-114678148D01*
X108402207Y-114691233D01*
X108394766Y-114703649D01*
X108386143Y-114715275D01*
X108376422Y-114726000D01*
X108365697Y-114735721D01*
X108354071Y-114744344D01*
X108341655Y-114751785D01*
X108328570Y-114757974D01*
X108314941Y-114762851D01*
X108300900Y-114766368D01*
X108286582Y-114768492D01*
X108272124Y-114769202D01*
X107977124Y-114769202D01*
X107962666Y-114768492D01*
X107948348Y-114766368D01*
X107934307Y-114762851D01*
X107920678Y-114757974D01*
X107907593Y-114751785D01*
X107895177Y-114744344D01*
X107883551Y-114735721D01*
X107872826Y-114726000D01*
X107863105Y-114715275D01*
X107854482Y-114703649D01*
X107847041Y-114691233D01*
X107840852Y-114678148D01*
X107835975Y-114664519D01*
X107832458Y-114650478D01*
X107830334Y-114636160D01*
X107829624Y-114621702D01*
X107829624Y-114276702D01*
X107830334Y-114262244D01*
X107832458Y-114247926D01*
X107835975Y-114233885D01*
X107840852Y-114220256D01*
X107847041Y-114207171D01*
X107854482Y-114194755D01*
X107863105Y-114183129D01*
X107872826Y-114172404D01*
X107883551Y-114162683D01*
X107895177Y-114154060D01*
X107907593Y-114146619D01*
X107920678Y-114140430D01*
X107934307Y-114135553D01*
X107948348Y-114132036D01*
X107962666Y-114129912D01*
X107977124Y-114129202D01*
X108272124Y-114129202D01*
X108286582Y-114129912D01*
X108286582Y-114129912D01*
G37*
D11*
X108124624Y-114449202D03*
G04 #@! TD*
D10*
G04 #@! TO.C,C2*
G36*
X63316582Y-114129912D02*
X63330900Y-114132036D01*
X63344941Y-114135553D01*
X63358570Y-114140430D01*
X63371655Y-114146619D01*
X63384071Y-114154060D01*
X63395697Y-114162683D01*
X63406422Y-114172404D01*
X63416143Y-114183129D01*
X63424766Y-114194755D01*
X63432207Y-114207171D01*
X63438396Y-114220256D01*
X63443273Y-114233885D01*
X63446790Y-114247926D01*
X63448914Y-114262244D01*
X63449624Y-114276702D01*
X63449624Y-114621702D01*
X63448914Y-114636160D01*
X63446790Y-114650478D01*
X63443273Y-114664519D01*
X63438396Y-114678148D01*
X63432207Y-114691233D01*
X63424766Y-114703649D01*
X63416143Y-114715275D01*
X63406422Y-114726000D01*
X63395697Y-114735721D01*
X63384071Y-114744344D01*
X63371655Y-114751785D01*
X63358570Y-114757974D01*
X63344941Y-114762851D01*
X63330900Y-114766368D01*
X63316582Y-114768492D01*
X63302124Y-114769202D01*
X63007124Y-114769202D01*
X62992666Y-114768492D01*
X62978348Y-114766368D01*
X62964307Y-114762851D01*
X62950678Y-114757974D01*
X62937593Y-114751785D01*
X62925177Y-114744344D01*
X62913551Y-114735721D01*
X62902826Y-114726000D01*
X62893105Y-114715275D01*
X62884482Y-114703649D01*
X62877041Y-114691233D01*
X62870852Y-114678148D01*
X62865975Y-114664519D01*
X62862458Y-114650478D01*
X62860334Y-114636160D01*
X62859624Y-114621702D01*
X62859624Y-114276702D01*
X62860334Y-114262244D01*
X62862458Y-114247926D01*
X62865975Y-114233885D01*
X62870852Y-114220256D01*
X62877041Y-114207171D01*
X62884482Y-114194755D01*
X62893105Y-114183129D01*
X62902826Y-114172404D01*
X62913551Y-114162683D01*
X62925177Y-114154060D01*
X62937593Y-114146619D01*
X62950678Y-114140430D01*
X62964307Y-114135553D01*
X62978348Y-114132036D01*
X62992666Y-114129912D01*
X63007124Y-114129202D01*
X63302124Y-114129202D01*
X63316582Y-114129912D01*
X63316582Y-114129912D01*
G37*
D11*
X63154624Y-114449202D03*
D10*
G36*
X64286582Y-114129912D02*
X64300900Y-114132036D01*
X64314941Y-114135553D01*
X64328570Y-114140430D01*
X64341655Y-114146619D01*
X64354071Y-114154060D01*
X64365697Y-114162683D01*
X64376422Y-114172404D01*
X64386143Y-114183129D01*
X64394766Y-114194755D01*
X64402207Y-114207171D01*
X64408396Y-114220256D01*
X64413273Y-114233885D01*
X64416790Y-114247926D01*
X64418914Y-114262244D01*
X64419624Y-114276702D01*
X64419624Y-114621702D01*
X64418914Y-114636160D01*
X64416790Y-114650478D01*
X64413273Y-114664519D01*
X64408396Y-114678148D01*
X64402207Y-114691233D01*
X64394766Y-114703649D01*
X64386143Y-114715275D01*
X64376422Y-114726000D01*
X64365697Y-114735721D01*
X64354071Y-114744344D01*
X64341655Y-114751785D01*
X64328570Y-114757974D01*
X64314941Y-114762851D01*
X64300900Y-114766368D01*
X64286582Y-114768492D01*
X64272124Y-114769202D01*
X63977124Y-114769202D01*
X63962666Y-114768492D01*
X63948348Y-114766368D01*
X63934307Y-114762851D01*
X63920678Y-114757974D01*
X63907593Y-114751785D01*
X63895177Y-114744344D01*
X63883551Y-114735721D01*
X63872826Y-114726000D01*
X63863105Y-114715275D01*
X63854482Y-114703649D01*
X63847041Y-114691233D01*
X63840852Y-114678148D01*
X63835975Y-114664519D01*
X63832458Y-114650478D01*
X63830334Y-114636160D01*
X63829624Y-114621702D01*
X63829624Y-114276702D01*
X63830334Y-114262244D01*
X63832458Y-114247926D01*
X63835975Y-114233885D01*
X63840852Y-114220256D01*
X63847041Y-114207171D01*
X63854482Y-114194755D01*
X63863105Y-114183129D01*
X63872826Y-114172404D01*
X63883551Y-114162683D01*
X63895177Y-114154060D01*
X63907593Y-114146619D01*
X63920678Y-114140430D01*
X63934307Y-114135553D01*
X63948348Y-114132036D01*
X63962666Y-114129912D01*
X63977124Y-114129202D01*
X64272124Y-114129202D01*
X64286582Y-114129912D01*
X64286582Y-114129912D01*
G37*
D11*
X64124624Y-114449202D03*
G04 #@! TD*
D10*
G04 #@! TO.C,C2*
G36*
X107316582Y-68129912D02*
X107330900Y-68132036D01*
X107344941Y-68135553D01*
X107358570Y-68140430D01*
X107371655Y-68146619D01*
X107384071Y-68154060D01*
X107395697Y-68162683D01*
X107406422Y-68172404D01*
X107416143Y-68183129D01*
X107424766Y-68194755D01*
X107432207Y-68207171D01*
X107438396Y-68220256D01*
X107443273Y-68233885D01*
X107446790Y-68247926D01*
X107448914Y-68262244D01*
X107449624Y-68276702D01*
X107449624Y-68621702D01*
X107448914Y-68636160D01*
X107446790Y-68650478D01*
X107443273Y-68664519D01*
X107438396Y-68678148D01*
X107432207Y-68691233D01*
X107424766Y-68703649D01*
X107416143Y-68715275D01*
X107406422Y-68726000D01*
X107395697Y-68735721D01*
X107384071Y-68744344D01*
X107371655Y-68751785D01*
X107358570Y-68757974D01*
X107344941Y-68762851D01*
X107330900Y-68766368D01*
X107316582Y-68768492D01*
X107302124Y-68769202D01*
X107007124Y-68769202D01*
X106992666Y-68768492D01*
X106978348Y-68766368D01*
X106964307Y-68762851D01*
X106950678Y-68757974D01*
X106937593Y-68751785D01*
X106925177Y-68744344D01*
X106913551Y-68735721D01*
X106902826Y-68726000D01*
X106893105Y-68715275D01*
X106884482Y-68703649D01*
X106877041Y-68691233D01*
X106870852Y-68678148D01*
X106865975Y-68664519D01*
X106862458Y-68650478D01*
X106860334Y-68636160D01*
X106859624Y-68621702D01*
X106859624Y-68276702D01*
X106860334Y-68262244D01*
X106862458Y-68247926D01*
X106865975Y-68233885D01*
X106870852Y-68220256D01*
X106877041Y-68207171D01*
X106884482Y-68194755D01*
X106893105Y-68183129D01*
X106902826Y-68172404D01*
X106913551Y-68162683D01*
X106925177Y-68154060D01*
X106937593Y-68146619D01*
X106950678Y-68140430D01*
X106964307Y-68135553D01*
X106978348Y-68132036D01*
X106992666Y-68129912D01*
X107007124Y-68129202D01*
X107302124Y-68129202D01*
X107316582Y-68129912D01*
X107316582Y-68129912D01*
G37*
D11*
X107154624Y-68449202D03*
D10*
G36*
X108286582Y-68129912D02*
X108300900Y-68132036D01*
X108314941Y-68135553D01*
X108328570Y-68140430D01*
X108341655Y-68146619D01*
X108354071Y-68154060D01*
X108365697Y-68162683D01*
X108376422Y-68172404D01*
X108386143Y-68183129D01*
X108394766Y-68194755D01*
X108402207Y-68207171D01*
X108408396Y-68220256D01*
X108413273Y-68233885D01*
X108416790Y-68247926D01*
X108418914Y-68262244D01*
X108419624Y-68276702D01*
X108419624Y-68621702D01*
X108418914Y-68636160D01*
X108416790Y-68650478D01*
X108413273Y-68664519D01*
X108408396Y-68678148D01*
X108402207Y-68691233D01*
X108394766Y-68703649D01*
X108386143Y-68715275D01*
X108376422Y-68726000D01*
X108365697Y-68735721D01*
X108354071Y-68744344D01*
X108341655Y-68751785D01*
X108328570Y-68757974D01*
X108314941Y-68762851D01*
X108300900Y-68766368D01*
X108286582Y-68768492D01*
X108272124Y-68769202D01*
X107977124Y-68769202D01*
X107962666Y-68768492D01*
X107948348Y-68766368D01*
X107934307Y-68762851D01*
X107920678Y-68757974D01*
X107907593Y-68751785D01*
X107895177Y-68744344D01*
X107883551Y-68735721D01*
X107872826Y-68726000D01*
X107863105Y-68715275D01*
X107854482Y-68703649D01*
X107847041Y-68691233D01*
X107840852Y-68678148D01*
X107835975Y-68664519D01*
X107832458Y-68650478D01*
X107830334Y-68636160D01*
X107829624Y-68621702D01*
X107829624Y-68276702D01*
X107830334Y-68262244D01*
X107832458Y-68247926D01*
X107835975Y-68233885D01*
X107840852Y-68220256D01*
X107847041Y-68207171D01*
X107854482Y-68194755D01*
X107863105Y-68183129D01*
X107872826Y-68172404D01*
X107883551Y-68162683D01*
X107895177Y-68154060D01*
X107907593Y-68146619D01*
X107920678Y-68140430D01*
X107934307Y-68135553D01*
X107948348Y-68132036D01*
X107962666Y-68129912D01*
X107977124Y-68129202D01*
X108272124Y-68129202D01*
X108286582Y-68129912D01*
X108286582Y-68129912D01*
G37*
D11*
X108124624Y-68449202D03*
G04 #@! TD*
D10*
G04 #@! TO.C,C3*
G36*
X104476582Y-114129912D02*
X104490900Y-114132036D01*
X104504941Y-114135553D01*
X104518570Y-114140430D01*
X104531655Y-114146619D01*
X104544071Y-114154060D01*
X104555697Y-114162683D01*
X104566422Y-114172404D01*
X104576143Y-114183129D01*
X104584766Y-114194755D01*
X104592207Y-114207171D01*
X104598396Y-114220256D01*
X104603273Y-114233885D01*
X104606790Y-114247926D01*
X104608914Y-114262244D01*
X104609624Y-114276702D01*
X104609624Y-114621702D01*
X104608914Y-114636160D01*
X104606790Y-114650478D01*
X104603273Y-114664519D01*
X104598396Y-114678148D01*
X104592207Y-114691233D01*
X104584766Y-114703649D01*
X104576143Y-114715275D01*
X104566422Y-114726000D01*
X104555697Y-114735721D01*
X104544071Y-114744344D01*
X104531655Y-114751785D01*
X104518570Y-114757974D01*
X104504941Y-114762851D01*
X104490900Y-114766368D01*
X104476582Y-114768492D01*
X104462124Y-114769202D01*
X104167124Y-114769202D01*
X104152666Y-114768492D01*
X104138348Y-114766368D01*
X104124307Y-114762851D01*
X104110678Y-114757974D01*
X104097593Y-114751785D01*
X104085177Y-114744344D01*
X104073551Y-114735721D01*
X104062826Y-114726000D01*
X104053105Y-114715275D01*
X104044482Y-114703649D01*
X104037041Y-114691233D01*
X104030852Y-114678148D01*
X104025975Y-114664519D01*
X104022458Y-114650478D01*
X104020334Y-114636160D01*
X104019624Y-114621702D01*
X104019624Y-114276702D01*
X104020334Y-114262244D01*
X104022458Y-114247926D01*
X104025975Y-114233885D01*
X104030852Y-114220256D01*
X104037041Y-114207171D01*
X104044482Y-114194755D01*
X104053105Y-114183129D01*
X104062826Y-114172404D01*
X104073551Y-114162683D01*
X104085177Y-114154060D01*
X104097593Y-114146619D01*
X104110678Y-114140430D01*
X104124307Y-114135553D01*
X104138348Y-114132036D01*
X104152666Y-114129912D01*
X104167124Y-114129202D01*
X104462124Y-114129202D01*
X104476582Y-114129912D01*
X104476582Y-114129912D01*
G37*
D11*
X104314624Y-114449202D03*
D10*
G36*
X103506582Y-114129912D02*
X103520900Y-114132036D01*
X103534941Y-114135553D01*
X103548570Y-114140430D01*
X103561655Y-114146619D01*
X103574071Y-114154060D01*
X103585697Y-114162683D01*
X103596422Y-114172404D01*
X103606143Y-114183129D01*
X103614766Y-114194755D01*
X103622207Y-114207171D01*
X103628396Y-114220256D01*
X103633273Y-114233885D01*
X103636790Y-114247926D01*
X103638914Y-114262244D01*
X103639624Y-114276702D01*
X103639624Y-114621702D01*
X103638914Y-114636160D01*
X103636790Y-114650478D01*
X103633273Y-114664519D01*
X103628396Y-114678148D01*
X103622207Y-114691233D01*
X103614766Y-114703649D01*
X103606143Y-114715275D01*
X103596422Y-114726000D01*
X103585697Y-114735721D01*
X103574071Y-114744344D01*
X103561655Y-114751785D01*
X103548570Y-114757974D01*
X103534941Y-114762851D01*
X103520900Y-114766368D01*
X103506582Y-114768492D01*
X103492124Y-114769202D01*
X103197124Y-114769202D01*
X103182666Y-114768492D01*
X103168348Y-114766368D01*
X103154307Y-114762851D01*
X103140678Y-114757974D01*
X103127593Y-114751785D01*
X103115177Y-114744344D01*
X103103551Y-114735721D01*
X103092826Y-114726000D01*
X103083105Y-114715275D01*
X103074482Y-114703649D01*
X103067041Y-114691233D01*
X103060852Y-114678148D01*
X103055975Y-114664519D01*
X103052458Y-114650478D01*
X103050334Y-114636160D01*
X103049624Y-114621702D01*
X103049624Y-114276702D01*
X103050334Y-114262244D01*
X103052458Y-114247926D01*
X103055975Y-114233885D01*
X103060852Y-114220256D01*
X103067041Y-114207171D01*
X103074482Y-114194755D01*
X103083105Y-114183129D01*
X103092826Y-114172404D01*
X103103551Y-114162683D01*
X103115177Y-114154060D01*
X103127593Y-114146619D01*
X103140678Y-114140430D01*
X103154307Y-114135553D01*
X103168348Y-114132036D01*
X103182666Y-114129912D01*
X103197124Y-114129202D01*
X103492124Y-114129202D01*
X103506582Y-114129912D01*
X103506582Y-114129912D01*
G37*
D11*
X103344624Y-114449202D03*
G04 #@! TD*
D10*
G04 #@! TO.C,C3*
G36*
X60476582Y-114129912D02*
X60490900Y-114132036D01*
X60504941Y-114135553D01*
X60518570Y-114140430D01*
X60531655Y-114146619D01*
X60544071Y-114154060D01*
X60555697Y-114162683D01*
X60566422Y-114172404D01*
X60576143Y-114183129D01*
X60584766Y-114194755D01*
X60592207Y-114207171D01*
X60598396Y-114220256D01*
X60603273Y-114233885D01*
X60606790Y-114247926D01*
X60608914Y-114262244D01*
X60609624Y-114276702D01*
X60609624Y-114621702D01*
X60608914Y-114636160D01*
X60606790Y-114650478D01*
X60603273Y-114664519D01*
X60598396Y-114678148D01*
X60592207Y-114691233D01*
X60584766Y-114703649D01*
X60576143Y-114715275D01*
X60566422Y-114726000D01*
X60555697Y-114735721D01*
X60544071Y-114744344D01*
X60531655Y-114751785D01*
X60518570Y-114757974D01*
X60504941Y-114762851D01*
X60490900Y-114766368D01*
X60476582Y-114768492D01*
X60462124Y-114769202D01*
X60167124Y-114769202D01*
X60152666Y-114768492D01*
X60138348Y-114766368D01*
X60124307Y-114762851D01*
X60110678Y-114757974D01*
X60097593Y-114751785D01*
X60085177Y-114744344D01*
X60073551Y-114735721D01*
X60062826Y-114726000D01*
X60053105Y-114715275D01*
X60044482Y-114703649D01*
X60037041Y-114691233D01*
X60030852Y-114678148D01*
X60025975Y-114664519D01*
X60022458Y-114650478D01*
X60020334Y-114636160D01*
X60019624Y-114621702D01*
X60019624Y-114276702D01*
X60020334Y-114262244D01*
X60022458Y-114247926D01*
X60025975Y-114233885D01*
X60030852Y-114220256D01*
X60037041Y-114207171D01*
X60044482Y-114194755D01*
X60053105Y-114183129D01*
X60062826Y-114172404D01*
X60073551Y-114162683D01*
X60085177Y-114154060D01*
X60097593Y-114146619D01*
X60110678Y-114140430D01*
X60124307Y-114135553D01*
X60138348Y-114132036D01*
X60152666Y-114129912D01*
X60167124Y-114129202D01*
X60462124Y-114129202D01*
X60476582Y-114129912D01*
X60476582Y-114129912D01*
G37*
D11*
X60314624Y-114449202D03*
D10*
G36*
X59506582Y-114129912D02*
X59520900Y-114132036D01*
X59534941Y-114135553D01*
X59548570Y-114140430D01*
X59561655Y-114146619D01*
X59574071Y-114154060D01*
X59585697Y-114162683D01*
X59596422Y-114172404D01*
X59606143Y-114183129D01*
X59614766Y-114194755D01*
X59622207Y-114207171D01*
X59628396Y-114220256D01*
X59633273Y-114233885D01*
X59636790Y-114247926D01*
X59638914Y-114262244D01*
X59639624Y-114276702D01*
X59639624Y-114621702D01*
X59638914Y-114636160D01*
X59636790Y-114650478D01*
X59633273Y-114664519D01*
X59628396Y-114678148D01*
X59622207Y-114691233D01*
X59614766Y-114703649D01*
X59606143Y-114715275D01*
X59596422Y-114726000D01*
X59585697Y-114735721D01*
X59574071Y-114744344D01*
X59561655Y-114751785D01*
X59548570Y-114757974D01*
X59534941Y-114762851D01*
X59520900Y-114766368D01*
X59506582Y-114768492D01*
X59492124Y-114769202D01*
X59197124Y-114769202D01*
X59182666Y-114768492D01*
X59168348Y-114766368D01*
X59154307Y-114762851D01*
X59140678Y-114757974D01*
X59127593Y-114751785D01*
X59115177Y-114744344D01*
X59103551Y-114735721D01*
X59092826Y-114726000D01*
X59083105Y-114715275D01*
X59074482Y-114703649D01*
X59067041Y-114691233D01*
X59060852Y-114678148D01*
X59055975Y-114664519D01*
X59052458Y-114650478D01*
X59050334Y-114636160D01*
X59049624Y-114621702D01*
X59049624Y-114276702D01*
X59050334Y-114262244D01*
X59052458Y-114247926D01*
X59055975Y-114233885D01*
X59060852Y-114220256D01*
X59067041Y-114207171D01*
X59074482Y-114194755D01*
X59083105Y-114183129D01*
X59092826Y-114172404D01*
X59103551Y-114162683D01*
X59115177Y-114154060D01*
X59127593Y-114146619D01*
X59140678Y-114140430D01*
X59154307Y-114135553D01*
X59168348Y-114132036D01*
X59182666Y-114129912D01*
X59197124Y-114129202D01*
X59492124Y-114129202D01*
X59506582Y-114129912D01*
X59506582Y-114129912D01*
G37*
D11*
X59344624Y-114449202D03*
G04 #@! TD*
D10*
G04 #@! TO.C,C3*
G36*
X104476582Y-68129912D02*
X104490900Y-68132036D01*
X104504941Y-68135553D01*
X104518570Y-68140430D01*
X104531655Y-68146619D01*
X104544071Y-68154060D01*
X104555697Y-68162683D01*
X104566422Y-68172404D01*
X104576143Y-68183129D01*
X104584766Y-68194755D01*
X104592207Y-68207171D01*
X104598396Y-68220256D01*
X104603273Y-68233885D01*
X104606790Y-68247926D01*
X104608914Y-68262244D01*
X104609624Y-68276702D01*
X104609624Y-68621702D01*
X104608914Y-68636160D01*
X104606790Y-68650478D01*
X104603273Y-68664519D01*
X104598396Y-68678148D01*
X104592207Y-68691233D01*
X104584766Y-68703649D01*
X104576143Y-68715275D01*
X104566422Y-68726000D01*
X104555697Y-68735721D01*
X104544071Y-68744344D01*
X104531655Y-68751785D01*
X104518570Y-68757974D01*
X104504941Y-68762851D01*
X104490900Y-68766368D01*
X104476582Y-68768492D01*
X104462124Y-68769202D01*
X104167124Y-68769202D01*
X104152666Y-68768492D01*
X104138348Y-68766368D01*
X104124307Y-68762851D01*
X104110678Y-68757974D01*
X104097593Y-68751785D01*
X104085177Y-68744344D01*
X104073551Y-68735721D01*
X104062826Y-68726000D01*
X104053105Y-68715275D01*
X104044482Y-68703649D01*
X104037041Y-68691233D01*
X104030852Y-68678148D01*
X104025975Y-68664519D01*
X104022458Y-68650478D01*
X104020334Y-68636160D01*
X104019624Y-68621702D01*
X104019624Y-68276702D01*
X104020334Y-68262244D01*
X104022458Y-68247926D01*
X104025975Y-68233885D01*
X104030852Y-68220256D01*
X104037041Y-68207171D01*
X104044482Y-68194755D01*
X104053105Y-68183129D01*
X104062826Y-68172404D01*
X104073551Y-68162683D01*
X104085177Y-68154060D01*
X104097593Y-68146619D01*
X104110678Y-68140430D01*
X104124307Y-68135553D01*
X104138348Y-68132036D01*
X104152666Y-68129912D01*
X104167124Y-68129202D01*
X104462124Y-68129202D01*
X104476582Y-68129912D01*
X104476582Y-68129912D01*
G37*
D11*
X104314624Y-68449202D03*
D10*
G36*
X103506582Y-68129912D02*
X103520900Y-68132036D01*
X103534941Y-68135553D01*
X103548570Y-68140430D01*
X103561655Y-68146619D01*
X103574071Y-68154060D01*
X103585697Y-68162683D01*
X103596422Y-68172404D01*
X103606143Y-68183129D01*
X103614766Y-68194755D01*
X103622207Y-68207171D01*
X103628396Y-68220256D01*
X103633273Y-68233885D01*
X103636790Y-68247926D01*
X103638914Y-68262244D01*
X103639624Y-68276702D01*
X103639624Y-68621702D01*
X103638914Y-68636160D01*
X103636790Y-68650478D01*
X103633273Y-68664519D01*
X103628396Y-68678148D01*
X103622207Y-68691233D01*
X103614766Y-68703649D01*
X103606143Y-68715275D01*
X103596422Y-68726000D01*
X103585697Y-68735721D01*
X103574071Y-68744344D01*
X103561655Y-68751785D01*
X103548570Y-68757974D01*
X103534941Y-68762851D01*
X103520900Y-68766368D01*
X103506582Y-68768492D01*
X103492124Y-68769202D01*
X103197124Y-68769202D01*
X103182666Y-68768492D01*
X103168348Y-68766368D01*
X103154307Y-68762851D01*
X103140678Y-68757974D01*
X103127593Y-68751785D01*
X103115177Y-68744344D01*
X103103551Y-68735721D01*
X103092826Y-68726000D01*
X103083105Y-68715275D01*
X103074482Y-68703649D01*
X103067041Y-68691233D01*
X103060852Y-68678148D01*
X103055975Y-68664519D01*
X103052458Y-68650478D01*
X103050334Y-68636160D01*
X103049624Y-68621702D01*
X103049624Y-68276702D01*
X103050334Y-68262244D01*
X103052458Y-68247926D01*
X103055975Y-68233885D01*
X103060852Y-68220256D01*
X103067041Y-68207171D01*
X103074482Y-68194755D01*
X103083105Y-68183129D01*
X103092826Y-68172404D01*
X103103551Y-68162683D01*
X103115177Y-68154060D01*
X103127593Y-68146619D01*
X103140678Y-68140430D01*
X103154307Y-68135553D01*
X103168348Y-68132036D01*
X103182666Y-68129912D01*
X103197124Y-68129202D01*
X103492124Y-68129202D01*
X103506582Y-68129912D01*
X103506582Y-68129912D01*
G37*
D11*
X103344624Y-68449202D03*
G04 #@! TD*
D12*
G04 #@! TO.C,J1*
X67644000Y-42940500D03*
X68914000Y-42940500D03*
X70184000Y-42940500D03*
X71454000Y-42940500D03*
X72724000Y-42940500D03*
X67644000Y-47131500D03*
X68914000Y-47131500D03*
X70184000Y-47131500D03*
X72724000Y-47131500D03*
X71454000Y-47131500D03*
G04 #@! TD*
D10*
G04 #@! TO.C,C1*
G36*
X66826582Y-68129912D02*
X66840900Y-68132036D01*
X66854941Y-68135553D01*
X66868570Y-68140430D01*
X66881655Y-68146619D01*
X66894071Y-68154060D01*
X66905697Y-68162683D01*
X66916422Y-68172404D01*
X66926143Y-68183129D01*
X66934766Y-68194755D01*
X66942207Y-68207171D01*
X66948396Y-68220256D01*
X66953273Y-68233885D01*
X66956790Y-68247926D01*
X66958914Y-68262244D01*
X66959624Y-68276702D01*
X66959624Y-68621702D01*
X66958914Y-68636160D01*
X66956790Y-68650478D01*
X66953273Y-68664519D01*
X66948396Y-68678148D01*
X66942207Y-68691233D01*
X66934766Y-68703649D01*
X66926143Y-68715275D01*
X66916422Y-68726000D01*
X66905697Y-68735721D01*
X66894071Y-68744344D01*
X66881655Y-68751785D01*
X66868570Y-68757974D01*
X66854941Y-68762851D01*
X66840900Y-68766368D01*
X66826582Y-68768492D01*
X66812124Y-68769202D01*
X66517124Y-68769202D01*
X66502666Y-68768492D01*
X66488348Y-68766368D01*
X66474307Y-68762851D01*
X66460678Y-68757974D01*
X66447593Y-68751785D01*
X66435177Y-68744344D01*
X66423551Y-68735721D01*
X66412826Y-68726000D01*
X66403105Y-68715275D01*
X66394482Y-68703649D01*
X66387041Y-68691233D01*
X66380852Y-68678148D01*
X66375975Y-68664519D01*
X66372458Y-68650478D01*
X66370334Y-68636160D01*
X66369624Y-68621702D01*
X66369624Y-68276702D01*
X66370334Y-68262244D01*
X66372458Y-68247926D01*
X66375975Y-68233885D01*
X66380852Y-68220256D01*
X66387041Y-68207171D01*
X66394482Y-68194755D01*
X66403105Y-68183129D01*
X66412826Y-68172404D01*
X66423551Y-68162683D01*
X66435177Y-68154060D01*
X66447593Y-68146619D01*
X66460678Y-68140430D01*
X66474307Y-68135553D01*
X66488348Y-68132036D01*
X66502666Y-68129912D01*
X66517124Y-68129202D01*
X66812124Y-68129202D01*
X66826582Y-68129912D01*
X66826582Y-68129912D01*
G37*
D11*
X66664624Y-68449202D03*
D10*
G36*
X65856582Y-68129912D02*
X65870900Y-68132036D01*
X65884941Y-68135553D01*
X65898570Y-68140430D01*
X65911655Y-68146619D01*
X65924071Y-68154060D01*
X65935697Y-68162683D01*
X65946422Y-68172404D01*
X65956143Y-68183129D01*
X65964766Y-68194755D01*
X65972207Y-68207171D01*
X65978396Y-68220256D01*
X65983273Y-68233885D01*
X65986790Y-68247926D01*
X65988914Y-68262244D01*
X65989624Y-68276702D01*
X65989624Y-68621702D01*
X65988914Y-68636160D01*
X65986790Y-68650478D01*
X65983273Y-68664519D01*
X65978396Y-68678148D01*
X65972207Y-68691233D01*
X65964766Y-68703649D01*
X65956143Y-68715275D01*
X65946422Y-68726000D01*
X65935697Y-68735721D01*
X65924071Y-68744344D01*
X65911655Y-68751785D01*
X65898570Y-68757974D01*
X65884941Y-68762851D01*
X65870900Y-68766368D01*
X65856582Y-68768492D01*
X65842124Y-68769202D01*
X65547124Y-68769202D01*
X65532666Y-68768492D01*
X65518348Y-68766368D01*
X65504307Y-68762851D01*
X65490678Y-68757974D01*
X65477593Y-68751785D01*
X65465177Y-68744344D01*
X65453551Y-68735721D01*
X65442826Y-68726000D01*
X65433105Y-68715275D01*
X65424482Y-68703649D01*
X65417041Y-68691233D01*
X65410852Y-68678148D01*
X65405975Y-68664519D01*
X65402458Y-68650478D01*
X65400334Y-68636160D01*
X65399624Y-68621702D01*
X65399624Y-68276702D01*
X65400334Y-68262244D01*
X65402458Y-68247926D01*
X65405975Y-68233885D01*
X65410852Y-68220256D01*
X65417041Y-68207171D01*
X65424482Y-68194755D01*
X65433105Y-68183129D01*
X65442826Y-68172404D01*
X65453551Y-68162683D01*
X65465177Y-68154060D01*
X65477593Y-68146619D01*
X65490678Y-68140430D01*
X65504307Y-68135553D01*
X65518348Y-68132036D01*
X65532666Y-68129912D01*
X65547124Y-68129202D01*
X65842124Y-68129202D01*
X65856582Y-68129912D01*
X65856582Y-68129912D01*
G37*
D11*
X65694624Y-68449202D03*
G04 #@! TD*
D10*
G04 #@! TO.C,C2*
G36*
X64286582Y-68129912D02*
X64300900Y-68132036D01*
X64314941Y-68135553D01*
X64328570Y-68140430D01*
X64341655Y-68146619D01*
X64354071Y-68154060D01*
X64365697Y-68162683D01*
X64376422Y-68172404D01*
X64386143Y-68183129D01*
X64394766Y-68194755D01*
X64402207Y-68207171D01*
X64408396Y-68220256D01*
X64413273Y-68233885D01*
X64416790Y-68247926D01*
X64418914Y-68262244D01*
X64419624Y-68276702D01*
X64419624Y-68621702D01*
X64418914Y-68636160D01*
X64416790Y-68650478D01*
X64413273Y-68664519D01*
X64408396Y-68678148D01*
X64402207Y-68691233D01*
X64394766Y-68703649D01*
X64386143Y-68715275D01*
X64376422Y-68726000D01*
X64365697Y-68735721D01*
X64354071Y-68744344D01*
X64341655Y-68751785D01*
X64328570Y-68757974D01*
X64314941Y-68762851D01*
X64300900Y-68766368D01*
X64286582Y-68768492D01*
X64272124Y-68769202D01*
X63977124Y-68769202D01*
X63962666Y-68768492D01*
X63948348Y-68766368D01*
X63934307Y-68762851D01*
X63920678Y-68757974D01*
X63907593Y-68751785D01*
X63895177Y-68744344D01*
X63883551Y-68735721D01*
X63872826Y-68726000D01*
X63863105Y-68715275D01*
X63854482Y-68703649D01*
X63847041Y-68691233D01*
X63840852Y-68678148D01*
X63835975Y-68664519D01*
X63832458Y-68650478D01*
X63830334Y-68636160D01*
X63829624Y-68621702D01*
X63829624Y-68276702D01*
X63830334Y-68262244D01*
X63832458Y-68247926D01*
X63835975Y-68233885D01*
X63840852Y-68220256D01*
X63847041Y-68207171D01*
X63854482Y-68194755D01*
X63863105Y-68183129D01*
X63872826Y-68172404D01*
X63883551Y-68162683D01*
X63895177Y-68154060D01*
X63907593Y-68146619D01*
X63920678Y-68140430D01*
X63934307Y-68135553D01*
X63948348Y-68132036D01*
X63962666Y-68129912D01*
X63977124Y-68129202D01*
X64272124Y-68129202D01*
X64286582Y-68129912D01*
X64286582Y-68129912D01*
G37*
D11*
X64124624Y-68449202D03*
D10*
G36*
X63316582Y-68129912D02*
X63330900Y-68132036D01*
X63344941Y-68135553D01*
X63358570Y-68140430D01*
X63371655Y-68146619D01*
X63384071Y-68154060D01*
X63395697Y-68162683D01*
X63406422Y-68172404D01*
X63416143Y-68183129D01*
X63424766Y-68194755D01*
X63432207Y-68207171D01*
X63438396Y-68220256D01*
X63443273Y-68233885D01*
X63446790Y-68247926D01*
X63448914Y-68262244D01*
X63449624Y-68276702D01*
X63449624Y-68621702D01*
X63448914Y-68636160D01*
X63446790Y-68650478D01*
X63443273Y-68664519D01*
X63438396Y-68678148D01*
X63432207Y-68691233D01*
X63424766Y-68703649D01*
X63416143Y-68715275D01*
X63406422Y-68726000D01*
X63395697Y-68735721D01*
X63384071Y-68744344D01*
X63371655Y-68751785D01*
X63358570Y-68757974D01*
X63344941Y-68762851D01*
X63330900Y-68766368D01*
X63316582Y-68768492D01*
X63302124Y-68769202D01*
X63007124Y-68769202D01*
X62992666Y-68768492D01*
X62978348Y-68766368D01*
X62964307Y-68762851D01*
X62950678Y-68757974D01*
X62937593Y-68751785D01*
X62925177Y-68744344D01*
X62913551Y-68735721D01*
X62902826Y-68726000D01*
X62893105Y-68715275D01*
X62884482Y-68703649D01*
X62877041Y-68691233D01*
X62870852Y-68678148D01*
X62865975Y-68664519D01*
X62862458Y-68650478D01*
X62860334Y-68636160D01*
X62859624Y-68621702D01*
X62859624Y-68276702D01*
X62860334Y-68262244D01*
X62862458Y-68247926D01*
X62865975Y-68233885D01*
X62870852Y-68220256D01*
X62877041Y-68207171D01*
X62884482Y-68194755D01*
X62893105Y-68183129D01*
X62902826Y-68172404D01*
X62913551Y-68162683D01*
X62925177Y-68154060D01*
X62937593Y-68146619D01*
X62950678Y-68140430D01*
X62964307Y-68135553D01*
X62978348Y-68132036D01*
X62992666Y-68129912D01*
X63007124Y-68129202D01*
X63302124Y-68129202D01*
X63316582Y-68129912D01*
X63316582Y-68129912D01*
G37*
D11*
X63154624Y-68449202D03*
G04 #@! TD*
D10*
G04 #@! TO.C,C3*
G36*
X59506582Y-68129912D02*
X59520900Y-68132036D01*
X59534941Y-68135553D01*
X59548570Y-68140430D01*
X59561655Y-68146619D01*
X59574071Y-68154060D01*
X59585697Y-68162683D01*
X59596422Y-68172404D01*
X59606143Y-68183129D01*
X59614766Y-68194755D01*
X59622207Y-68207171D01*
X59628396Y-68220256D01*
X59633273Y-68233885D01*
X59636790Y-68247926D01*
X59638914Y-68262244D01*
X59639624Y-68276702D01*
X59639624Y-68621702D01*
X59638914Y-68636160D01*
X59636790Y-68650478D01*
X59633273Y-68664519D01*
X59628396Y-68678148D01*
X59622207Y-68691233D01*
X59614766Y-68703649D01*
X59606143Y-68715275D01*
X59596422Y-68726000D01*
X59585697Y-68735721D01*
X59574071Y-68744344D01*
X59561655Y-68751785D01*
X59548570Y-68757974D01*
X59534941Y-68762851D01*
X59520900Y-68766368D01*
X59506582Y-68768492D01*
X59492124Y-68769202D01*
X59197124Y-68769202D01*
X59182666Y-68768492D01*
X59168348Y-68766368D01*
X59154307Y-68762851D01*
X59140678Y-68757974D01*
X59127593Y-68751785D01*
X59115177Y-68744344D01*
X59103551Y-68735721D01*
X59092826Y-68726000D01*
X59083105Y-68715275D01*
X59074482Y-68703649D01*
X59067041Y-68691233D01*
X59060852Y-68678148D01*
X59055975Y-68664519D01*
X59052458Y-68650478D01*
X59050334Y-68636160D01*
X59049624Y-68621702D01*
X59049624Y-68276702D01*
X59050334Y-68262244D01*
X59052458Y-68247926D01*
X59055975Y-68233885D01*
X59060852Y-68220256D01*
X59067041Y-68207171D01*
X59074482Y-68194755D01*
X59083105Y-68183129D01*
X59092826Y-68172404D01*
X59103551Y-68162683D01*
X59115177Y-68154060D01*
X59127593Y-68146619D01*
X59140678Y-68140430D01*
X59154307Y-68135553D01*
X59168348Y-68132036D01*
X59182666Y-68129912D01*
X59197124Y-68129202D01*
X59492124Y-68129202D01*
X59506582Y-68129912D01*
X59506582Y-68129912D01*
G37*
D11*
X59344624Y-68449202D03*
D10*
G36*
X60476582Y-68129912D02*
X60490900Y-68132036D01*
X60504941Y-68135553D01*
X60518570Y-68140430D01*
X60531655Y-68146619D01*
X60544071Y-68154060D01*
X60555697Y-68162683D01*
X60566422Y-68172404D01*
X60576143Y-68183129D01*
X60584766Y-68194755D01*
X60592207Y-68207171D01*
X60598396Y-68220256D01*
X60603273Y-68233885D01*
X60606790Y-68247926D01*
X60608914Y-68262244D01*
X60609624Y-68276702D01*
X60609624Y-68621702D01*
X60608914Y-68636160D01*
X60606790Y-68650478D01*
X60603273Y-68664519D01*
X60598396Y-68678148D01*
X60592207Y-68691233D01*
X60584766Y-68703649D01*
X60576143Y-68715275D01*
X60566422Y-68726000D01*
X60555697Y-68735721D01*
X60544071Y-68744344D01*
X60531655Y-68751785D01*
X60518570Y-68757974D01*
X60504941Y-68762851D01*
X60490900Y-68766368D01*
X60476582Y-68768492D01*
X60462124Y-68769202D01*
X60167124Y-68769202D01*
X60152666Y-68768492D01*
X60138348Y-68766368D01*
X60124307Y-68762851D01*
X60110678Y-68757974D01*
X60097593Y-68751785D01*
X60085177Y-68744344D01*
X60073551Y-68735721D01*
X60062826Y-68726000D01*
X60053105Y-68715275D01*
X60044482Y-68703649D01*
X60037041Y-68691233D01*
X60030852Y-68678148D01*
X60025975Y-68664519D01*
X60022458Y-68650478D01*
X60020334Y-68636160D01*
X60019624Y-68621702D01*
X60019624Y-68276702D01*
X60020334Y-68262244D01*
X60022458Y-68247926D01*
X60025975Y-68233885D01*
X60030852Y-68220256D01*
X60037041Y-68207171D01*
X60044482Y-68194755D01*
X60053105Y-68183129D01*
X60062826Y-68172404D01*
X60073551Y-68162683D01*
X60085177Y-68154060D01*
X60097593Y-68146619D01*
X60110678Y-68140430D01*
X60124307Y-68135553D01*
X60138348Y-68132036D01*
X60152666Y-68129912D01*
X60167124Y-68129202D01*
X60462124Y-68129202D01*
X60476582Y-68129912D01*
X60476582Y-68129912D01*
G37*
D11*
X60314624Y-68449202D03*
G04 #@! TD*
D10*
G04 #@! TO.C,C4*
G36*
X56966582Y-68129912D02*
X56980900Y-68132036D01*
X56994941Y-68135553D01*
X57008570Y-68140430D01*
X57021655Y-68146619D01*
X57034071Y-68154060D01*
X57045697Y-68162683D01*
X57056422Y-68172404D01*
X57066143Y-68183129D01*
X57074766Y-68194755D01*
X57082207Y-68207171D01*
X57088396Y-68220256D01*
X57093273Y-68233885D01*
X57096790Y-68247926D01*
X57098914Y-68262244D01*
X57099624Y-68276702D01*
X57099624Y-68621702D01*
X57098914Y-68636160D01*
X57096790Y-68650478D01*
X57093273Y-68664519D01*
X57088396Y-68678148D01*
X57082207Y-68691233D01*
X57074766Y-68703649D01*
X57066143Y-68715275D01*
X57056422Y-68726000D01*
X57045697Y-68735721D01*
X57034071Y-68744344D01*
X57021655Y-68751785D01*
X57008570Y-68757974D01*
X56994941Y-68762851D01*
X56980900Y-68766368D01*
X56966582Y-68768492D01*
X56952124Y-68769202D01*
X56657124Y-68769202D01*
X56642666Y-68768492D01*
X56628348Y-68766368D01*
X56614307Y-68762851D01*
X56600678Y-68757974D01*
X56587593Y-68751785D01*
X56575177Y-68744344D01*
X56563551Y-68735721D01*
X56552826Y-68726000D01*
X56543105Y-68715275D01*
X56534482Y-68703649D01*
X56527041Y-68691233D01*
X56520852Y-68678148D01*
X56515975Y-68664519D01*
X56512458Y-68650478D01*
X56510334Y-68636160D01*
X56509624Y-68621702D01*
X56509624Y-68276702D01*
X56510334Y-68262244D01*
X56512458Y-68247926D01*
X56515975Y-68233885D01*
X56520852Y-68220256D01*
X56527041Y-68207171D01*
X56534482Y-68194755D01*
X56543105Y-68183129D01*
X56552826Y-68172404D01*
X56563551Y-68162683D01*
X56575177Y-68154060D01*
X56587593Y-68146619D01*
X56600678Y-68140430D01*
X56614307Y-68135553D01*
X56628348Y-68132036D01*
X56642666Y-68129912D01*
X56657124Y-68129202D01*
X56952124Y-68129202D01*
X56966582Y-68129912D01*
X56966582Y-68129912D01*
G37*
D11*
X56804624Y-68449202D03*
D10*
G36*
X57936582Y-68129912D02*
X57950900Y-68132036D01*
X57964941Y-68135553D01*
X57978570Y-68140430D01*
X57991655Y-68146619D01*
X58004071Y-68154060D01*
X58015697Y-68162683D01*
X58026422Y-68172404D01*
X58036143Y-68183129D01*
X58044766Y-68194755D01*
X58052207Y-68207171D01*
X58058396Y-68220256D01*
X58063273Y-68233885D01*
X58066790Y-68247926D01*
X58068914Y-68262244D01*
X58069624Y-68276702D01*
X58069624Y-68621702D01*
X58068914Y-68636160D01*
X58066790Y-68650478D01*
X58063273Y-68664519D01*
X58058396Y-68678148D01*
X58052207Y-68691233D01*
X58044766Y-68703649D01*
X58036143Y-68715275D01*
X58026422Y-68726000D01*
X58015697Y-68735721D01*
X58004071Y-68744344D01*
X57991655Y-68751785D01*
X57978570Y-68757974D01*
X57964941Y-68762851D01*
X57950900Y-68766368D01*
X57936582Y-68768492D01*
X57922124Y-68769202D01*
X57627124Y-68769202D01*
X57612666Y-68768492D01*
X57598348Y-68766368D01*
X57584307Y-68762851D01*
X57570678Y-68757974D01*
X57557593Y-68751785D01*
X57545177Y-68744344D01*
X57533551Y-68735721D01*
X57522826Y-68726000D01*
X57513105Y-68715275D01*
X57504482Y-68703649D01*
X57497041Y-68691233D01*
X57490852Y-68678148D01*
X57485975Y-68664519D01*
X57482458Y-68650478D01*
X57480334Y-68636160D01*
X57479624Y-68621702D01*
X57479624Y-68276702D01*
X57480334Y-68262244D01*
X57482458Y-68247926D01*
X57485975Y-68233885D01*
X57490852Y-68220256D01*
X57497041Y-68207171D01*
X57504482Y-68194755D01*
X57513105Y-68183129D01*
X57522826Y-68172404D01*
X57533551Y-68162683D01*
X57545177Y-68154060D01*
X57557593Y-68146619D01*
X57570678Y-68140430D01*
X57584307Y-68135553D01*
X57598348Y-68132036D01*
X57612666Y-68129912D01*
X57627124Y-68129202D01*
X57922124Y-68129202D01*
X57936582Y-68129912D01*
X57936582Y-68129912D01*
G37*
D11*
X57774624Y-68449202D03*
G04 #@! TD*
D17*
G04 #@! TO.C,J4*
X68376000Y-76596000D03*
X69026000Y-76596000D03*
X69676000Y-76596000D03*
X70326000Y-76596000D03*
X70976000Y-76596000D03*
D16*
X67213500Y-76956000D03*
X72138500Y-76956000D03*
D15*
X66766000Y-79256000D03*
X72586000Y-79256000D03*
D14*
X68836000Y-79256000D03*
X70516000Y-79256000D03*
G04 #@! TD*
D10*
G04 #@! TO.C,R1*
G36*
X87261958Y-41670710D02*
X87276276Y-41672834D01*
X87290317Y-41676351D01*
X87303946Y-41681228D01*
X87317031Y-41687417D01*
X87329447Y-41694858D01*
X87341073Y-41703481D01*
X87351798Y-41713202D01*
X87361519Y-41723927D01*
X87370142Y-41735553D01*
X87377583Y-41747969D01*
X87383772Y-41761054D01*
X87388649Y-41774683D01*
X87392166Y-41788724D01*
X87394290Y-41803042D01*
X87395000Y-41817500D01*
X87395000Y-42112500D01*
X87394290Y-42126958D01*
X87392166Y-42141276D01*
X87388649Y-42155317D01*
X87383772Y-42168946D01*
X87377583Y-42182031D01*
X87370142Y-42194447D01*
X87361519Y-42206073D01*
X87351798Y-42216798D01*
X87341073Y-42226519D01*
X87329447Y-42235142D01*
X87317031Y-42242583D01*
X87303946Y-42248772D01*
X87290317Y-42253649D01*
X87276276Y-42257166D01*
X87261958Y-42259290D01*
X87247500Y-42260000D01*
X86902500Y-42260000D01*
X86888042Y-42259290D01*
X86873724Y-42257166D01*
X86859683Y-42253649D01*
X86846054Y-42248772D01*
X86832969Y-42242583D01*
X86820553Y-42235142D01*
X86808927Y-42226519D01*
X86798202Y-42216798D01*
X86788481Y-42206073D01*
X86779858Y-42194447D01*
X86772417Y-42182031D01*
X86766228Y-42168946D01*
X86761351Y-42155317D01*
X86757834Y-42141276D01*
X86755710Y-42126958D01*
X86755000Y-42112500D01*
X86755000Y-41817500D01*
X86755710Y-41803042D01*
X86757834Y-41788724D01*
X86761351Y-41774683D01*
X86766228Y-41761054D01*
X86772417Y-41747969D01*
X86779858Y-41735553D01*
X86788481Y-41723927D01*
X86798202Y-41713202D01*
X86808927Y-41703481D01*
X86820553Y-41694858D01*
X86832969Y-41687417D01*
X86846054Y-41681228D01*
X86859683Y-41676351D01*
X86873724Y-41672834D01*
X86888042Y-41670710D01*
X86902500Y-41670000D01*
X87247500Y-41670000D01*
X87261958Y-41670710D01*
X87261958Y-41670710D01*
G37*
D11*
X87075000Y-41965000D03*
D10*
G36*
X87261958Y-40700710D02*
X87276276Y-40702834D01*
X87290317Y-40706351D01*
X87303946Y-40711228D01*
X87317031Y-40717417D01*
X87329447Y-40724858D01*
X87341073Y-40733481D01*
X87351798Y-40743202D01*
X87361519Y-40753927D01*
X87370142Y-40765553D01*
X87377583Y-40777969D01*
X87383772Y-40791054D01*
X87388649Y-40804683D01*
X87392166Y-40818724D01*
X87394290Y-40833042D01*
X87395000Y-40847500D01*
X87395000Y-41142500D01*
X87394290Y-41156958D01*
X87392166Y-41171276D01*
X87388649Y-41185317D01*
X87383772Y-41198946D01*
X87377583Y-41212031D01*
X87370142Y-41224447D01*
X87361519Y-41236073D01*
X87351798Y-41246798D01*
X87341073Y-41256519D01*
X87329447Y-41265142D01*
X87317031Y-41272583D01*
X87303946Y-41278772D01*
X87290317Y-41283649D01*
X87276276Y-41287166D01*
X87261958Y-41289290D01*
X87247500Y-41290000D01*
X86902500Y-41290000D01*
X86888042Y-41289290D01*
X86873724Y-41287166D01*
X86859683Y-41283649D01*
X86846054Y-41278772D01*
X86832969Y-41272583D01*
X86820553Y-41265142D01*
X86808927Y-41256519D01*
X86798202Y-41246798D01*
X86788481Y-41236073D01*
X86779858Y-41224447D01*
X86772417Y-41212031D01*
X86766228Y-41198946D01*
X86761351Y-41185317D01*
X86757834Y-41171276D01*
X86755710Y-41156958D01*
X86755000Y-41142500D01*
X86755000Y-40847500D01*
X86755710Y-40833042D01*
X86757834Y-40818724D01*
X86761351Y-40804683D01*
X86766228Y-40791054D01*
X86772417Y-40777969D01*
X86779858Y-40765553D01*
X86788481Y-40753927D01*
X86798202Y-40743202D01*
X86808927Y-40733481D01*
X86820553Y-40724858D01*
X86832969Y-40717417D01*
X86846054Y-40711228D01*
X86859683Y-40706351D01*
X86873724Y-40702834D01*
X86888042Y-40700710D01*
X86902500Y-40700000D01*
X87247500Y-40700000D01*
X87261958Y-40700710D01*
X87261958Y-40700710D01*
G37*
D11*
X87075000Y-40995000D03*
G04 #@! TD*
D13*
G04 #@! TO.C,U1*
X63959624Y-71159202D03*
X65859624Y-71159202D03*
X65859624Y-73359202D03*
X64909624Y-73359202D03*
X63959624Y-73359202D03*
G04 #@! TD*
G04 #@! TO.C,U2*
X57609624Y-73359202D03*
X58559624Y-73359202D03*
X59509624Y-73359202D03*
X59509624Y-71159202D03*
X57609624Y-71159202D03*
G04 #@! TD*
M02*
